<svg id="Layer_1" data-name="Layer 1" xmlns="http://www.w3.org/2000/svg" viewBox="0 0 161 39.65"><defs><style>.cls-1{fill:#1a1423;}.cls-2{fill:#ed4944;}.cls-3{fill:#e5e5e5;}.cls-4{fill:#898989;}.cls-5{fill:#cb2429;}.cls-6{fill:#e02128;}.cls-7{fill:#fefdfd;}</style></defs><path class="cls-1" d="M73.19,18.18a10.21,10.21,0,0,1-2.57,6.93,8.38,8.38,0,0,1-6.38,2.76c-.52,0-2,0-4.34,0-.44,0-1.11,0-2,0s-1.56,0-2,0c-.26,0-.39-.11-.39-.31,0-1,0-2.5.11-4.5s.12-3.49.12-4.49,0-2.61-.12-4.69-.11-3.63-.11-4.67c0-.19.13-.3.39-.34.65-.07,1.7-.11,3.17-.11,2.79,0,4.6,0,5.43.13a10.31,10.31,0,0,1,5,1.63,8.32,8.32,0,0,1,2.71,3.43A10.22,10.22,0,0,1,73.19,18.18Zm-5.21,0a5.26,5.26,0,0,0-1.37-3.75,4.74,4.74,0,0,0-3.67-1.51c-1.4,0-2.1.18-2.1.55,0,.54,0,1.34,0,2.42s0,1.88,0,2.41,0,1.32,0,2.37,0,1.85,0,2.39.73.58,2.18.58a4.63,4.63,0,0,0,3.7-1.56A5.82,5.82,0,0,0,68,18.18Z"/><path class="cls-1" d="M80.56,25a7.47,7.47,0,0,1-1,4.23,5.67,5.67,0,0,1-3.71,2.12,8.32,8.32,0,0,1-1.7.16c-.36,0-.54-.78-.54-2.35,0-.79.11-1.22.35-1.29a3.32,3.32,0,0,0,1.36-.64,2.5,2.5,0,0,0,.39-1.51c0-.49.05-1.74.05-3.75a40.36,40.36,0,0,0-.49-6.52,1.76,1.76,0,0,1,0-.19c0-.22.13-.34.38-.34a19.29,19.29,0,0,0,2.11-.08c1.45-.16,2.24-.24,2.38-.24s.3.12.33.35c0,.44.08,2.21.08,5.32Zm.11-13.61q0,2.28-2.7,2.28a3,3,0,0,1-1.87-.55,2,2,0,0,1-.8-1.73,2.07,2.07,0,0,1,.83-1.71,3.14,3.14,0,0,1,3.69,0A2,2,0,0,1,80.67,11.34Z"/><path class="cls-1" d="M96.93,15.46c0,.67,0,1.68-.1,3s-.09,2.35-.09,3,0,1.63.07,2.93.06,2.28.06,2.93a.43.43,0,0,1-.34.46,10.94,10.94,0,0,1-2.18.13,16.42,16.42,0,0,1-2.07-.08.38.38,0,0,1-.33-.32c0-.28,0-.55-.08-.82,0-.42-.11-.62-.19-.62.13,0-.33.3-1.37.92a5.67,5.67,0,0,1-2.84.92q-3.61,0-4.27-3.25a23.9,23.9,0,0,1-.3-4.37,18.74,18.74,0,0,1,.5-4.9c.1-.37.29-.56.56-.56l1.9,0h1.9c.29,0,.43.12.43.35a2,2,0,0,1,0,.29,24.53,24.53,0,0,0-.29,3.75A22.76,22.76,0,0,0,88,22.53,1.62,1.62,0,0,0,89.8,24a2.17,2.17,0,0,0,1.3-.54,1.54,1.54,0,0,0,.73-1.1c0-.33,0-2.61,0-6.82a1,1,0,0,1,.07-.53c0-.09.21-.14.48-.14h2l2,0c.27,0,.43.07.47.2A1.37,1.37,0,0,1,96.93,15.46Z"/><path class="cls-1" d="M108.19,19.35c0,.35-.2.53-.59.53-.17,0-.42,0-.75,0l-.74,0a2.46,2.46,0,0,0-1.54.35,1.91,1.91,0,0,0-.41,1.43c0,.39,0,1,0,1.78s0,1.38,0,1.77,0,.66.06,1.18,0,.91,0,1.16-.15.34-.45.37-1.1,0-2,0-1.55,0-2.07-.08q-.45-.06-.45-.45c0-.73,0-1.81,0-3.26s0-2.53,0-3.25a19.79,19.79,0,0,0-.59-5.27.81.81,0,0,1,0-.2.26.26,0,0,1,.21-.27l2.19-.3,2.21-.42c.17,0,.27.28.32.85s.12.86.24.86c-.13,0,.25-.24,1.12-.71a5.21,5.21,0,0,1,2.51-.72c.51,0,.76.11.76.33a9.44,9.44,0,0,1-.08,1.12q-.08.77-.09,1.11c0,.26,0,.61,0,1.05S108.19,19.18,108.19,19.35Z"/><path class="cls-1" d="M117.73,16.82a.64.64,0,0,1-.2.37,2.84,2.84,0,0,0-.76-.1,2.46,2.46,0,0,0-1.35.35,1.31,1.31,0,0,0-.65,1.16,2,2,0,0,0,.69,1.21,13,13,0,0,1,1.29,1.48,3.86,3.86,0,0,1,.7,2.22,4.5,4.5,0,0,1-.27,1.47,2.93,2.93,0,0,1-.79,1.25A9.44,9.44,0,0,1,114,27.7a6.93,6.93,0,0,1-2.67.62c-.19,0-.59-.49-1.22-1.47a6.12,6.12,0,0,1-1-1.81c0-.08,0-.13.15-.14l1.92-.36c.8-.25,1.2-.67,1.2-1.25a2.25,2.25,0,0,0-.7-1.39c-.82-.91-1.25-1.4-1.29-1.45a3.52,3.52,0,0,1-.69-2.07,4.16,4.16,0,0,1,2.07-3.47,6.88,6.88,0,0,1,4-1.26c.15,0,.51.49,1.08,1.46A7.14,7.14,0,0,1,117.73,16.82Z"/><path class="cls-1" d="M128.79,23.83c0,.28,0,.69-.1,1.24a11.29,11.29,0,0,0-.11,1.22.93.93,0,0,1-.08.5,1.66,1.66,0,0,1-.45.31,8,8,0,0,1-3.89,1c-2.62,0-3.92-1-3.92-3q0-.9.06-2.7c0-1.2.07-2.1.07-2.7q0-.6-.69-.6h-.18l-.18,0c-.34,0-.51-.13-.51-.37s0-.37,0-.67,0-.52,0-.66,0-.48,0-.87,0-.68,0-.87.29-.29.87-.3c.32,0,.5-.1.53-.28a10.38,10.38,0,0,0,.05-1.63c0-1.17-.05-1.72-.05-1.67,0-1,.1-1.58.3-1.58a4.84,4.84,0,0,1,1,.17c.52.11.88.18,1.08.2l2.09.26c.23,0,.34.09.34.23,0,.36,0,.91-.09,1.64s-.08,1.29-.08,1.66.13.67.39.67.8,0,1.44,0,1.13,0,1.46,0,.3.07.3.2,0,.52-.07.94a8.4,8.4,0,0,0-.07.94c0,.22,0,.53,0,.95s0,.73,0,.95-.14.29-.4.29l-.91,0c-.43,0-.73,0-.91,0h-1c-.14,0-.2.2-.2.6v1c0,.44,0,.76,0,1a3.36,3.36,0,0,0,.26,1.57,1.56,1.56,0,0,0,1.44.59,4.06,4.06,0,0,0,1-.16,4.54,4.54,0,0,1,.89-.15A.26.26,0,0,1,128.79,23.83Z"/><path class="cls-1" d="M143.88,21c0,.7,0,1.74.12,3.11s.13,2.42.13,3.1c0,.37-.16.56-.48.59-1.12.08-2.41.12-3.86.12-.17,0-.29-.26-.35-.78s-.13-.79-.21-.8a1.49,1.49,0,0,0-.28.23,4.56,4.56,0,0,1-3.27,1.54A5.48,5.48,0,0,1,131.29,26a7,7,0,0,1-1.65-4.68,7.37,7.37,0,0,1,1.7-5.06,6.17,6.17,0,0,1,4.84-2,4.17,4.17,0,0,1,3.38,1.49s.06.07.09.07.18-.22.28-.66.23-.66.37-.66a12.07,12.07,0,0,1,1.92.29,18.17,18.17,0,0,1,1.93.46c.14,0,.21.13.21.22s0,.13,0,.28A29.92,29.92,0,0,0,143.88,21Zm-4.38.08a2.65,2.65,0,0,0-.72-1.91,2.78,2.78,0,0,0-3.79,0,2.66,2.66,0,0,0-.72,1.92A2.6,2.6,0,0,0,135,23a2.46,2.46,0,0,0,1.85.79,2.53,2.53,0,0,0,1.89-.75A2.66,2.66,0,0,0,139.5,21.1Z"/><path class="cls-1" d="M161,8.52c0-.2,0,.1-.11.9-.1,1-.18,2.3-.23,3.86q-.1,2.67-.11,6.07a72.15,72.15,0,0,0,.31,8c0,.18,0,.28,0,.33s-.07.16-.2.18c-.33,0-1.53.06-3.61.06-.49,0-.77-.09-.84-.28,0-.35,0-.69-.05-1a.43.43,0,0,0-.11-.21.77.77,0,0,0-.21.16A5,5,0,0,1,152.2,28a5.75,5.75,0,0,1-4.59-2A7.16,7.16,0,0,1,146,21.13a7.29,7.29,0,0,1,1.62-4.88,5.72,5.72,0,0,1,4.62-2,4,4,0,0,1,3.2,1.3c.12.15.22.22.27.22s.12-.12.12-.35c0-.7,0-1.74,0-3.13s-.06-2.43-.06-3.11c0-.27.08-.42.22-.45.58,0,1.38-.08,2.39-.17a18.19,18.19,0,0,0,2.41-.34C160.9,8.18,161,8.3,161,8.52ZM155.87,21a2.71,2.71,0,0,0-.74-1.88,2.39,2.39,0,0,0-1.81-.81,2.17,2.17,0,0,0-1.78.81,3,3,0,0,0-.66,1.93,2.76,2.76,0,0,0,.67,1.87,2.19,2.19,0,0,0,1.77.81,2.36,2.36,0,0,0,1.82-.81A2.79,2.79,0,0,0,155.87,21Z"/><path class="cls-2" d="M32.15,4.84l0,0,0,0Z"/><path class="cls-2" d="M32.15,4.84l0,0,0,0Z"/><path class="cls-3" d="M6.19,30.84c1.16-.4,2.34-.76,3.52-1.08-.64-2.33-1.27-4.66-1.91-7l.11,0a1.17,1.17,0,0,0,0-.2l-.25.06-.07-.25c-.66.18-1.32.37-2,.58l-.12-.39-.76.24-.19-.21-.19.06c0-.15-.1-.3-.14-.44H4.07l.15.45-.35.12L4,23l.09.29a1,1,0,0,1,0,.1l-.29.09.09.25-.25.09.07.19.11,0Z"/><path class="cls-3" d="M4.17,22.11a.07.07,0,0,0-.1,0,.07.07,0,0,0-.05.08s.05.05.09,0A.08.08,0,0,0,4.17,22.11Z"/><path class="cls-3" d="M39.44,30.44q1.37-4.68,2.74-9.35c-1.61-.79-3.26-1.5-5-2.15q-.78,5.26-1.65,10.52a54.63,54.63,0,0,0-13-1.19c-.06-2-.11-4-.17-6h-.27L22,18.66l-.73,0c0-.32,0-.64,0-1H21c0-.47-.05-.94-.07-1.41-.5,0-1,.05-1.49.09,0-.35-.05-.7-.07-1h-.14c0,.34.05.69.08,1l-.29,0c0-.44-.07-.87-.1-1.3h-.14c0,.43.07.86.1,1.3l-.93.08c.07.79.14,1.58.22,2.37l-.47,0,.36,3.59-.38,0c.22,2,.43,4,.65,6q-1.72.2-3.45.48-.68-3.94-1.36-7.89h.07l0-.1-.48.09c0-.18-.07-.37-.1-.55h.06v-.09l-.45.08-.06-.31h0v-.07l-.2,0c0-.1,0-.2,0-.3l-.19,0h0c-.07-.35-.13-.7-.2-1.06h-.07c.06.35.13.71.2,1.06l-.09,0c0-.2-.07-.4-.11-.6h-.07c0,.2.07.39.11.59l-.21,0c0,.1,0,.2,0,.3l-.22,0v.07h.07c0,.1,0,.21.07.31l-.45.09s0,.06,0,.09h.06c0,.18.08.36.11.54l-.48.1,0,.09H11c.56,2.61,1.13,5.22,1.69,7.83A55,55,0,0,0,1.56,33.15l.45,1a53.42,53.42,0,0,1,45.19.42c.15-.33.31-.66.47-1A54.82,54.82,0,0,0,39.44,30.44Z"/><path class="cls-4" d="M46.47,34.11l.41-.9-1.33-.59c.34-1.25.67-2.52,1-3.78l-.08,0,.18-.43-.29-.12-.18.43-.07,0c0-.06,0-.11.07-.17l-.2-.08-.07.17-.41-.17c.05-.13.1-.25.14-.38l-.11,0c0-.09.07-.18.1-.26l-.83-.32a2.77,2.77,0,0,1-.1.26l-.11,0c0,.13-.1.25-.14.38l-.12,0-.8,2.18-.7-.25c.65-1.86,1.31-3.71,2-5.57l-.26-.09c.15-.41.29-.81.43-1.22l-.09,0-.42,1.22-.19-.06c.19-.57.38-1.14.58-1.7l-.09,0c-.19.57-.38,1.13-.58,1.7L44,24.06l.32-.92-.09,0c-.1.31-.2.62-.31.92l-1.52-.49-1.23,4c-.53-.17-1.06-.32-1.59-.47l-.72,2.62c-.47-.13-1-.26-1.42-.37-.21-.76-.44-1.52-.68-2.28a2.93,2.93,0,0,0,.64-.25l.19.3a.24.24,0,0,0-.13.15.26.26,0,0,0,.19.29.25.25,0,0,0,.3-.17.23.23,0,0,0-.19-.29.26.26,0,0,0-.15,0l-.18-.3.07,0a3.18,3.18,0,0,0,.81-.64l.24.18s0,0,0,.05a.25.25,0,0,0,.19.29.24.24,0,0,0,.31-.16.24.24,0,0,0-.19-.29.25.25,0,0,0-.27.09l-.24-.18a2.74,2.74,0,0,0,.54-1l.3.08a.25.25,0,0,0,.2.29.24.24,0,0,0,.31-.16.24.24,0,0,0-.19-.29.25.25,0,0,0-.31.14l-.3-.09s0-.05,0-.07a2.64,2.64,0,0,0,0-1h.28a.26.26,0,0,0,.2.19.24.24,0,1,0,.12-.45.26.26,0,0,0-.32.16.17.17,0,0,0,0,.07l-.27,0a2.7,2.7,0,0,0-.44-1.09l.24-.12a.25.25,0,0,0,.17.11.24.24,0,1,0,.11-.45.25.25,0,0,0-.32.16.22.22,0,0,0,0,.16l-.25.12a.35.35,0,0,0,0-.08,3.41,3.41,0,0,0-.92-.85l.16-.21.08,0a.25.25,0,0,0,.32-.17.28.28,0,0,0-.54-.12.24.24,0,0,0,.12.25l-.17.21a3.72,3.72,0,0,0-1.09-.44c0-.11,0-.22.08-.32h0a.26.26,0,0,0,.32-.18.27.27,0,0,0-.23-.28.26.26,0,0,0-.32.17.26.26,0,0,0,.19.28c0,.11,0,.21-.08.32l-.09,0a3.59,3.59,0,0,0-1.13-.05l-.06-.29a.21.21,0,0,0,.2-.18c0-.12-.08-.25-.23-.28a.26.26,0,0,0-.31.19.25.25,0,0,0,.23.27H35l.06.28a3.34,3.34,0,0,0-1.25.4l-.17-.21a.18.18,0,0,0,.1-.14.27.27,0,0,0-.24-.28.24.24,0,1,0-.07.47.38.38,0,0,0,.19,0l.17.21-.08,0a3.14,3.14,0,0,0-.78.71l-.23-.13a.24.24,0,0,0,0-.08.26.26,0,0,0-.23-.27.24.24,0,1,0-.07.47.29.29,0,0,0,.26-.1l.24.13a2.48,2.48,0,0,0-.45,1l-.31-.05a.25.25,0,0,0-.23-.26.25.25,0,0,0-.29.2.24.24,0,0,0,.23.26.26.26,0,0,0,.29-.18l.31.06s0,.05,0,.07a2.86,2.86,0,0,0,.06,1l-.27,0a.28.28,0,0,0-.21-.17.24.24,0,0,0-.29.2.25.25,0,0,0,.22.27.26.26,0,0,0,.29-.2v-.07l.26,0a2.86,2.86,0,0,0,.5,1l-.22.14a.24.24,0,0,0-.16-.09.23.23,0,1,0-.07.46.24.24,0,0,0,.28-.19.21.21,0,0,0,0-.16l.22-.14,0,.07a3.35,3.35,0,0,0,.57.56c-.51.61-1,1.22-1.49,1.85l-.93-.13.18-1.38-.39-.05c.11-.88.22-1.75.32-2.63l.16,0v-.06c-1.17-.14-2.34-.26-3.52-.33v.05l.16,0-.09,1.33-.34,0c-.14.5-.27,1-.41,1.5.1-1.66.19-3.32.29-5h-.15c0-.6.06-1.21.1-1.81l-.78,0,0-.69-.42,0c0-.19,0-.38,0-.57h-.15l0-1h0l0,1H26.1c0,.19,0,.38,0,.57h-.42c0,.23,0,.46,0,.69l-.77,0c0,.61,0,1.21,0,1.81H24.7l0,3.28c-.36,0-.73,0-1.1,0l0,2.89c-1.15,0-2.31.06-3.46.14-.13-1.86-.27-3.72-.41-5.57l.31,0v-.08l-.31,0a.86.86,0,0,1,0-.16l-.39,0a2.28,2.28,0,0,1,0-.26c-1.07.09-2.13.2-3.19.34l0,.26-.39.05a.78.78,0,0,1,0,.16l-.3,0v.09l.31,0,.48,3.45-.49.07c0-.22-.06-.43-.1-.65-1,.15-2,.33-3,.53l.16.78-.65.14c.11.48.21,1,.32,1.45l-1,.23L10.37,24l-.37.09c0-.11-.05-.21-.08-.32l-.29.07L9.42,23l-.06,0,.21.85-.14,0c-.09-.35-.17-.71-.26-1.06l-.07,0,.27,1.06-.17,0c0,.11.06.21.08.32l-.09,0,1.2,4.7c-.69.18-1.39.38-2.08.58L7.5,26.8l.1,0-.06-.18-.67.2c0-.16-.1-.33-.16-.5l-.32.11c.05.16.1.33.16.49l-.3.1c0-.17-.1-.33-.16-.5l-.29.09c0,.17.11.34.16.5l-.57.19-.16-.49c-.59.19-1.17.4-1.75.62l.18.48-.4.16a1.34,1.34,0,0,1,.07.18l.23-.09c.12.33.25.67.38,1l-.62.24c.29.75.58,1.5.88,2.26L3.38,32l-.24-.6-.91.38c.18.44.37.87.55,1.3l-1.06.47c.08.18.17.36.25.55-.52.23-1,.48-1.54.73l.76,1.54a51.8,51.8,0,0,1,45.89,0l.77-1.55ZM36.71,27c-.08-.26-.17-.53-.26-.79a2,2,0,0,0,.43-.17l.46.71A2.85,2.85,0,0,1,36.71,27Zm-1.09-2.57,0,0c-.14.58-.27,1.17-.41,1.75a2.54,2.54,0,0,1-.68-.27Zm-1.08,1.48-.19-.12q.6-.7,1.23-1.38h0C35.24,24.89,34.88,25.39,34.54,25.89Zm1.14-1.46h0c.11.59.21,1.19.31,1.79a2.13,2.13,0,0,1-.71,0h0C35.4,25.6,35.54,25,35.68,24.43Zm.06,0h0c.22.58.42,1.17.62,1.75l-.33.06C36,25.63,35.85,25,35.74,24.43Zm.14.13c.34.47.66,1,1,1.43a1.92,1.92,0,0,1-.42.16C36.26,25.62,36.08,25.09,35.88,24.56Zm0-.1,0-.06,0,0c.55.37,1.1.75,1.63,1.13a2,2,0,0,1-.59.47C36.55,25.47,36.2,25,35.85,24.46Zm0-.1,0,0c.66.15,1.32.32,2,.49a1.79,1.79,0,0,1-.35.67C37,25.11,36.41,24.73,35.85,24.36Zm0-.06v0c.66-.08,1.33-.15,2-.2a1.74,1.74,0,0,1,0,.68.11.11,0,0,1,0,.05C37.2,24.62,36.54,24.46,35.88,24.3Zm0-.06v0c.56-.31,1.14-.6,1.72-.89a1.68,1.68,0,0,1,.3.72Zm0,0,0,0c.36-.5.73-1,1.1-1.48a2.42,2.42,0,0,1,.66.61C37,23.58,36.41,23.88,35.84,24.19Zm-.06-.05h0l.42-1.75a2.53,2.53,0,0,1,.72.29C36.51,23.15,36.14,23.65,35.78,24.14Zm-.06,0h0l-.36-1.8a2.74,2.74,0,0,1,.75,0h.06Zm-.06,0,0,0c-.38-.52-.76-1-1.15-1.55a2.32,2.32,0,0,1,.83-.27Zm-.07,0,0,0c-.55-.36-1.12-.72-1.69-1.07a2,2,0,0,1,.57-.5C34.84,23.11,35.22,23.63,35.59,24.15Zm0,0s0,0,0,0c-.66-.15-1.32-.29-2-.42a1.79,1.79,0,0,1,.31-.69Zm0,.06s0,0,0,0c-.66.08-1.32.17-2,.28a1.73,1.73,0,0,1,0-.68v-.05C34.2,24,34.86,24.1,35.53,24.25Zm0,.06s0,0,0,0v0q-.84.45-1.65.93a2.25,2.25,0,0,1-.33-.7C34.21,24.49,34.87,24.39,35.53,24.31Zm-.06.11c-.4.43-.79.87-1.17,1.31a2.21,2.21,0,0,1-.4-.41C34.41,25,34.94,24.71,35.47,24.42ZM34.32,25.8l.2.13c-.16.22-.31.45-.47.68a2.48,2.48,0,0,1-.26-.19C34,26.21,34.14,26,34.32,25.8Zm.22.14a2.33,2.33,0,0,0,.69.28l-.18.79a3.46,3.46,0,0,1-1-.39Zm.72.28.05,0a2.94,2.94,0,0,0,.72,0c0,.27.09.54.13.81a3.36,3.36,0,0,1-1,0l-.08,0Zm.8.05a1.86,1.86,0,0,0,.34-.06c.09.26.17.52.26.78a3.55,3.55,0,0,1-.47.09C36.15,26.81,36.11,26.54,36.06,26.27Zm1.37.41-.07,0L36.9,26a2,2,0,0,0,.61-.48l.71.52A2.89,2.89,0,0,1,37.43,26.68Zm.81-.65-.72-.52a1.67,1.67,0,0,0,.37-.68l.88.24A2.66,2.66,0,0,1,38.24,26ZM38.79,25a.24.24,0,0,1,0,.08l-.88-.24s0,0,0,0a1.79,1.79,0,0,0,0-.69l.91-.07A2.28,2.28,0,0,1,38.79,25Zm-.38-2a2.57,2.57,0,0,1,.43,1l-.91.07a1.92,1.92,0,0,0-.31-.74Zm-.06-.1,0,.07-.8.39a2.21,2.21,0,0,0-.66-.63l.51-.66A3.4,3.4,0,0,1,38.35,22.82Zm-2-1.27a3.81,3.81,0,0,1,1.06.43l-.51.65a2.59,2.59,0,0,0-.73-.29Zm-.12,0h.09l-.18.79h-.06a2.87,2.87,0,0,0-.77,0c-.06-.27-.11-.54-.17-.8A3.36,3.36,0,0,1,36.24,21.53Zm-1.12-.05c.06.27.11.54.17.81a2.23,2.23,0,0,0-.85.27l-.53-.69A3.08,3.08,0,0,1,35.12,21.48Zm-1.31.45.07-.05.54.69a1.82,1.82,0,0,0-.59.51l-.78-.47A2.78,2.78,0,0,1,33.81,21.93Zm-.78.71.78.46a1.81,1.81,0,0,0-.31.71l-.9-.17A2.48,2.48,0,0,1,33,22.64Zm-.45,1.11s0-.05,0-.08l.9.16v.05a1.77,1.77,0,0,0,0,.69l-.88.15A2.64,2.64,0,0,1,32.58,23.75Zm.54,2a2.93,2.93,0,0,1-.48-1l.87-.15a2.16,2.16,0,0,0,.34.72C33.6,25.46,33.36,25.61,33.12,25.76Zm.07.08,0-.06.72-.44a2.38,2.38,0,0,0,.42.42l-.54.63A3.18,3.18,0,0,1,33.19,25.84Zm.54.65.28.18-.14.22-.08,0a.23.23,0,0,0-.28.18.25.25,0,0,0,.2.28.25.25,0,0,0,.29-.19.24.24,0,0,0-.11-.24l.14-.21a3.59,3.59,0,0,0,1,.39,2,2,0,0,0-.05.24.23.23,0,1,0-.09.46.23.23,0,1,0,.11-.45l.06-.24.08,0a4,4,0,0,0,1,.05,1.87,1.87,0,0,1,0,.25.23.23,0,0,0-.19.18.25.25,0,0,0,.2.28.24.24,0,0,0,.29-.18.24.24,0,0,0-.19-.28h-.08c0-.08,0-.16,0-.25a2.67,2.67,0,0,0,.48-.08c.24.74.47,1.49.68,2.24-1.69-.42-3.39-.75-5.1-1C32.74,27.69,33.23,27.09,33.73,26.49Z"/><path class="cls-1" d="M43.53,25.21a.06.06,0,0,0,0-.08s-.07,0-.08,0a.05.05,0,0,0,0,.08A.07.07,0,0,0,43.53,25.21Z"/><path class="cls-1" d="M46.61,35c.22-.74.44-1.47.64-2.21l-.67-.31.77-1.73.09,0,.07-.15-.34-.16c.1-.22.2-.44.29-.67l0,0c-.1.23-.2.45-.29.68l-.24-.11.24-.55,0,0-.24.56c-.48-.21-1-.41-1.43-.6l-.06.16.09,0c-.47,1.18-1,2.37-1.43,3.55-.51-.2-1-.4-1.53-.58l.6-1.62L42.18,31l1.39-4,.09,0a1.46,1.46,0,0,1,.07-.19l-.2-.07.09-.25-.23-.08,0-.09c0-.1.07-.19.1-.29l.09-.25-.28-.09.15-.45h-.07l-.15.44-.15,0-.17.21-.6-.19c0,.13-.08.26-.13.38l-1.57-.47-.07.25-.2-.06-.06.2.09,0-.75,2.64-1.26-.34c-.23.87-.45,1.74-.68,2.61-.39-.31-.79-.61-1.2-.91l.6-2.55.23,0c0-.06,0-.12,0-.19l-.4-.09.12-.51-1.75-.38c0,.18-.07.35-.1.52l-.57-.11c0-.17.07-.34.1-.52l-.29-.05-.1.51-.29-.05.09-.51-.32-.06-.09.51-.67-.11,0,.19.1,0c-.19,1.2-.39,2.39-.58,3.59l-.61-.1v0h-.11l.15-1,.11,0V29l-.11,0,.15-1h.11l0-.08-.12,0,.15-1,.12,0V26.8l-.12,0,.15-1h.12v-.08l-.12,0,.15-1,.13,0v-.08l-.12,0,.15-1.06.22,0v-.08h.11l0-.22c-.68-.1-1.36-.2-2-.28l0-.25h.07v-.07l-1.12-.12v.07h.07l0,.25-.51-.05a1.64,1.64,0,0,1,0,.22h.11v.09l.21,0c0,.35-.07.71-.1,1.06h-.13v.08l.13,0c0,.34-.07.68-.1,1l-.12,0v.09h.12c0,.34-.07.69-.1,1h-.12v.08h.12c0,.34-.07.69-.1,1h-.12v.08h.12c0,.35-.07.69-.1,1h-.11v.08l.11,0c0,.34-.07.68-.1,1l-.11,0v.09h.11c0,.28,0,.56-.08.84l-.61-.06c.1-1.08.19-2.17.28-3.25-.86-.08-1.73-.13-2.6-.16l-.09,2.37h-.4q.11-3.71.23-7.4h-.34v.19l-.63.12a.53.53,0,0,0,0-.13h-.34a1.34,1.34,0,0,1,0,.2l-.62.13v-.14h-.34v.21l-.62.14V22.8h-.34a1.15,1.15,0,0,0,0,.19l-.62.16v-.1h-.34c.09,2.42.19,4.84.28,7.26l-.42,0-.18-3.87c-.55,0-1.1.06-1.65.1L20.08,29l-1.61.14c-.07-.67-.15-1.35-.22-2l-.2,0c0-.22-.05-.44-.08-.66h.13v-.07l-.55.06a1.49,1.49,0,0,1,0-.21h-.06c0,.07,0,.14,0,.21l-.17,0c0-.36-.09-.71-.13-1.07h-.05c.05.36.09.72.13,1.07l-.23,0v.07l.14,0,.08.66-1.1.15c.07.51.14,1,.22,1.54l-1,.16c-.07.68-.14,1.36-.2,2l-1.05.19-1.23-6.33q-.78.15-1.56.33a1.89,1.89,0,0,0,0-.23l.09,0,0-.08-1.18.28,0,.08.1,0a1.89,1.89,0,0,0,.05.23l.09.36c.34,1.43.69,2.86,1,4.29l-.67.17-.42-1.62.25-.06c0-.05,0-.1,0-.15-.58.15-1.16.3-1.73.47-.09-.33-.18-.65-.28-1l-.33.09-.06-.2-.75.23.06.2-.6.19c.36,1.14.72,2.28,1.09,3.42-.62.2-1.24.41-1.85.63L5.2,30c-.55.19-1.09.4-1.62.61.25.65.51,1.31.77,2L3,33.15c.17.42.35.83.53,1.24l-.94.41-.69-1.54-1.27.58.63,1.31c-.37.17-.74.36-1.1.54.15.31.31.61.46.91l1.08-.53.37-.18.6-.27.24-.11.92-.4c.43-.19.86-.36,1.29-.53l.43-.17.24-.09L6.63,34c.59-.21,1.19-.42,1.79-.61L9,33.23l.68-.2.31-.09,1.19-.33.18,0,.64-.16,1.08-.25.53-.11.63-.13c.85-.17,1.69-.31,2.55-.43l.58-.08,1-.13.35,0,1.58-.15.43,0c.49,0,1-.06,1.47-.07h3.61l.4,0c.67,0,1.33.06,2,.11l.29,0h.13l.6.05,1.06.12,1,.12.45.07.7.1,1.74.31c.61.12,1.22.26,1.83.4h0l1.28.32.72.19.44.13.27.08c.72.2,1.42.43,2.13.67l.38.13.45.16.4.14,1.49.58,1.1.46.22.09.41.18c.81.36,1.62.75,2.41,1.15l.45-.86C47.62,35.48,47.12,35.24,46.61,35Z"/><path class="cls-1" d="M22.46,33.9l1.41,2.19A98.48,98.48,0,0,0,12.78,37q-2.83.39-5.67.89l-2.83.53L1.43,39a55.24,55.24,0,0,1,11-3.7A58,58,0,0,1,22.46,33.9Z"/><path class="cls-1" d="M46.76,38.69a99,99,0,0,0-11.3-2.06,82.4,82.4,0,0,0-11-.55L26,33.84a51.69,51.69,0,0,1,9.76,1,45.59,45.59,0,0,1,5.64,1.53A39.64,39.64,0,0,1,46.76,38.69Z"/><path class="cls-5" d="M21.34,30.44l.09.15Z"/><path class="cls-5" d="M21.43,30.59l.09.14Z"/><path class="cls-6" d="M35.56,11.09l0,.18-.11,1.34h0L35.4,12c-.35.83-.6,1.67-.95,2.46-.46,1.07-1,2.14-1.51,3.16a17.94,17.94,0,0,1-1.53,2.26q-1.41,1.77-2.9,3.48c-.66.76-1.4,1.45-2.09,2.18s-1.4,1.59-2.13,2.35c-.91,1-1.85,1.89-2.78,2.83h0l-.09-.14h0l-.09-.16c-.85-1.39-1.73-2.77-2.55-4.19a65.49,65.49,0,0,1-4.9-9.85,12.35,12.35,0,0,1-1-4.61A11.37,11.37,0,0,1,34.35,6.84c0,.1.09.21.14.32l.08.18h0l.08.17v0l.16.38v0l.17.45h0l.48,1.94v.1C35.48,10.64,35.52,10.87,35.56,11.09Zm-3.4-4.55,0,0,0,0,0,0Zm-7.88-.35a5.37,5.37,0,1,0,5.32,5.4A5.36,5.36,0,0,0,24.28,6.19ZM15.49,17c-1.58-5-.63-9.3,3.85-12.21s8.83-2,12.72,1.49A9.63,9.63,0,0,0,22.8,2.15,9.46,9.46,0,0,0,14.88,8,9.49,9.49,0,0,0,15.49,17Z"/><path class="cls-5" d="M21.51,30.74c.93-.94,1.87-1.87,2.78-2.83.73-.76,1.41-1.57,2.13-2.35s1.43-1.42,2.09-2.18q1.48-1.71,2.9-3.48a17.94,17.94,0,0,0,1.53-2.26c.56-1,1.05-2.09,1.51-3.16.35-.79.6-1.63.95-2.46l.05.59h0l.11-1.34a9.84,9.84,0,0,1-.67,4.26,53,53,0,0,1-4.1,8.73c-2,3.56-4.14,7-6.42,10.39l-.21.3Z"/><path class="cls-2" d="M15.49,17a9.49,9.49,0,0,1-.61-9A9.46,9.46,0,0,1,22.8,2.15,9.63,9.63,0,0,1,32.06,6.3c-3.89-3.51-8.23-4.4-12.72-1.49S13.91,12,15.49,17Z"/><path class="cls-7" d="M24.27,6.12A6.21,6.21,0,1,1,18,12.34,6.19,6.19,0,0,1,24.27,6.12Z"/><path class="cls-1" d="M20.2,12.38c0-.1,0-.2,0-.3a.94.94,0,0,1,1.2-.87,1.28,1.28,0,0,1,.92,1.43.94.94,0,0,1-1.16.73,1.26,1.26,0,0,1-.85-.71l0,0Z"/><path class="cls-1" d="M22.14,15.27a1.19,1.19,0,0,1,0-.7c.15-.51.29-1,.44-1.55A1.93,1.93,0,0,1,24,11.64a1.86,1.86,0,0,1,1.67.36c.46.36.9.75,1.34,1.14a1.25,1.25,0,0,1-.33,2.06,1.15,1.15,0,0,1-.58.1,2.64,2.64,0,0,0-1.18.12,2.59,2.59,0,0,0-.8.47,1.25,1.25,0,0,1-1.75-.17A1.22,1.22,0,0,1,22.14,15.27Z"/><path class="cls-1" d="M21.76,10.74a1.44,1.44,0,0,1,.11-1.15,1.08,1.08,0,0,1,1.54-.37A1.49,1.49,0,0,1,24,11.08a1.09,1.09,0,0,1-1.72.37A1.43,1.43,0,0,1,21.76,10.74Z"/><path class="cls-1" d="M26.4,9.69A1.41,1.41,0,0,1,26.17,11a1,1,0,0,1-1.63,0A1.35,1.35,0,0,1,24.7,9.2a1,1,0,0,1,1.5.14A3.6,3.6,0,0,1,26.4,9.69Z"/><path class="cls-1" d="M27.51,12.72a1,1,0,0,1-1.17-.61,1.28,1.28,0,0,1,.51-1.47,1,1,0,0,1,1.47.64,1.25,1.25,0,0,1-.54,1.3A1.74,1.74,0,0,1,27.51,12.72Z"/></svg>