<svg width="237" height="239" viewBox="0 0 237 239" fill="none" xmlns="http://www.w3.org/2000/svg">
<rect width="236.482" height="238.575" rx="10" fill="#FFD8CE" fill-opacity="0.5"/>
<path d="M117.5 55.5127L72.2883 71.6354L79.1842 131.416L117.5 152.638L155.816 131.416L162.712 71.6354L117.5 55.5127Z" fill="#DD0031"/>
<path d="M117.5 55.5127V66.2936V66.245V115.439V152.638L155.816 131.416L162.712 71.6354L117.5 55.5127Z" fill="#C3002F"/>
<path d="M117.5 66.2451L89.2366 129.619H99.7746L105.456 115.439H129.446L135.128 129.619H145.666L117.5 66.2451ZM125.756 106.698H109.244L117.5 86.8356L125.756 106.698Z" fill="white"/>
<path d="M70.46 199.575L75.58 185.575H78.46L83.58 199.575H80.86L79.74 196.335H74.28L73.14 199.575H70.46ZM74.98 194.335H79.04L77 188.515L74.98 194.335ZM85.3234 199.575V189.655H87.5834L87.7834 191.335C88.0901 190.749 88.5301 190.282 89.1034 189.935C89.6901 189.589 90.3768 189.415 91.1634 189.415C92.3901 189.415 93.3434 189.802 94.0234 190.575C94.7034 191.349 95.0434 192.482 95.0434 193.975V199.575H92.4834V194.215C92.4834 193.362 92.3101 192.709 91.9634 192.255C91.6168 191.802 91.0768 191.575 90.3434 191.575C89.6234 191.575 89.0301 191.829 88.5634 192.335C88.1101 192.842 87.8834 193.549 87.8834 194.455V199.575H85.3234ZM101.691 196.615C101.211 196.615 100.765 196.562 100.351 196.455L99.6114 197.195C99.8381 197.315 100.145 197.415 100.531 197.495C100.918 197.575 101.545 197.655 102.411 197.735C103.731 197.855 104.691 198.169 105.291 198.675C105.891 199.182 106.191 199.882 106.191 200.775C106.191 201.362 106.031 201.915 105.711 202.435C105.391 202.969 104.898 203.395 104.231 203.715C103.565 204.049 102.711 204.215 101.671 204.215C100.258 204.215 99.1181 203.949 98.2514 203.415C97.3847 202.895 96.9514 202.109 96.9514 201.055C96.9514 200.162 97.3847 199.389 98.2514 198.735C97.9847 198.615 97.7514 198.489 97.5514 198.355C97.3647 198.222 97.1981 198.082 97.0514 197.935V197.475L98.7914 195.635C98.0181 194.955 97.6314 194.082 97.6314 193.015C97.6314 192.349 97.7914 191.742 98.1114 191.195C98.4447 190.649 98.9114 190.215 99.5114 189.895C100.111 189.575 100.838 189.415 101.691 189.415C102.251 189.415 102.771 189.495 103.251 189.655H107.011V191.215L105.311 191.335C105.578 191.842 105.711 192.402 105.711 193.015C105.711 193.682 105.551 194.289 105.231 194.835C104.911 195.382 104.445 195.815 103.831 196.135C103.231 196.455 102.518 196.615 101.691 196.615ZM101.691 194.655C102.211 194.655 102.638 194.515 102.971 194.235C103.318 193.955 103.491 193.555 103.491 193.035C103.491 192.515 103.318 192.115 102.971 191.835C102.638 191.555 102.211 191.415 101.691 191.415C101.145 191.415 100.705 191.555 100.371 191.835C100.038 192.115 99.8714 192.515 99.8714 193.035C99.8714 193.555 100.038 193.955 100.371 194.235C100.705 194.515 101.145 194.655 101.691 194.655ZM99.2914 200.795C99.2914 201.289 99.5181 201.655 99.9714 201.895C100.438 202.149 101.005 202.275 101.671 202.275C102.311 202.275 102.831 202.142 103.231 201.875C103.631 201.622 103.831 201.275 103.831 200.835C103.831 200.475 103.698 200.175 103.431 199.935C103.178 199.695 102.665 199.549 101.891 199.495C101.345 199.455 100.838 199.395 100.371 199.315C99.9847 199.529 99.7047 199.762 99.5314 200.015C99.3714 200.269 99.2914 200.529 99.2914 200.795ZM112.598 199.815C111.358 199.815 110.398 199.429 109.718 198.655C109.051 197.882 108.718 196.749 108.718 195.255V189.655H111.258V195.015C111.258 195.869 111.431 196.522 111.778 196.975C112.125 197.429 112.671 197.655 113.418 197.655C114.125 197.655 114.705 197.402 115.158 196.895C115.625 196.389 115.858 195.682 115.858 194.775V189.655H118.418V199.575H116.158L115.958 197.895C115.651 198.482 115.205 198.949 114.618 199.295C114.045 199.642 113.371 199.815 112.598 199.815ZM121.046 199.575V185.175H123.606V199.575H121.046ZM129.642 199.815C128.789 199.815 128.089 199.682 127.542 199.415C126.995 199.135 126.589 198.769 126.322 198.315C126.055 197.862 125.922 197.362 125.922 196.815C125.922 195.895 126.282 195.149 127.002 194.575C127.722 194.002 128.802 193.715 130.242 193.715H132.762V193.475C132.762 192.795 132.569 192.295 132.182 191.975C131.795 191.655 131.315 191.495 130.742 191.495C130.222 191.495 129.769 191.622 129.382 191.875C128.995 192.115 128.755 192.475 128.662 192.955H126.162C126.229 192.235 126.469 191.609 126.882 191.075C127.309 190.542 127.855 190.135 128.522 189.855C129.189 189.562 129.935 189.415 130.762 189.415C132.175 189.415 133.289 189.769 134.102 190.475C134.915 191.182 135.322 192.182 135.322 193.475V199.575H133.142L132.902 197.975C132.609 198.509 132.195 198.949 131.662 199.295C131.142 199.642 130.469 199.815 129.642 199.815ZM130.222 197.815C130.955 197.815 131.522 197.575 131.922 197.095C132.335 196.615 132.595 196.022 132.702 195.315H130.522C129.842 195.315 129.355 195.442 129.062 195.695C128.769 195.935 128.622 196.235 128.622 196.595C128.622 196.982 128.769 197.282 129.062 197.495C129.355 197.709 129.742 197.815 130.222 197.815ZM137.765 199.575V189.655H140.045L140.285 191.515C140.645 190.875 141.132 190.369 141.745 189.995C142.372 189.609 143.105 189.415 143.945 189.415V192.115H143.225C142.665 192.115 142.165 192.202 141.725 192.375C141.285 192.549 140.938 192.849 140.685 193.275C140.445 193.702 140.325 194.295 140.325 195.055V199.575H137.765ZM149.415 199.815C148.055 199.815 146.961 199.435 146.135 198.675C145.321 197.902 144.915 196.809 144.915 195.395H147.475C147.488 196.049 147.641 196.569 147.935 196.955C148.228 197.342 148.701 197.535 149.355 197.535C149.968 197.535 150.415 197.355 150.695 196.995C150.975 196.622 151.115 196.135 151.115 195.535V185.575H153.675V195.535C153.675 196.909 153.288 197.969 152.515 198.715C151.755 199.449 150.721 199.815 149.415 199.815ZM160.439 199.815C159.559 199.815 158.786 199.675 158.119 199.395C157.452 199.102 156.919 198.702 156.519 198.195C156.119 197.689 155.879 197.102 155.799 196.435H158.379C158.459 196.822 158.672 197.155 159.019 197.435C159.379 197.702 159.839 197.835 160.399 197.835C160.959 197.835 161.366 197.722 161.619 197.495C161.886 197.269 162.019 197.009 162.019 196.715C162.019 196.289 161.832 196.002 161.459 195.855C161.086 195.695 160.566 195.542 159.899 195.395C159.472 195.302 159.039 195.189 158.599 195.055C158.159 194.922 157.752 194.755 157.379 194.555C157.019 194.342 156.726 194.075 156.499 193.755C156.272 193.422 156.159 193.015 156.159 192.535C156.159 191.655 156.506 190.915 157.199 190.315C157.906 189.715 158.892 189.415 160.159 189.415C161.332 189.415 162.266 189.689 162.959 190.235C163.666 190.782 164.086 191.535 164.219 192.495H161.799C161.652 191.762 161.099 191.395 160.139 191.395C159.659 191.395 159.286 191.489 159.019 191.675C158.766 191.862 158.639 192.095 158.639 192.375C158.639 192.669 158.832 192.902 159.219 193.075C159.606 193.249 160.119 193.409 160.759 193.555C161.452 193.715 162.086 193.895 162.659 194.095C163.246 194.282 163.712 194.569 164.059 194.955C164.406 195.329 164.579 195.869 164.579 196.575C164.592 197.189 164.432 197.742 164.099 198.235C163.766 198.729 163.286 199.115 162.659 199.395C162.032 199.675 161.292 199.815 160.439 199.815Z" fill="black"/>
</svg>
