<svg width="636" height="782" viewBox="0 0 636 782" fill="none" xmlns="http://www.w3.org/2000/svg">
<path d="M16 91H437" stroke="black" stroke-dasharray="8 8"/>
<path d="M514.5 91H635V299H401" stroke="black" stroke-dasharray="8 8"/>
<path d="M229.348 299L16.0004 299V507H225.5" stroke="black" stroke-dasharray="8 8"/>
<path d="M342.5 715H566.347V507H221.5" stroke="black" stroke-dasharray="8 8"/>
<rect x="425" y="44" width="93" height="93" rx="10" fill="#13196B"/>
<path d="M493.991 79.2061C493.991 78.4798 493.928 77.7284 493.778 77.0146C492.777 72.2309 488.749 69 483.796 69C475.94 69 468.084 69 460.241 69C459.715 69 459.177 69.025 458.652 69.1002C453.673 69.8516 450.083 73.9089 450.033 78.9556C449.983 84.3279 449.995 89.7002 450.033 95.0725C450.058 98.2032 451.334 100.783 453.748 102.787C454.987 103.813 456.413 104.452 458.026 104.815V105.366C458.026 107.245 458.014 109.111 458.026 110.989C458.039 112.091 458.79 112.893 459.853 112.993C460.416 113.043 460.879 112.83 461.341 112.517C464.969 110.087 468.597 107.658 472.249 105.254C472.475 105.103 472.787 105.003 473.063 105.003C476.603 104.991 480.155 105.003 483.695 104.991C484.396 104.991 485.109 104.966 485.785 104.828C490.676 103.889 493.978 99.8437 493.991 94.8096C494.003 89.6126 494.003 84.4156 493.991 79.2061ZM480.105 92.9937C478.967 93.0313 477.829 93.0063 476.69 93.0063C475.114 93.0063 473.538 93.0063 471.962 93.0063C469.335 93.0063 466.72 93.0188 464.093 93.0063C462.692 92.9937 461.779 91.8542 462.079 90.5393C462.267 89.7128 462.993 89.0991 463.843 89.0365C463.968 89.024 464.093 89.024 464.219 89.024C469.41 89.024 474.614 89.024 479.805 89.024C480.968 89.024 481.757 89.6251 481.957 90.6394C482.182 91.8291 481.331 92.9562 480.105 92.9937ZM485.96 83.3386C485.835 84.2528 485.009 84.9917 484.033 85.0042C482.92 85.0167 481.819 85.0042 480.706 85.0042H472.012C468.046 85.0042 464.081 85.0042 460.115 85.0042C458.627 85.0042 457.651 83.6517 458.152 82.3118C458.452 81.4978 459.077 81.0845 459.928 80.9969C460.078 80.9843 460.241 80.9843 460.391 80.9843C468.134 80.9843 475.877 80.9843 483.62 80.9843C483.958 80.9843 484.308 81.0094 484.634 81.1096C485.572 81.4101 486.11 82.3368 485.96 83.3386Z" fill="white"/>
<rect x="230" y="214" width="221" height="169" rx="10" fill="#FCCF04"/>
<rect x="87" y="451" width="145" height="111" rx="10" fill="#F58E14"/>
<rect x="490" y="451" width="145" height="111" rx="10" fill="#00AEEB"/>
<rect x="286" y="664" width="111" height="101.826" rx="10" fill="#D1DC07"/>
<path d="M347.888 20.24C346.568 20.24 345.415 19.94 344.428 19.34C343.442 18.74 342.675 17.9067 342.128 16.84C341.582 15.76 341.308 14.5067 341.308 13.08C341.308 11.64 341.588 10.3733 342.148 9.28C342.722 8.17333 343.528 7.31333 344.568 6.7C345.622 6.07333 346.868 5.76 348.308 5.76C349.948 5.76 351.308 6.15333 352.388 6.94C353.468 7.72667 354.168 8.81333 354.488 10.2H351.628C351.415 9.54667 351.028 9.04 350.468 8.68C349.908 8.30667 349.188 8.12 348.308 8.12C346.908 8.12 345.828 8.56667 345.068 9.46C344.308 10.34 343.928 11.5533 343.928 13.1C343.928 14.6467 344.302 15.8467 345.048 16.7C345.808 17.54 346.835 17.96 348.128 17.96C349.395 17.96 350.348 17.62 350.988 16.94C351.642 16.2467 352.035 15.34 352.168 14.22H348.628V12.3H354.748V20H352.388L352.188 18.16C351.735 18.8267 351.168 19.34 350.488 19.7C349.808 20.06 348.942 20.24 347.888 20.24ZM357.237 20V6H366.377V8.06H359.797V11.9H365.777V13.9H359.797V17.94H366.377V20H357.237ZM372.059 20V8.06H367.979V6H378.719V8.06H374.619V20H372.059ZM384.481 20L389.601 6H392.481L397.601 20H394.881L393.761 16.76H388.301L387.161 20H384.481ZM389.001 14.76H393.061L391.021 8.94L389.001 14.76ZM404.171 20V6H413.211V8.06H406.731V11.98H411.971V14H406.731V20H404.171ZM415.186 20V6H420.326C421.446 6 422.366 6.19333 423.086 6.58C423.82 6.95333 424.366 7.46667 424.726 8.12C425.086 8.76 425.266 9.47333 425.266 10.26C425.266 11.1133 425.04 11.8933 424.586 12.6C424.146 13.3067 423.453 13.82 422.506 14.14L425.406 20H422.466L419.866 14.48H417.746V20H415.186ZM417.746 12.6H420.166C421.02 12.6 421.646 12.3933 422.046 11.98C422.446 11.5667 422.646 11.02 422.646 10.34C422.646 9.67333 422.446 9.14 422.046 8.74C421.66 8.34 421.026 8.14 420.146 8.14H417.746V12.6ZM427.647 20V6H436.787V8.06H430.207V11.9H436.187V13.9H430.207V17.94H436.787V20H427.647ZM439.21 20V6H448.35V8.06H441.77V11.9H447.75V13.9H441.77V17.94H448.35V20H439.21ZM461.878 20.24C460.464 20.24 459.251 19.94 458.238 19.34C457.224 18.7267 456.444 17.88 455.898 16.8C455.351 15.7067 455.078 14.4467 455.078 13.02C455.078 11.5933 455.351 10.3333 455.898 9.24C456.444 8.14667 457.224 7.29333 458.238 6.68C459.251 6.06667 460.464 5.76 461.878 5.76C463.558 5.76 464.931 6.18 465.998 7.02C467.078 7.84667 467.751 9.01333 468.018 10.52H465.198C465.024 9.76 464.651 9.16667 464.078 8.74C463.518 8.3 462.771 8.08 461.838 8.08C460.544 8.08 459.531 8.52 458.798 9.4C458.064 10.28 457.698 11.4867 457.698 13.02C457.698 14.5533 458.064 15.76 458.798 16.64C459.531 17.5067 460.544 17.94 461.838 17.94C462.771 17.94 463.518 17.74 464.078 17.34C464.651 16.9267 465.024 16.36 465.198 15.64H468.018C467.751 17.08 467.078 18.2067 465.998 19.02C464.931 19.8333 463.558 20.24 461.878 20.24ZM476.844 20.24C475.444 20.24 474.217 19.9333 473.164 19.32C472.124 18.7067 471.304 17.86 470.704 16.78C470.117 15.6867 469.824 14.4267 469.824 13C469.824 11.5733 470.117 10.32 470.704 9.24C471.304 8.14667 472.124 7.29333 473.164 6.68C474.217 6.06667 475.444 5.76 476.844 5.76C478.23 5.76 479.45 6.06667 480.504 6.68C481.557 7.29333 482.377 8.14667 482.964 9.24C483.55 10.32 483.844 11.5733 483.844 13C483.844 14.4267 483.55 15.6867 482.964 16.78C482.377 17.86 481.557 18.7067 480.504 19.32C479.45 19.9333 478.23 20.24 476.844 20.24ZM476.844 17.94C478.177 17.94 479.237 17.5 480.024 16.62C480.824 15.74 481.224 14.5333 481.224 13C481.224 11.4667 480.824 10.26 480.024 9.38C479.237 8.5 478.177 8.06 476.844 8.06C475.51 8.06 474.444 8.5 473.644 9.38C472.844 10.26 472.444 11.4667 472.444 13C472.444 14.5333 472.844 15.74 473.644 16.62C474.444 17.5 475.51 17.94 476.844 17.94ZM486.104 20V6H488.664L495.244 15.86V6H497.804V20H495.244L488.664 10.16V20H486.104ZM505.298 20.24C504.272 20.24 503.365 20.0667 502.578 19.72C501.792 19.36 501.172 18.8533 500.718 18.2C500.265 17.5333 500.032 16.7267 500.018 15.78H502.718C502.745 16.4333 502.978 16.9867 503.418 17.44C503.872 17.88 504.492 18.1 505.278 18.1C505.958 18.1 506.498 17.94 506.898 17.62C507.298 17.2867 507.498 16.8467 507.498 16.3C507.498 15.7267 507.318 15.28 506.958 14.96C506.612 14.64 506.145 14.38 505.558 14.18C504.972 13.98 504.345 13.7667 503.678 13.54C502.598 13.1667 501.772 12.6867 501.198 12.1C500.638 11.5133 500.358 10.7333 500.358 9.76C500.345 8.93333 500.538 8.22667 500.938 7.64C501.352 7.04 501.912 6.58 502.618 6.26C503.325 5.92667 504.138 5.76 505.058 5.76C505.992 5.76 506.812 5.92667 507.518 6.26C508.238 6.59333 508.798 7.06 509.198 7.66C509.612 8.26 509.832 8.97333 509.858 9.8H507.118C507.105 9.30667 506.912 8.87333 506.538 8.5C506.178 8.11333 505.672 7.92 505.018 7.92C504.458 7.90667 503.985 8.04667 503.598 8.34C503.225 8.62 503.038 9.03333 503.038 9.58C503.038 10.0467 503.185 10.42 503.478 10.7C503.772 10.9667 504.172 11.1933 504.678 11.38C505.185 11.5667 505.765 11.7667 506.418 11.98C507.112 12.22 507.745 12.5 508.318 12.82C508.892 13.14 509.352 13.5667 509.698 14.1C510.045 14.62 510.218 15.2933 510.218 16.12C510.218 16.8533 510.032 17.5333 509.658 18.16C509.285 18.7867 508.732 19.2933 507.998 19.68C507.265 20.0533 506.365 20.24 505.298 20.24ZM517.852 20.24C516.825 20.24 515.898 20.04 515.072 19.64C514.245 19.2267 513.585 18.6067 513.092 17.78C512.612 16.9533 512.372 15.9067 512.372 14.64V6H514.932V14.66C514.932 15.7533 515.192 16.5667 515.712 17.1C516.245 17.6333 516.978 17.9 517.912 17.9C518.832 17.9 519.558 17.6333 520.092 17.1C520.625 16.5667 520.892 15.7533 520.892 14.66V6H523.452V14.64C523.452 15.9067 523.198 16.9533 522.692 17.78C522.185 18.6067 521.505 19.2267 520.652 19.64C519.812 20.04 518.878 20.24 517.852 20.24ZM526.065 20V6H528.625V18H534.825V20H526.065ZM538.016 20V8.06H533.936V6H544.676V8.06H540.576V20H538.016ZM544.189 20L549.309 6H552.189L557.309 20H554.589L553.469 16.76H548.009L546.869 20H544.189ZM548.709 14.76H552.769L550.729 8.94L548.709 14.76ZM560.888 20V8.06H556.808V6H567.548V8.06H563.448V20H560.888ZM569.444 20V6H572.004V20H569.444ZM581.277 20.24C579.877 20.24 578.651 19.9333 577.597 19.32C576.557 18.7067 575.737 17.86 575.137 16.78C574.551 15.6867 574.257 14.4267 574.257 13C574.257 11.5733 574.551 10.32 575.137 9.24C575.737 8.14667 576.557 7.29333 577.597 6.68C578.651 6.06667 579.877 5.76 581.277 5.76C582.664 5.76 583.884 6.06667 584.937 6.68C585.991 7.29333 586.811 8.14667 587.397 9.24C587.984 10.32 588.277 11.5733 588.277 13C588.277 14.4267 587.984 15.6867 587.397 16.78C586.811 17.86 585.991 18.7067 584.937 19.32C583.884 19.9333 582.664 20.24 581.277 20.24ZM581.277 17.94C582.611 17.94 583.671 17.5 584.457 16.62C585.257 15.74 585.657 14.5333 585.657 13C585.657 11.4667 585.257 10.26 584.457 9.38C583.671 8.5 582.611 8.06 581.277 8.06C579.944 8.06 578.877 8.5 578.077 9.38C577.277 10.26 576.877 11.4667 576.877 13C576.877 14.5333 577.277 15.74 578.077 16.62C578.877 17.5 579.944 17.94 581.277 17.94ZM590.538 20V6H593.098L599.678 15.86V6H602.238V20H599.678L593.098 10.16V20H590.538Z" fill="black"/>
<path d="M266.63 190V176H269.67L274.13 184.88L278.53 176H281.57V190H279.01V180.34L275.11 188H273.09L269.19 180.34V190H266.63ZM283.386 190L288.506 176H291.386L296.506 190H293.786L292.666 186.76H287.206L286.066 190H283.386ZM287.906 184.76H291.966L289.926 178.94L287.906 184.76ZM298.309 190V176H300.869V181.66L306.049 176H309.209L304.049 181.56L309.349 190H306.209L302.209 183.52L300.869 184.98V190H298.309ZM311.102 190V176H320.242V178.06H313.662V181.9H319.642V183.9H313.662V187.94H320.242V190H311.102ZM326.53 190L331.65 176H334.53L339.65 190H336.93L335.81 186.76H330.35L329.21 190H326.53ZM331.05 184.76H335.11L333.07 178.94L331.05 184.76ZM346.219 190V176H350.999C352.639 176 353.986 176.293 355.039 176.88C356.106 177.453 356.893 178.267 357.399 179.32C357.919 180.36 358.179 181.587 358.179 183C358.179 184.413 357.919 185.647 357.399 186.7C356.893 187.74 356.106 188.553 355.039 189.14C353.986 189.713 352.639 190 350.999 190H346.219ZM348.779 187.8H350.879C352.053 187.8 352.979 187.613 353.659 187.24C354.339 186.853 354.826 186.307 355.119 185.6C355.413 184.88 355.559 184.013 355.559 183C355.559 182 355.413 181.14 355.119 180.42C354.826 179.7 354.339 179.147 353.659 178.76C352.979 178.373 352.053 178.18 350.879 178.18H348.779V187.8ZM360.438 190V176H369.578V178.06H362.998V181.9H368.978V183.9H362.998V187.94H369.578V190H360.438ZM376.781 190.24C375.754 190.24 374.847 190.067 374.061 189.72C373.274 189.36 372.654 188.853 372.201 188.2C371.747 187.533 371.514 186.727 371.501 185.78H374.201C374.227 186.433 374.461 186.987 374.901 187.44C375.354 187.88 375.974 188.1 376.761 188.1C377.441 188.1 377.981 187.94 378.381 187.62C378.781 187.287 378.981 186.847 378.981 186.3C378.981 185.727 378.801 185.28 378.441 184.96C378.094 184.64 377.627 184.38 377.041 184.18C376.454 183.98 375.827 183.767 375.161 183.54C374.081 183.167 373.254 182.687 372.681 182.1C372.121 181.513 371.841 180.733 371.841 179.76C371.827 178.933 372.021 178.227 372.421 177.64C372.834 177.04 373.394 176.58 374.101 176.26C374.807 175.927 375.621 175.76 376.541 175.76C377.474 175.76 378.294 175.927 379.001 176.26C379.721 176.593 380.281 177.06 380.681 177.66C381.094 178.26 381.314 178.973 381.341 179.8H378.601C378.587 179.307 378.394 178.873 378.021 178.5C377.661 178.113 377.154 177.92 376.501 177.92C375.941 177.907 375.467 178.047 375.081 178.34C374.707 178.62 374.521 179.033 374.521 179.58C374.521 180.047 374.667 180.42 374.961 180.7C375.254 180.967 375.654 181.193 376.161 181.38C376.667 181.567 377.247 181.767 377.901 181.98C378.594 182.22 379.227 182.5 379.801 182.82C380.374 183.14 380.834 183.567 381.181 184.1C381.527 184.62 381.701 185.293 381.701 186.12C381.701 186.853 381.514 187.533 381.141 188.16C380.767 188.787 380.214 189.293 379.481 189.68C378.747 190.053 377.847 190.24 376.781 190.24ZM383.934 190V176H386.494V190H383.934ZM395.328 190.24C394.008 190.24 392.854 189.94 391.868 189.34C390.881 188.74 390.114 187.907 389.568 186.84C389.021 185.76 388.748 184.507 388.748 183.08C388.748 181.64 389.028 180.373 389.588 179.28C390.161 178.173 390.968 177.313 392.008 176.7C393.061 176.073 394.308 175.76 395.748 175.76C397.388 175.76 398.748 176.153 399.828 176.94C400.908 177.727 401.608 178.813 401.928 180.2H399.068C398.854 179.547 398.468 179.04 397.908 178.68C397.348 178.307 396.628 178.12 395.748 178.12C394.348 178.12 393.268 178.567 392.508 179.46C391.748 180.34 391.368 181.553 391.368 183.1C391.368 184.647 391.741 185.847 392.488 186.7C393.248 187.54 394.274 187.96 395.568 187.96C396.834 187.96 397.788 187.62 398.428 186.94C399.081 186.247 399.474 185.34 399.608 184.22H396.068V182.3H402.188V190H399.828L399.628 188.16C399.174 188.827 398.608 189.34 397.928 189.7C397.248 190.06 396.381 190.24 395.328 190.24ZM404.676 190V176H407.236L413.816 185.86V176H416.376V190H413.816L407.236 180.16V190H404.676Z" fill="black"/>
<path d="M52.6178 427V413H55.1778V427H52.6178ZM57.8913 427V413H60.9313L65.3913 421.88L69.7913 413H72.8313V427H70.2713V417.34L66.3713 425H64.3513L60.4513 417.34V427H57.8913ZM75.5475 427V413H80.7275C81.8475 413 82.7742 413.187 83.5075 413.56C84.2408 413.933 84.7875 414.447 85.1475 415.1C85.5075 415.753 85.6875 416.487 85.6875 417.3C85.6875 418.073 85.5142 418.787 85.1675 419.44C84.8208 420.08 84.2808 420.6 83.5475 421C82.8142 421.387 81.8742 421.58 80.7275 421.58H78.1075V427H75.5475ZM78.1075 419.5H80.5675C81.4608 419.5 82.1008 419.307 82.4875 418.92C82.8875 418.52 83.0875 417.98 83.0875 417.3C83.0875 416.607 82.8875 416.067 82.4875 415.68C82.1008 415.28 81.4608 415.08 80.5675 415.08H78.1075V419.5ZM87.6959 427V413H90.2559V425H96.4559V427H87.6959ZM98.7116 427V413H107.852V415.06H101.272V418.9H107.252V420.9H101.272V424.94H107.852V427H98.7116ZM110.274 427V413H113.314L117.774 421.88L122.174 413H125.214V427H122.654V417.34L118.754 425H116.734L112.834 417.34V427H110.274ZM127.93 427V413H137.07V415.06H130.49V418.9H136.47V420.9H130.49V424.94H137.07V427H127.93ZM139.493 427V413H142.053L148.633 422.86V413H151.193V427H148.633L142.053 417.16V427H139.493ZM157.167 427V415.06H153.087V413H163.827V415.06H159.727V427H157.167ZM173.749 427V415.06H169.669V413H180.409V415.06H176.309V427H173.749ZM182.305 427V413H184.865V418.82H191.145V413H193.705V427H191.145V420.9H184.865V427H182.305ZM196.426 427V413H205.566V415.06H198.986V418.9H204.966V420.9H198.986V424.94H205.566V427H196.426ZM219.095 427.24C217.681 427.24 216.468 426.94 215.455 426.34C214.441 425.727 213.661 424.88 213.115 423.8C212.568 422.707 212.295 421.447 212.295 420.02C212.295 418.593 212.568 417.333 213.115 416.24C213.661 415.147 214.441 414.293 215.455 413.68C216.468 413.067 217.681 412.76 219.095 412.76C220.775 412.76 222.148 413.18 223.215 414.02C224.295 414.847 224.968 416.013 225.235 417.52H222.415C222.241 416.76 221.868 416.167 221.295 415.74C220.735 415.3 219.988 415.08 219.055 415.08C217.761 415.08 216.748 415.52 216.015 416.4C215.281 417.28 214.915 418.487 214.915 420.02C214.915 421.553 215.281 422.76 216.015 423.64C216.748 424.507 217.761 424.94 219.055 424.94C219.988 424.94 220.735 424.74 221.295 424.34C221.868 423.927 222.241 423.36 222.415 422.64H225.235C224.968 424.08 224.295 425.207 223.215 426.02C222.148 426.833 220.775 427.24 219.095 427.24ZM234.061 427.24C232.661 427.24 231.434 426.933 230.381 426.32C229.341 425.707 228.521 424.86 227.921 423.78C227.334 422.687 227.041 421.427 227.041 420C227.041 418.573 227.334 417.32 227.921 416.24C228.521 415.147 229.341 414.293 230.381 413.68C231.434 413.067 232.661 412.76 234.061 412.76C235.447 412.76 236.667 413.067 237.721 413.68C238.774 414.293 239.594 415.147 240.181 416.24C240.767 417.32 241.061 418.573 241.061 420C241.061 421.427 240.767 422.687 240.181 423.78C239.594 424.86 238.774 425.707 237.721 426.32C236.667 426.933 235.447 427.24 234.061 427.24ZM234.061 424.94C235.394 424.94 236.454 424.5 237.241 423.62C238.041 422.74 238.441 421.533 238.441 420C238.441 418.467 238.041 417.26 237.241 416.38C236.454 415.5 235.394 415.06 234.061 415.06C232.727 415.06 231.661 415.5 230.861 416.38C230.061 417.26 229.661 418.467 229.661 420C229.661 421.533 230.061 422.74 230.861 423.62C231.661 424.5 232.727 424.94 234.061 424.94ZM243.321 427V413H248.101C249.741 413 251.088 413.293 252.141 413.88C253.208 414.453 253.994 415.267 254.501 416.32C255.021 417.36 255.281 418.587 255.281 420C255.281 421.413 255.021 422.647 254.501 423.7C253.994 424.74 253.208 425.553 252.141 426.14C251.088 426.713 249.741 427 248.101 427H243.321ZM245.881 424.8H247.981C249.154 424.8 250.081 424.613 250.761 424.24C251.441 423.853 251.928 423.307 252.221 422.6C252.514 421.88 252.661 421.013 252.661 420C252.661 419 252.514 418.14 252.221 417.42C251.928 416.7 251.441 416.147 250.761 415.76C250.081 415.373 249.154 415.18 247.981 415.18H245.881V424.8ZM257.54 427V413H266.68V415.06H260.1V418.9H266.08V420.9H260.1V424.94H266.68V427H257.54Z" fill="black"/>
<path d="M504.41 427.24C503.383 427.24 502.476 427.067 501.69 426.72C500.903 426.36 500.283 425.853 499.83 425.2C499.376 424.533 499.143 423.727 499.13 422.78H501.83C501.856 423.433 502.09 423.987 502.53 424.44C502.983 424.88 503.603 425.1 504.39 425.1C505.07 425.1 505.61 424.94 506.01 424.62C506.41 424.287 506.61 423.847 506.61 423.3C506.61 422.727 506.43 422.28 506.07 421.96C505.723 421.64 505.256 421.38 504.67 421.18C504.083 420.98 503.456 420.767 502.79 420.54C501.71 420.167 500.883 419.687 500.31 419.1C499.75 418.513 499.47 417.733 499.47 416.76C499.456 415.933 499.65 415.227 500.05 414.64C500.463 414.04 501.023 413.58 501.73 413.26C502.436 412.927 503.25 412.76 504.17 412.76C505.103 412.76 505.923 412.927 506.63 413.26C507.35 413.593 507.91 414.06 508.31 414.66C508.723 415.26 508.943 415.973 508.97 416.8H506.23C506.216 416.307 506.023 415.873 505.65 415.5C505.29 415.113 504.783 414.92 504.13 414.92C503.57 414.907 503.096 415.047 502.71 415.34C502.336 415.62 502.15 416.033 502.15 416.58C502.15 417.047 502.296 417.42 502.59 417.7C502.883 417.967 503.283 418.193 503.79 418.38C504.296 418.567 504.876 418.767 505.53 418.98C506.223 419.22 506.856 419.5 507.43 419.82C508.003 420.14 508.463 420.567 508.81 421.1C509.156 421.62 509.33 422.293 509.33 423.12C509.33 423.853 509.143 424.533 508.77 425.16C508.396 425.787 507.843 426.293 507.11 426.68C506.376 427.053 505.476 427.24 504.41 427.24ZM511.563 427V413H514.123V427H511.563ZM520.097 427V415.06H516.017V413H526.757V415.06H522.657V427H520.097ZM528.653 427V413H537.793V415.06H531.213V418.9H537.193V420.9H531.213V424.94H537.793V427H528.653ZM548.241 427V415.06H544.161V413H554.901V415.06H550.801V427H548.241ZM556.798 427V413H565.938V415.06H559.358V418.9H565.338V420.9H559.358V424.94H565.938V427H556.798ZM573.14 427.24C572.113 427.24 571.207 427.067 570.42 426.72C569.633 426.36 569.013 425.853 568.56 425.2C568.107 424.533 567.873 423.727 567.86 422.78H570.56C570.587 423.433 570.82 423.987 571.26 424.44C571.713 424.88 572.333 425.1 573.12 425.1C573.8 425.1 574.34 424.94 574.74 424.62C575.14 424.287 575.34 423.847 575.34 423.3C575.34 422.727 575.16 422.28 574.8 421.96C574.453 421.64 573.987 421.38 573.4 421.18C572.813 420.98 572.187 420.767 571.52 420.54C570.44 420.167 569.613 419.687 569.04 419.1C568.48 418.513 568.2 417.733 568.2 416.76C568.187 415.933 568.38 415.227 568.78 414.64C569.193 414.04 569.753 413.58 570.46 413.26C571.167 412.927 571.98 412.76 572.9 412.76C573.833 412.76 574.653 412.927 575.36 413.26C576.08 413.593 576.64 414.06 577.04 414.66C577.453 415.26 577.673 415.973 577.7 416.8H574.96C574.947 416.307 574.753 415.873 574.38 415.5C574.02 415.113 573.513 414.92 572.86 414.92C572.3 414.907 571.827 415.047 571.44 415.34C571.067 415.62 570.88 416.033 570.88 416.58C570.88 417.047 571.027 417.42 571.32 417.7C571.613 417.967 572.013 418.193 572.52 418.38C573.027 418.567 573.607 418.767 574.26 418.98C574.953 419.22 575.587 419.5 576.16 419.82C576.733 420.14 577.193 420.567 577.54 421.1C577.887 421.62 578.06 422.293 578.06 423.12C578.06 423.853 577.873 424.533 577.5 425.16C577.127 425.787 576.573 426.293 575.84 426.68C575.107 427.053 574.207 427.24 573.14 427.24ZM583.378 427V415.06H579.298V413H590.038V415.06H585.938V427H583.378ZM591.934 427V413H594.494V427H591.934ZM597.208 427V413H599.768L606.348 422.86V413H608.908V427H606.348L599.768 417.16V427H597.208ZM617.742 427.24C616.422 427.24 615.268 426.94 614.282 426.34C613.295 425.74 612.528 424.907 611.982 423.84C611.435 422.76 611.162 421.507 611.162 420.08C611.162 418.64 611.442 417.373 612.002 416.28C612.575 415.173 613.382 414.313 614.422 413.7C615.475 413.073 616.722 412.76 618.162 412.76C619.802 412.76 621.162 413.153 622.242 413.94C623.322 414.727 624.022 415.813 624.342 417.2H621.482C621.268 416.547 620.882 416.04 620.322 415.68C619.762 415.307 619.042 415.12 618.162 415.12C616.762 415.12 615.682 415.567 614.922 416.46C614.162 417.34 613.782 418.553 613.782 420.1C613.782 421.647 614.155 422.847 614.902 423.7C615.662 424.54 616.688 424.96 617.982 424.96C619.248 424.96 620.202 424.62 620.842 423.94C621.495 423.247 621.888 422.34 622.022 421.22H618.482V419.3H624.602V427H622.242L622.042 425.16C621.588 425.827 621.022 426.34 620.342 426.7C619.662 427.06 618.795 427.24 617.742 427.24Z" fill="black"/>
<path d="M278.24 640V635.02L273.54 626H276.44L279.54 632.46L282.62 626H285.48L280.8 635.02V640H278.24ZM292.781 640.24C291.381 640.24 290.155 639.933 289.101 639.32C288.061 638.707 287.241 637.86 286.641 636.78C286.055 635.687 285.761 634.427 285.761 633C285.761 631.573 286.055 630.32 286.641 629.24C287.241 628.147 288.061 627.293 289.101 626.68C290.155 626.067 291.381 625.76 292.781 625.76C294.168 625.76 295.388 626.067 296.441 626.68C297.495 627.293 298.315 628.147 298.901 629.24C299.488 630.32 299.781 631.573 299.781 633C299.781 634.427 299.488 635.687 298.901 636.78C298.315 637.86 297.495 638.707 296.441 639.32C295.388 639.933 294.168 640.24 292.781 640.24ZM292.781 637.94C294.115 637.94 295.175 637.5 295.961 636.62C296.761 635.74 297.161 634.533 297.161 633C297.161 631.467 296.761 630.26 295.961 629.38C295.175 628.5 294.115 628.06 292.781 628.06C291.448 628.06 290.381 628.5 289.581 629.38C288.781 630.26 288.381 631.467 288.381 633C288.381 634.533 288.781 635.74 289.581 636.62C290.381 637.5 291.448 637.94 292.781 637.94ZM307.442 640.24C306.415 640.24 305.488 640.04 304.662 639.64C303.835 639.227 303.175 638.607 302.682 637.78C302.202 636.953 301.962 635.907 301.962 634.64V626H304.522V634.66C304.522 635.753 304.782 636.567 305.302 637.1C305.835 637.633 306.568 637.9 307.502 637.9C308.422 637.9 309.148 637.633 309.682 637.1C310.215 636.567 310.482 635.753 310.482 634.66V626H313.042V634.64C313.042 635.907 312.788 636.953 312.282 637.78C311.775 638.607 311.095 639.227 310.242 639.64C309.402 640.04 308.468 640.24 307.442 640.24ZM319.521 640L324.641 626H327.521L332.641 640H329.921L328.801 636.76H323.341L322.201 640H319.521ZM324.041 634.76H328.101L326.061 628.94L324.041 634.76ZM334.444 640V626H339.624C340.744 626 341.671 626.187 342.404 626.56C343.137 626.933 343.684 627.447 344.044 628.1C344.404 628.753 344.584 629.487 344.584 630.3C344.584 631.073 344.411 631.787 344.064 632.44C343.717 633.08 343.177 633.6 342.444 634C341.711 634.387 340.771 634.58 339.624 634.58H337.004V640H334.444ZM337.004 632.5H339.464C340.357 632.5 340.997 632.307 341.384 631.92C341.784 631.52 341.984 630.98 341.984 630.3C341.984 629.607 341.784 629.067 341.384 628.68C340.997 628.28 340.357 628.08 339.464 628.08H337.004V632.5ZM346.592 640V626H351.772C352.892 626 353.819 626.187 354.552 626.56C355.286 626.933 355.832 627.447 356.192 628.1C356.552 628.753 356.732 629.487 356.732 630.3C356.732 631.073 356.559 631.787 356.212 632.44C355.866 633.08 355.326 633.6 354.592 634C353.859 634.387 352.919 634.58 351.772 634.58H349.152V640H346.592ZM349.152 632.5H351.612C352.506 632.5 353.146 632.307 353.532 631.92C353.932 631.52 354.132 630.98 354.132 630.3C354.132 629.607 353.932 629.067 353.532 628.68C353.146 628.28 352.506 628.08 351.612 628.08H349.152V632.5ZM358.741 640V626H363.881C365.001 626 365.921 626.193 366.641 626.58C367.374 626.953 367.921 627.467 368.281 628.12C368.641 628.76 368.821 629.473 368.821 630.26C368.821 631.113 368.594 631.893 368.141 632.6C367.701 633.307 367.008 633.82 366.061 634.14L368.961 640H366.021L363.421 634.48H361.301V640H358.741ZM361.301 632.6H363.721C364.574 632.6 365.201 632.393 365.601 631.98C366.001 631.567 366.201 631.02 366.201 630.34C366.201 629.673 366.001 629.14 365.601 628.74C365.214 628.34 364.581 628.14 363.701 628.14H361.301V632.6ZM377.762 640.24C376.362 640.24 375.135 639.933 374.082 639.32C373.042 638.707 372.222 637.86 371.622 636.78C371.035 635.687 370.742 634.427 370.742 633C370.742 631.573 371.035 630.32 371.622 629.24C372.222 628.147 373.042 627.293 374.082 626.68C375.135 626.067 376.362 625.76 377.762 625.76C379.148 625.76 380.368 626.067 381.422 626.68C382.475 627.293 383.295 628.147 383.882 629.24C384.468 630.32 384.762 631.573 384.762 633C384.762 634.427 384.468 635.687 383.882 636.78C383.295 637.86 382.475 638.707 381.422 639.32C380.368 639.933 379.148 640.24 377.762 640.24ZM377.762 637.94C379.095 637.94 380.155 637.5 380.942 636.62C381.742 635.74 382.142 634.533 382.142 633C382.142 631.467 381.742 630.26 380.942 629.38C380.155 628.5 379.095 628.06 377.762 628.06C376.428 628.06 375.362 628.5 374.562 629.38C373.762 630.26 373.362 631.467 373.362 633C373.362 634.533 373.762 635.74 374.562 636.62C375.362 637.5 376.428 637.94 377.762 637.94ZM390.613 640L385.493 626H388.233L392.193 637.38L396.173 626H398.873L393.753 640H390.613ZM400.538 640V626H409.678V628.06H403.098V631.9H409.078V633.9H403.098V637.94H409.678V640H400.538Z" fill="black"/>
<path d="M44.6959 776V762H47.2559V774H53.4559V776H44.6959ZM54.8116 776L59.9316 762H62.8116L67.9316 776H65.2116L64.0916 772.76H58.6316L57.4916 776H54.8116ZM59.3316 770.76H63.3916L61.3516 764.94L59.3316 770.76ZM74.5295 776.24C73.5029 776.24 72.5762 776.04 71.7495 775.64C70.9229 775.227 70.2629 774.607 69.7695 773.78C69.2895 772.953 69.0495 771.907 69.0495 770.64V762H71.6095V770.66C71.6095 771.753 71.8695 772.567 72.3895 773.1C72.9229 773.633 73.6562 773.9 74.5895 773.9C75.5095 773.9 76.2362 773.633 76.7695 773.1C77.3029 772.567 77.5695 771.753 77.5695 770.66V762H80.1295V770.64C80.1295 771.907 79.8762 772.953 79.3695 773.78C78.8629 774.607 78.1829 775.227 77.3295 775.64C76.4895 776.04 75.5562 776.24 74.5295 776.24ZM82.7428 776V762H85.3028L91.8828 771.86V762H94.4428V776H91.8828L85.3028 766.16V776H82.7428ZM103.497 776.24C102.084 776.24 100.87 775.94 99.8569 775.34C98.8435 774.727 98.0635 773.88 97.5169 772.8C96.9702 771.707 96.6969 770.447 96.6969 769.02C96.6969 767.593 96.9702 766.333 97.5169 765.24C98.0635 764.147 98.8435 763.293 99.8569 762.68C100.87 762.067 102.084 761.76 103.497 761.76C105.177 761.76 106.55 762.18 107.617 763.02C108.697 763.847 109.37 765.013 109.637 766.52H106.817C106.644 765.76 106.27 765.167 105.697 764.74C105.137 764.3 104.39 764.08 103.457 764.08C102.164 764.08 101.15 764.52 100.417 765.4C99.6835 766.28 99.3169 767.487 99.3169 769.02C99.3169 770.553 99.6835 771.76 100.417 772.64C101.15 773.507 102.164 773.94 103.457 773.94C104.39 773.94 105.137 773.74 105.697 773.34C106.27 772.927 106.644 772.36 106.817 771.64H109.637C109.37 773.08 108.697 774.207 107.617 775.02C106.55 775.833 105.177 776.24 103.497 776.24ZM111.903 776V762H114.463V767.82H120.743V762H123.303V776H120.743V769.9H114.463V776H111.903Z" fill="black"/>
<path d="M286 715H152" stroke="black" stroke-dasharray="8 8"/>
<g filter="url(#filter0_d_217_2)">
<rect x="16" y="33" width="203" height="116" rx="10" fill="#FF6854"/>
</g>
<rect x="16" y="691" width="136" height="47" rx="23.5" fill="#39B13A"/>
<path d="M85.134 103.432C83.286 103.432 81.654 103.12 80.238 102.496C78.822 101.848 77.706 100.936 76.89 99.76C76.074 98.56 75.654 97.108 75.63 95.404H80.49C80.538 96.58 80.958 97.576 81.75 98.392C82.566 99.184 83.682 99.58 85.098 99.58C86.322 99.58 87.294 99.292 88.014 98.716C88.734 98.116 89.094 97.324 89.094 96.34C89.094 95.308 88.77 94.504 88.122 93.928C87.498 93.352 86.658 92.884 85.602 92.524C84.546 92.164 83.418 91.78 82.218 91.372C80.274 90.7 78.786 89.836 77.754 88.78C76.746 87.724 76.242 86.32 76.242 84.568C76.218 83.08 76.566 81.808 77.286 80.752C78.03 79.672 79.038 78.844 80.31 78.268C81.582 77.668 83.046 77.368 84.702 77.368C86.382 77.368 87.858 77.668 89.13 78.268C90.426 78.868 91.434 79.708 92.154 80.788C92.898 81.868 93.294 83.152 93.342 84.64H88.41C88.386 83.752 88.038 82.972 87.366 82.3C86.718 81.604 85.806 81.256 84.63 81.256C83.622 81.232 82.77 81.484 82.074 82.012C81.402 82.516 81.066 83.26 81.066 84.244C81.066 85.084 81.33 85.756 81.858 86.26C82.386 86.74 83.106 87.148 84.018 87.484C84.93 87.82 85.974 88.18 87.15 88.564C88.398 88.996 89.538 89.5 90.57 90.076C91.602 90.652 92.43 91.42 93.054 92.38C93.678 93.316 93.99 94.528 93.99 96.016C93.99 97.336 93.654 98.56 92.982 99.688C92.31 100.816 91.314 101.728 89.994 102.424C88.674 103.096 87.054 103.432 85.134 103.432ZM105.859 103C103.987 103 102.487 102.544 101.359 101.632C100.231 100.72 99.6665 99.1 99.6665 96.772V88.996H96.6065V85.144H99.6665L100.207 80.356H104.275V85.144H109.099V88.996H104.275V96.808C104.275 97.672 104.455 98.272 104.814 98.608C105.199 98.92 105.847 99.076 106.759 99.076H108.991V103H105.859ZM119.211 103.432C117.675 103.432 116.415 103.192 115.431 102.712C114.447 102.208 113.715 101.548 113.235 100.732C112.755 99.916 112.515 99.016 112.515 98.032C112.515 96.376 113.163 95.032 114.459 94C115.755 92.968 117.699 92.452 120.291 92.452H124.827V92.02C124.827 90.796 124.479 89.896 123.783 89.32C123.087 88.744 122.223 88.456 121.191 88.456C120.255 88.456 119.439 88.684 118.743 89.14C118.047 89.572 117.615 90.22 117.447 91.084H112.947C113.067 89.788 113.499 88.66 114.243 87.7C115.011 86.74 115.995 86.008 117.195 85.504C118.395 84.976 119.739 84.712 121.227 84.712C123.771 84.712 125.775 85.348 127.239 86.62C128.703 87.892 129.435 89.692 129.435 92.02V103H125.511L125.079 100.12C124.551 101.08 123.807 101.872 122.847 102.496C121.911 103.12 120.699 103.432 119.211 103.432ZM120.255 99.832C121.575 99.832 122.595 99.4 123.315 98.536C124.059 97.672 124.527 96.604 124.719 95.332H120.795C119.571 95.332 118.695 95.56 118.167 96.016C117.639 96.448 117.375 96.988 117.375 97.636C117.375 98.332 117.639 98.872 118.167 99.256C118.695 99.64 119.391 99.832 120.255 99.832ZM133.832 103V85.144H137.936L138.368 88.492C139.016 87.34 139.892 86.428 140.996 85.756C142.124 85.06 143.444 84.712 144.956 84.712V89.572H143.66C142.652 89.572 141.752 89.728 140.96 90.04C140.168 90.352 139.544 90.892 139.088 91.66C138.656 92.428 138.44 93.496 138.44 94.864V103H133.832ZM156.062 103C154.19 103 152.69 102.544 151.562 101.632C150.434 100.72 149.87 99.1 149.87 96.772V88.996H146.81V85.144H149.87L150.41 80.356H154.478V85.144H159.302V88.996H154.478V96.808C154.478 97.672 154.658 98.272 155.018 98.608C155.402 98.92 156.05 99.076 156.962 99.076H159.194V103H156.062Z" fill="white"/>
<path d="M63.0656 723V706.2H74.0336V708.672H66.1376V713.28H73.3136V715.68H66.1376V720.528H74.0336V723H63.0656ZM76.8686 723V711.096H79.5806L79.8206 713.112C80.1886 712.408 80.7166 711.848 81.4046 711.432C82.1086 711.016 82.9326 710.808 83.8766 710.808C85.3486 710.808 86.4926 711.272 87.3086 712.2C88.1246 713.128 88.5326 714.488 88.5326 716.28V723H85.4606V716.568C85.4606 715.544 85.2526 714.76 84.8366 714.216C84.4206 713.672 83.7726 713.4 82.8926 713.4C82.0286 713.4 81.3166 713.704 80.7566 714.312C80.2126 714.92 79.9406 715.768 79.9406 716.856V723H76.8686ZM96.9422 723.288C95.8222 723.288 94.8222 723.016 93.9422 722.472C93.0622 721.928 92.3662 721.184 91.8542 720.24C91.3422 719.296 91.0862 718.224 91.0862 717.024C91.0862 715.824 91.3422 714.76 91.8542 713.832C92.3662 712.888 93.0622 712.152 93.9422 711.624C94.8222 711.08 95.8222 710.808 96.9422 710.808C97.8382 710.808 98.6222 710.976 99.2942 711.312C99.9662 711.648 100.51 712.12 100.926 712.728V705.72H103.998V723H101.262L100.926 721.296C100.542 721.824 100.03 722.288 99.3902 722.688C98.7662 723.088 97.9502 723.288 96.9422 723.288ZM97.5902 720.6C98.5822 720.6 99.3902 720.272 100.014 719.616C100.654 718.944 100.974 718.088 100.974 717.048C100.974 716.008 100.654 715.16 100.014 714.504C99.3902 713.832 98.5822 713.496 97.5902 713.496C96.6142 713.496 95.8062 713.824 95.1662 714.48C94.5262 715.136 94.2062 715.984 94.2062 717.024C94.2062 718.064 94.5262 718.92 95.1662 719.592C95.8062 720.264 96.6142 720.6 97.5902 720.6Z" fill="white"/>
<path d="M581.549 494.816C579.328 491.985 576.714 489.769 573.622 488.123C570.574 486.477 567.285 485.577 563.845 485.248C563.845 481.803 563.845 478.467 563.845 475C574.472 475.834 583.008 480.442 589.693 488.737C588.147 490.646 586.644 492.512 585.142 494.377C578.565 502.452 571.989 510.528 565.369 518.604C563.605 520.754 560.622 521.017 558.64 519.262C556.419 517.309 556.463 513.842 558.815 512.042C566.175 506.424 573.579 500.872 580.961 495.277C581.157 495.123 581.331 494.991 581.549 494.816Z" fill="white"/>
<path d="M591.936 492.007C593.765 495.013 595.093 498.129 595.899 501.443C598.49 512.349 596.53 522.378 589.998 531.463C588.952 532.889 587.907 532.999 586.579 531.858C585.207 530.695 583.835 529.532 582.463 528.369C581.2 527.293 581.113 526.46 582.05 525.121C587.189 517.726 588.256 509.782 585.185 501.267C585.098 501.004 585.055 500.565 585.207 500.39C587.385 497.603 589.628 494.86 591.936 492.007Z" fill="white"/>
<path d="M543.005 494.07C541.372 496.023 539.978 498.239 538.977 500.675C537.953 503.111 537.365 505.656 537.148 508.311C533.751 508.311 530.419 508.311 527 508.311C527.479 500.06 530.484 492.928 535.819 486.85C538.236 489.264 540.588 491.634 543.005 494.07Z" fill="white"/>
<path d="M560.034 475.022C560.034 478.445 560.034 481.781 560.034 485.226C554.677 485.709 549.93 487.684 545.901 491.151C543.528 488.759 541.176 486.389 538.737 483.953C544.747 478.599 551.824 475.593 560.034 475.022Z" fill="white"/>
<path d="M527 512.174C530.397 512.174 533.707 512.174 537.082 512.174C537.235 513.139 537.365 514.105 537.54 515.049C538.215 518.691 539.652 521.983 541.786 524.967C542.853 526.46 542.744 527.272 541.329 528.457C539.891 529.664 538.476 530.914 537.039 532.099C536.081 532.889 534.992 532.802 534.251 531.836C529.831 526.087 527.457 519.547 527 512.174Z" fill="white"/>
<path d="M562.016 534.952C567.503 534.952 572.991 534.952 578.478 534.952C579.61 534.952 580.264 535.413 580.46 536.379C580.721 537.629 580.002 538.617 578.739 538.727C578.587 538.749 578.413 538.727 578.26 538.727C567.394 538.727 556.528 538.727 545.684 538.727C544.312 538.727 543.571 538.178 543.441 537.081C543.31 535.808 544.072 534.952 545.401 534.952C550.126 534.952 554.851 534.952 559.577 534.952C560.382 534.952 561.188 534.952 562.016 534.952Z" fill="white"/>
<path d="M561.994 527.381C564.28 527.381 566.567 527.359 568.831 527.381C570.269 527.403 571.074 528.852 570.421 530.146C570.073 530.827 569.485 531.134 568.766 531.134C564.237 531.156 559.686 531.156 555.156 531.134C553.98 531.134 553.24 530.3 553.262 529.203C553.283 528.084 554.002 527.381 555.222 527.359C557.486 527.359 559.729 527.381 561.994 527.381Z" fill="white"/>
<path d="M287 338.913C287.503 336.971 288.033 335.057 289.318 333.481C292.39 329.654 296.299 328.19 301.102 329.203C303.308 329.654 304.034 329.147 304.23 326.896C304.984 318.171 310.541 311.698 318.863 309.981C323.721 308.968 328.273 309.981 332.434 312.711C332.602 312.824 332.769 312.964 332.937 313.077C334.473 314.118 335.618 313.781 336.316 312.064C339.471 304.549 345.028 299.962 352.959 298.414C364.548 296.163 376.304 304.409 378.343 316.145C378.929 319.55 378.79 322.927 377.896 326.248C377.338 328.387 378.287 329.429 380.437 329.091C386.776 328.05 392.78 332.159 393.813 338.266C394.93 344.851 390.937 350.593 384.375 351.831C384.235 351.859 384.123 351.944 384.012 352C355.025 352 326.039 352 297.053 352C296.885 351.944 296.746 351.859 296.578 351.831C292.027 350.874 289.039 348.229 287.531 343.866C287.307 343.219 287.168 342.515 287 341.868C287 340.855 287 339.87 287 338.913ZM329.558 336.577C329.921 338.069 330.2 339.589 330.675 341.024C331.094 342.29 332.462 342.684 333.495 341.981C334.277 341.446 334.389 340.602 334.165 339.448C333.886 338.012 333.551 336.521 333.747 335.114C334.221 331.849 336.79 329.429 339.918 328.95C343.269 328.415 346.229 329.851 347.905 332.862C348.826 334.466 349.804 334.72 351.311 333.735C354.244 331.793 357.818 332.637 359.577 335.705C360.387 337.084 361.392 337.506 362.454 336.915C363.487 336.324 363.654 335.17 362.9 333.791C360.638 329.71 355.779 327.824 351.423 329.457C350.641 329.738 350.306 329.597 349.804 329.006C346.62 325.291 341.621 324.053 337.098 325.798C332.658 327.487 329.753 331.765 329.558 336.577ZM353.741 301.876C348.659 301.848 343.548 306.013 342.487 311.051C342.264 312.092 342.822 313.077 343.8 313.358C344.749 313.64 345.699 313.161 346.117 312.205C346.201 311.979 346.257 311.726 346.341 311.501C347.29 308.63 349.217 306.773 352.149 305.985C352.791 305.816 353.462 305.788 354.104 305.675C355.277 305.478 355.919 304.634 355.807 303.536C355.668 302.579 354.83 301.876 353.741 301.876ZM309.954 324.475C309.926 325.939 310.513 326.811 311.658 326.896C312.859 326.98 313.585 326.22 313.752 324.7C313.78 324.532 313.808 324.363 313.836 324.194C314.367 321.689 315.819 320.029 318.192 319.1C319.281 318.678 319.728 317.664 319.365 316.623C319.03 315.666 318.025 315.188 316.992 315.469C313.194 316.539 310.066 320.535 309.954 324.475Z" fill="white"/>
<path d="M309.031 297.463C309.482 298.508 309.963 299.608 310.471 300.818C308.296 301.698 306.206 302.55 304.116 303.403C302.421 304.09 301.828 304.943 302.28 306.098C302.76 307.308 303.862 307.583 305.585 306.895C307.703 306.043 309.793 305.19 311.968 304.31C312.505 305.548 312.985 306.703 313.521 307.94C307.138 310.993 302.958 315.805 300.981 322.735C296.264 311.653 291.632 300.818 287 289.9C292.395 287.728 297.705 285.583 303.071 283.41C303.579 284.593 304.031 285.693 304.54 286.875C302.224 287.81 299.964 288.663 297.761 289.653C297.168 289.928 296.518 290.505 296.292 291.083C296.123 291.55 296.462 292.348 296.801 292.815C297.309 293.475 298.156 293.475 298.919 293.173C301.094 292.32 303.269 291.44 305.444 290.56C305.585 290.505 305.698 290.478 305.952 290.368C306.432 291.495 306.912 292.623 307.421 293.805C306.263 294.273 305.218 294.713 304.144 295.153C302.902 295.675 302.393 296.638 302.789 297.655C303.212 298.728 304.314 299.113 305.585 298.618C306.63 298.233 307.675 297.793 308.72 297.408C308.861 297.435 308.889 297.463 309.031 297.463Z" fill="white"/>
<path d="M333.694 309.017C331.924 301.262 330.181 293.648 328.438 286.034C328.217 285.1 327.857 284.364 326.889 284.138C325.506 283.798 324.4 285.044 324.704 286.629C325.174 288.95 325.727 291.242 326.253 293.535C327.277 298.035 328.3 302.536 329.324 307.008C329.351 307.177 329.379 307.347 329.434 307.574C328.134 307.262 326.889 307.036 325.7 306.668C325.451 306.583 325.23 306.045 325.147 305.649C323.957 300.554 322.795 295.431 321.633 290.308C320.195 284.025 318.756 277.741 317.318 271.458C317.263 271.147 317.235 270.863 317.18 270.552C318.507 270.807 319.78 271.033 321.163 271.288C321.55 273.015 321.965 274.826 322.408 276.637C322.74 278.024 323.653 278.732 324.732 278.449C325.866 278.166 326.391 277.175 326.115 275.788C325.783 274.203 325.423 272.618 325.008 271.062C324.87 270.496 324.953 270.213 325.478 269.873C326.391 269.278 327.249 268.571 328.189 267.863C329.075 271.769 329.987 275.675 330.873 279.553C332.698 287.619 334.552 295.686 336.35 303.753C336.461 304.205 336.295 304.856 336.046 305.281C335.354 306.555 334.579 307.687 333.694 309.017Z" fill="white"/>
<path d="M357.187 247.744C361.135 252.511 363.979 257.707 363.814 264.187C363.731 267.727 362.488 270.925 360.39 273.751C360.197 274.037 359.727 274.265 359.396 274.265C356.193 274.122 352.99 273.951 349.815 273.666C349.263 273.608 348.572 273.237 348.213 272.781C345.756 269.754 345.894 265.272 348.407 262.303C349.704 260.79 351.002 259.249 352.189 257.65C353.266 256.165 354.288 254.652 355.116 253.025C355.917 251.341 356.469 249.571 357.187 247.744ZM361.329 262.018C361.329 261.59 361.356 261.161 361.329 260.733C361.301 260.391 361.246 260.019 361.191 259.677C360.97 258.278 360.141 257.536 358.982 257.736C357.905 257.907 357.27 258.849 357.463 260.219C357.905 263.131 357.242 265.786 355.668 268.213C354.95 269.326 355.116 270.468 356.027 271.125C356.938 271.781 358.098 271.467 358.844 270.325C360.5 267.813 361.356 265.044 361.329 262.018Z" fill="white"/>
<path d="M388.134 270.838C387.262 272.914 386.36 274.991 385.546 277.096C385.343 277.644 385.226 278.308 385.343 278.856C385.517 279.692 386.215 280.182 387.087 280.24C388.017 280.298 388.686 279.836 389.035 278.971C389.878 276.981 390.692 274.991 391.535 273.001C391.622 272.77 391.739 272.539 391.884 272.193C392.029 272.453 392.146 272.626 392.175 272.799C392.785 275.423 393.425 278.048 393.977 280.673C394.064 281.105 393.89 281.711 393.657 282.115C392.058 284.797 390.43 287.479 388.773 290.104C388.483 290.536 388.076 291.027 387.581 291.2C383.802 292.527 379.499 290.767 377.726 287.191C377.493 286.729 377.493 286.095 377.639 285.576C378.336 282.49 379.121 279.432 379.877 276.375C379.964 276.029 380.081 275.539 380.371 275.366C382.901 273.751 385.459 272.193 387.988 270.607C388.017 270.722 388.076 270.78 388.134 270.838Z" fill="white"/>
<path d="M386.684 295.196C386.626 295.422 386.597 295.563 386.538 295.676C384.532 300.4 382.526 305.095 380.461 309.932C380.258 309.621 380.083 309.394 379.967 309.168C378.193 305.717 375.751 302.776 372.639 300.372C372.087 299.947 371.883 299.608 372.203 298.901C373.395 296.242 374.5 293.555 375.693 290.727C378.688 293.923 382.293 295.337 386.684 295.196Z" fill="white"/>
<path d="M316.472 257.904C319.028 258.409 321.275 257.845 323.393 255.974C324.4 258.112 325.356 260.13 326.285 262.179C326.363 262.357 326.311 262.594 326.26 262.832C325.924 265.058 324.039 267.314 322.128 267.73C319.881 268.205 317.995 267.403 316.523 265.444C316.394 265.266 316.265 264.999 316.265 264.761C316.317 262.505 316.394 260.249 316.472 257.904Z" fill="white"/>
<path d="M359.248 286.827C358.987 289.184 358.725 291.652 358.464 293.925C354.951 294.401 351.583 294.85 348.273 295.299C348.273 292.382 348.273 289.268 348.273 286.154C351.961 286.378 355.503 286.603 359.248 286.827Z" fill="white"/>
<path d="M359.248 283.41C355.84 283.211 352.569 283.012 349.188 282.841C349.433 280.764 349.679 278.943 349.897 277.009C353.032 277.208 356.085 277.407 359.221 277.606C359.248 279.484 359.248 281.276 359.248 283.41Z" fill="white"/>
<path d="M321.752 252.607C319.998 254.11 318.243 254.493 316.265 253.837C316.377 251.131 316.46 248.425 316.599 245.691C316.599 245.445 316.85 245.062 317.045 245.008C317.24 244.953 317.63 245.199 317.769 245.418C319.106 247.796 320.415 250.174 321.752 252.607Z" fill="white"/>
<path d="M203 510.597C202.675 510.727 202.328 510.836 202.003 511.01C193.789 515.51 185.574 520.011 177.36 524.512C177.1 524.664 176.818 524.794 176.449 524.968C176.406 524.729 176.341 524.555 176.341 524.381C176.341 521.685 176.363 518.989 176.319 516.293C176.319 515.728 176.579 515.51 177.013 515.293C182.67 512.51 188.305 509.683 193.962 506.879C194.222 506.748 194.504 506.596 194.851 506.422C190.451 504.248 186.181 502.139 181.89 500.03C180.264 499.225 178.66 498.421 177.013 497.638C176.514 497.399 176.298 497.138 176.319 496.551C176.363 493.746 176.341 490.942 176.341 487.985C176.753 488.18 177.035 488.311 177.316 488.463C185.596 492.964 193.854 497.464 202.133 501.987C202.415 502.139 202.697 502.269 202.957 502.4C203 505.139 203 507.879 203 510.597Z" fill="white"/>
<path d="M142.659 488.028C142.659 491.094 142.681 494.007 142.638 496.943C142.638 497.225 142.247 497.595 141.966 497.747C136.374 500.443 130.803 503.139 125.212 505.813C124.886 505.966 124.561 506.14 124.128 506.357C124.518 506.553 124.778 506.705 125.038 506.835C130.652 509.64 136.265 512.467 141.901 515.25C142.464 515.532 142.681 515.837 142.681 516.467C142.638 518.989 142.659 521.511 142.659 524.055C142.659 524.338 142.638 524.599 142.616 524.99C142.291 524.838 142.031 524.729 141.792 524.599C133.426 520.033 125.06 515.445 116.694 510.879C116.217 510.618 116 510.358 116 509.771C116.043 507.531 116 505.292 116.043 503.03C116.043 502.748 116.26 502.313 116.499 502.182C125.038 497.508 133.599 492.855 142.139 488.224C142.269 488.159 142.399 488.137 142.659 488.028Z" fill="white"/>
<path d="M170.402 482.832C169.384 485.571 168.408 488.202 167.433 490.833C162.643 503.661 157.831 516.467 153.063 529.295C152.825 529.969 152.521 530.208 151.806 530.186C150.31 530.121 148.836 530.164 147.211 530.164C147.384 529.664 147.514 529.251 147.666 528.86C153.28 513.836 158.893 498.812 164.485 483.767C164.745 483.049 165.07 482.745 165.872 482.788C167.325 482.897 168.798 482.832 170.402 482.832Z" fill="white"/>
<path d="M365.7 712.437C365.7 712.878 365.7 713.33 365.7 713.771C365.664 713.843 365.629 713.914 365.617 713.986C365.426 715.022 364.938 715.892 364.187 716.607C364.032 716.762 363.865 716.893 363.71 717.048C364.485 718.168 364.806 719.36 364.604 720.682C364.401 722.005 363.71 723.03 362.685 723.84C364.282 726.223 363.758 729.012 361.768 730.584C362.042 731.43 362.447 732.229 362.531 733.051C362.828 736.03 360.636 738.389 357.633 738.401C352.64 738.413 347.648 738.437 342.643 738.389C341.237 738.377 339.831 738.199 338.437 737.972C336.03 737.567 333.825 736.519 331.549 735.72C331.24 735.613 331.252 735.41 331.252 735.172C331.252 727.117 331.252 719.062 331.263 711.007C331.263 710.78 331.383 710.518 331.526 710.351C332.92 708.79 334.362 707.277 335.744 705.704C337.388 703.833 338.997 701.939 340.605 700.032C340.772 699.842 340.856 699.52 340.856 699.258C340.88 697.578 340.856 695.897 340.868 694.217C340.891 692.883 341.785 691.965 343.048 692.001C345.443 692.073 347.505 692.942 349.125 694.706C351.568 697.363 351.806 700.545 351.127 703.869C350.829 705.335 350.317 706.753 349.876 708.254C350.114 708.254 350.305 708.254 350.496 708.254C353.892 708.254 357.288 708.254 360.672 708.254C362.376 708.254 363.782 708.886 364.747 710.292C365.176 710.935 365.39 711.722 365.7 712.437Z" fill="white"/>
<path d="M317 737.436C317 727.403 317 717.405 317 707.372C320.789 707.372 324.567 707.372 328.368 707.372C328.368 717.382 328.368 727.391 328.368 737.436C324.602 737.436 320.825 737.436 317 737.436Z" fill="white"/>
<defs>
<filter id="filter0_d_217_2" x="0" y="17" width="243" height="156" filterUnits="userSpaceOnUse" color-interpolation-filters="sRGB">
<feFlood flood-opacity="0" result="BackgroundImageFix"/>
<feColorMatrix in="SourceAlpha" type="matrix" values="0 0 0 0 0 0 0 0 0 0 0 0 0 0 0 0 0 0 127 0" result="hardAlpha"/>
<feOffset dx="4" dy="4"/>
<feGaussianBlur stdDeviation="10"/>
<feComposite in2="hardAlpha" operator="out"/>
<feColorMatrix type="matrix" values="0 0 0 0 0 0 0 0 0 0 0 0 0 0 0 0 0 0 0.07 0"/>
<feBlend mode="normal" in2="BackgroundImageFix" result="effect1_dropShadow_217_2"/>
<feBlend mode="normal" in="SourceGraphic" in2="effect1_dropShadow_217_2" result="shape"/>
</filter>
</defs>
</svg>
