<svg width="239" height="239" viewBox="0 0 239 239" fill="none" xmlns="http://www.w3.org/2000/svg">
<rect width="239" height="239" rx="10" fill="#C9E4F9" fill-opacity="0.5"/>
<path d="M90.9646 50.7642H149.019L143.213 106.881L121.927 112.687H118.057L96.77 106.881L90.9646 50.7642Z" fill="#E5A228"/>
<path d="M119.992 56.5676H141.278L137.408 101.076L119.992 106.881C119.992 106.881 119.992 56.5676 119.992 56.5676Z" fill="#F1BF26"/>
<path d="M135.508 68.1533L136.117 62.373H102.513L103.191 68.1533L103.81 75.9326H103.802L104.389 81.7225H126.916L126.142 90.9338L119.992 92.8766V92.8167L111.814 90.6551L111.313 85.5793H104.483L105.401 94.9028V95.2839L119.992 99.1407L132.228 95.2839H132.377L132.38 95.2317L132.407 95.2278V94.9222L133.514 81.7225H133.54L134.128 75.9326H110.912L110.293 68.1533H135.508Z" fill="white"/>
<path d="M119.992 62.373H102.513L103.191 68.1533L103.81 75.9326H103.802L104.389 81.7225H119.992V75.9326H110.912L110.293 68.1533H119.992V62.373Z" fill="#E5E5E5"/>
<path d="M119.992 92.8168L111.814 90.6552L111.312 85.5793H104.483L105.401 94.9029V95.284L119.992 99.1408V92.8767V92.8168Z" fill="#E5E5E5"/>
<path d="M86.1862 75.2073L81.2018 131.046L58.7966 137.257L36.453 131.054L31.4739 75.2073H86.1862Z" fill="#E44D26"/>
<path d="M58.8301 132.509L76.9346 127.49L81.1941 79.7734H58.8301V132.509Z" fill="#F16529"/>
<path d="M49.1406 93.4725H58.8301V86.623H41.655L41.819 88.4606L43.5024 107.336H58.8301V100.486H49.7665L49.1406 93.4725Z" fill="#EBEBEB"/>
<path d="M50.6841 110.76H43.8083L44.768 121.515L58.7985 125.41L58.83 125.401V118.275L58.8 118.283L51.1717 116.223L50.6841 110.76Z" fill="#EBEBEB"/>
<path d="M58.8066 107.336H67.2409L66.4459 116.219L58.8066 118.281V125.407L72.8483 121.515L72.9513 120.358L74.5609 102.326L74.728 100.486H58.8066V107.336Z" fill="white"/>
<path d="M58.8066 93.4558V93.4725H75.3512L75.4886 91.933L75.8007 88.4606L75.9645 86.623H58.8066V93.4558Z" fill="white"/>
<path d="M158.388 130.656L153.308 73.6553H209.149L204.062 130.647L181.195 136.987L158.388 130.656Z" fill="#1572B6"/>
<path d="M181.228 132.142L199.708 127.019L204.055 78.3169H181.228V132.142Z" fill="#33A9DC"/>
<path d="M181.228 98.9678H190.479L191.117 91.809H181.228V84.8176H181.253H198.758L198.59 86.6927L196.874 105.959H181.228V98.9678Z" fill="white"/>
<path d="M181.271 117.123L181.24 117.132L173.454 115.029L172.957 109.453H169.173H165.938L166.918 120.43L181.237 124.406L181.271 124.397V117.123Z" fill="#EBEBEB"/>
<path d="M189.885 105.663L189.043 115.025L181.247 117.128V124.402L195.578 120.43L195.684 119.25L196.899 105.663H189.885Z" fill="white"/>
<path d="M181.254 84.8176V89.1604V91.7909V91.809H164.389H164.367L164.226 90.237L163.907 86.6927L163.74 84.8176H181.254Z" fill="#EBEBEB"/>
<path d="M181.228 98.9678V103.311V105.941V105.959H173.563H173.54L173.4 104.387L173.083 100.843L172.916 98.9678H181.228Z" fill="#EBEBEB"/>
<path d="M52.36 204V190H54.92V195.82H61.2V190H63.76V204H61.2V197.9H54.92V204H52.36ZM69.7411 204V192.06H65.6611V190H76.4011V192.06H72.3011V204H69.7411ZM78.2975 204V190H81.3375L85.7975 198.88L90.1975 190H93.2375V204H90.6775V194.34L86.7775 202H84.7575L80.8575 194.34V204H78.2975ZM95.9538 204V190H98.5138V202H104.714V204H95.9538ZM105.889 206.32L107.029 201.34H109.509L107.569 206.32H105.889ZM122.704 204.24C121.291 204.24 120.077 203.94 119.064 203.34C118.051 202.727 117.271 201.88 116.724 200.8C116.177 199.707 115.904 198.447 115.904 197.02C115.904 195.593 116.177 194.333 116.724 193.24C117.271 192.147 118.051 191.293 119.064 190.68C120.077 190.067 121.291 189.76 122.704 189.76C124.384 189.76 125.757 190.18 126.824 191.02C127.904 191.847 128.577 193.013 128.844 194.52H126.024C125.851 193.76 125.477 193.167 124.904 192.74C124.344 192.3 123.597 192.08 122.664 192.08C121.371 192.08 120.357 192.52 119.624 193.4C118.891 194.28 118.524 195.487 118.524 197.02C118.524 198.553 118.891 199.76 119.624 200.64C120.357 201.507 121.371 201.94 122.664 201.94C123.597 201.94 124.344 201.74 124.904 201.34C125.477 200.927 125.851 200.36 126.024 199.64H128.844C128.577 201.08 127.904 202.207 126.824 203.02C125.757 203.833 124.384 204.24 122.704 204.24ZM135.89 204.24C134.863 204.24 133.957 204.067 133.17 203.72C132.383 203.36 131.763 202.853 131.31 202.2C130.857 201.533 130.623 200.727 130.61 199.78H133.31C133.337 200.433 133.57 200.987 134.01 201.44C134.463 201.88 135.083 202.1 135.87 202.1C136.55 202.1 137.09 201.94 137.49 201.62C137.89 201.287 138.09 200.847 138.09 200.3C138.09 199.727 137.91 199.28 137.55 198.96C137.203 198.64 136.737 198.38 136.15 198.18C135.563 197.98 134.937 197.767 134.27 197.54C133.19 197.167 132.363 196.687 131.79 196.1C131.23 195.513 130.95 194.733 130.95 193.76C130.937 192.933 131.13 192.227 131.53 191.64C131.943 191.04 132.503 190.58 133.21 190.26C133.917 189.927 134.73 189.76 135.65 189.76C136.583 189.76 137.403 189.927 138.11 190.26C138.83 190.593 139.39 191.06 139.79 191.66C140.203 192.26 140.423 192.973 140.45 193.8H137.71C137.697 193.307 137.503 192.873 137.13 192.5C136.77 192.113 136.263 191.92 135.61 191.92C135.05 191.907 134.577 192.047 134.19 192.34C133.817 192.62 133.63 193.033 133.63 193.58C133.63 194.047 133.777 194.42 134.07 194.7C134.363 194.967 134.763 195.193 135.27 195.38C135.777 195.567 136.357 195.767 137.01 195.98C137.703 196.22 138.337 196.5 138.91 196.82C139.483 197.14 139.943 197.567 140.29 198.1C140.637 198.62 140.81 199.293 140.81 200.12C140.81 200.853 140.623 201.533 140.25 202.16C139.877 202.787 139.323 203.293 138.59 203.68C137.857 204.053 136.957 204.24 135.89 204.24ZM147.824 204.24C146.797 204.24 145.89 204.067 145.104 203.72C144.317 203.36 143.697 202.853 143.244 202.2C142.79 201.533 142.557 200.727 142.544 199.78H145.244C145.27 200.433 145.504 200.987 145.944 201.44C146.397 201.88 147.017 202.1 147.804 202.1C148.484 202.1 149.024 201.94 149.424 201.62C149.824 201.287 150.024 200.847 150.024 200.3C150.024 199.727 149.844 199.28 149.484 198.96C149.137 198.64 148.67 198.38 148.084 198.18C147.497 197.98 146.87 197.767 146.204 197.54C145.124 197.167 144.297 196.687 143.724 196.1C143.164 195.513 142.884 194.733 142.884 193.76C142.87 192.933 143.064 192.227 143.464 191.64C143.877 191.04 144.437 190.58 145.144 190.26C145.85 189.927 146.664 189.76 147.584 189.76C148.517 189.76 149.337 189.927 150.044 190.26C150.764 190.593 151.324 191.06 151.724 191.66C152.137 192.26 152.357 192.973 152.384 193.8H149.644C149.63 193.307 149.437 192.873 149.064 192.5C148.704 192.113 148.197 191.92 147.544 191.92C146.984 191.907 146.51 192.047 146.124 192.34C145.75 192.62 145.564 193.033 145.564 193.58C145.564 194.047 145.71 194.42 146.004 194.7C146.297 194.967 146.697 195.193 147.204 195.38C147.71 195.567 148.29 195.767 148.944 195.98C149.637 196.22 150.27 196.5 150.844 196.82C151.417 197.14 151.877 197.567 152.224 198.1C152.57 198.62 152.744 199.293 152.744 200.12C152.744 200.853 152.557 201.533 152.184 202.16C151.81 202.787 151.257 203.293 150.524 203.68C149.79 204.053 148.89 204.24 147.824 204.24ZM153.897 206.32L155.037 201.34H157.517L155.577 206.32H153.897ZM168.032 204.24C166.672 204.24 165.578 203.86 164.752 203.1C163.938 202.327 163.532 201.233 163.532 199.82H166.092C166.105 200.473 166.258 200.993 166.552 201.38C166.845 201.767 167.318 201.96 167.972 201.96C168.585 201.96 169.032 201.78 169.312 201.42C169.592 201.047 169.732 200.56 169.732 199.96V190H172.292V199.96C172.292 201.333 171.905 202.393 171.132 203.14C170.372 203.873 169.338 204.24 168.032 204.24ZM179.796 204.24C178.77 204.24 177.863 204.067 177.076 203.72C176.29 203.36 175.67 202.853 175.216 202.2C174.763 201.533 174.53 200.727 174.516 199.78H177.216C177.243 200.433 177.476 200.987 177.916 201.44C178.37 201.88 178.99 202.1 179.776 202.1C180.456 202.1 180.996 201.94 181.396 201.62C181.796 201.287 181.996 200.847 181.996 200.3C181.996 199.727 181.816 199.28 181.456 198.96C181.11 198.64 180.643 198.38 180.056 198.18C179.47 197.98 178.843 197.767 178.176 197.54C177.096 197.167 176.27 196.687 175.696 196.1C175.136 195.513 174.856 194.733 174.856 193.76C174.843 192.933 175.036 192.227 175.436 191.64C175.85 191.04 176.41 190.58 177.116 190.26C177.823 189.927 178.636 189.76 179.556 189.76C180.49 189.76 181.31 189.927 182.016 190.26C182.736 190.593 183.296 191.06 183.696 191.66C184.11 192.26 184.33 192.973 184.356 193.8H181.616C181.603 193.307 181.41 192.873 181.036 192.5C180.676 192.113 180.17 191.92 179.516 191.92C178.956 191.907 178.483 192.047 178.096 192.34C177.723 192.62 177.536 193.033 177.536 193.58C177.536 194.047 177.683 194.42 177.976 194.7C178.27 194.967 178.67 195.193 179.176 195.38C179.683 195.567 180.263 195.767 180.916 195.98C181.61 196.22 182.243 196.5 182.816 196.82C183.39 197.14 183.85 197.567 184.196 198.1C184.543 198.62 184.716 199.293 184.716 200.12C184.716 200.853 184.53 201.533 184.156 202.16C183.783 202.787 183.23 203.293 182.496 203.68C181.763 204.053 180.863 204.24 179.796 204.24Z" fill="black"/>
</svg>
