<svg width="847" height="785" viewBox="0 0 847 785" fill="none" xmlns="http://www.w3.org/2000/svg">
<g opacity="0.1">
<path d="M235 0.92981V784.07" stroke="black" stroke-dasharray="10 10"/>
<path d="M823 196.93L39 196.93" stroke="black" stroke-dasharray="10 10"/>
<path d="M431 0.92981V784.07" stroke="black" stroke-dasharray="10 10"/>
<path d="M823 392.93L39 392.93" stroke="black" stroke-dasharray="10 10"/>
<path d="M627 0.92981V784.07" stroke="black" stroke-dasharray="10 10"/>
<path d="M823 588.93L39 588.93" stroke="black" stroke-dasharray="10 10"/>
</g>
<g filter="url(#filter0_d_144_302)">
<rect x="384" y="40" width="106.966" height="106.966" rx="10" fill="#13196B"/>
</g>
<g filter="url(#filter1_d_144_302)">
<rect x="103.95" y="501.143" width="106.966" height="106.966" rx="10" fill="#39B13A"/>
</g>
<g filter="url(#filter2_d_144_302)">
<rect x="250.03" y="698.281" width="60.6141" height="60.6141" rx="10" fill="#D1DC07"/>
</g>
<g clip-path="url(#clip0_144_302)">
<path d="M281.064 714.421C281.44 714.499 281.824 714.562 282.193 714.647C284.765 715.246 286.96 717.679 287.308 720.287C287.535 722 287.287 723.622 286.306 725.074C285.006 726.999 283.216 728.12 280.843 728.282C277.725 728.494 275.167 726.675 274.002 724.2C272.908 721.881 273.349 718.793 275.068 716.868C276.119 715.697 277.384 714.88 278.954 714.562C279.224 714.506 279.487 714.464 279.757 714.421C280.19 714.421 280.63 714.421 281.064 714.421Z" fill="white"/>
<path d="M280.574 743.243C278.279 743.243 275.977 743.243 273.683 743.243C272.504 743.243 271.395 743.01 270.415 742.319C269.307 741.53 268.653 740.451 268.54 739.118C268.334 736.735 268.611 734.395 269.513 732.167C270.053 730.841 270.856 729.692 272.177 728.994C273.001 728.557 273.889 728.346 274.819 728.36C275.111 728.367 275.423 728.508 275.686 728.649C276.127 728.889 276.532 729.185 276.958 729.438C279.38 730.912 281.803 730.912 284.218 729.424C284.552 729.22 284.9 729.015 285.212 728.783C285.795 728.353 286.427 728.289 287.123 728.395C289.006 728.67 290.341 729.692 291.237 731.321C292.039 732.78 292.402 734.36 292.558 735.995C292.643 736.827 292.679 737.659 292.672 738.491C292.643 741.057 290.903 742.919 288.331 743.186C288.018 743.222 287.706 743.236 287.4 743.236C285.127 743.243 282.854 743.243 280.574 743.243Z" fill="white"/>
</g>
<g filter="url(#filter3_d_144_302)">
<rect x="716.034" y="126.761" width="106.966" height="106.966" rx="10" fill="#F14766"/>
</g>
<g filter="url(#filter4_d_144_302)">
<rect x="588.97" y="555.327" width="149.753" height="149.753" rx="10" fill="#F58E14"/>
</g>
<g filter="url(#filter5_d_144_302)">
<rect x="334.521" y="609.298" width="65.3682" height="65.3682" rx="10" fill="#00AEEB"/>
</g>
<g filter="url(#filter6_d_144_302)">
<rect x="388.004" y="234.916" width="177.088" height="177.088" rx="10" fill="#FCCF04"/>
</g>
<path d="M664.333 556.409V180.244H716.034" stroke="black" stroke-width="2" stroke-linejoin="round" stroke-dasharray="8 8"/>
<path d="M476.549 234.322V189.158H541.323V126.167V93.4831H490.216" stroke="black" stroke-width="2" stroke-linejoin="round" stroke-dasharray="8 8"/>
<path d="M663.739 481.532H366.611V609.892" stroke="black" stroke-width="2" stroke-linejoin="round" stroke-dasharray="8 8"/>
<path d="M475.954 412.004L475.954 483.315" stroke="black" stroke-width="2" stroke-linejoin="round" stroke-dasharray="8 8"/>
<path d="M475.954 207.58H246.572" stroke="black" stroke-width="2" stroke-linejoin="round" stroke-dasharray="8 8"/>
<path d="M156.245 608.109V729.337H250.137" stroke="black" stroke-width="2" stroke-linejoin="round" stroke-dasharray="8 8"/>
<g clip-path="url(#clip1_144_302)">
<path d="M386.067 653.933C385.909 654.551 385.714 655.151 385.258 655.651C384.736 656.224 384.104 656.669 383.331 656.697C381.544 656.751 379.748 656.715 378.045 656.715C378.064 655.642 378.101 654.551 378.101 653.451C378.11 650.769 378.101 649.633 378.101 646.942C378.101 645.942 378.027 644.96 377.691 644.014C377.673 643.96 377.682 643.896 377.664 643.796C379.246 643.887 380.837 643.578 382.354 644.123C384.401 644.86 385.62 646.305 385.993 648.424C386.002 648.478 386.039 648.533 386.058 648.587C386.067 650.887 386.067 651.642 386.067 653.933Z" fill="white"/>
<path d="M367.008 656.779C364.504 656.779 362.01 656.779 359.507 656.779C358.595 656.779 358.195 656.388 358.195 655.497C358.195 651.978 358.185 650.005 358.195 646.487C358.204 643.851 359.898 641.76 362.503 641.169C362.894 641.078 363.313 641.05 363.713 641.041C365.928 641.032 368.143 641.023 370.358 641.041C373.01 641.06 375.141 642.723 375.746 645.232C375.849 645.651 375.877 646.096 375.877 646.523C375.886 650.042 375.886 652.015 375.886 655.533C375.886 656.379 375.476 656.769 374.611 656.779C372.08 656.779 369.548 656.779 367.008 656.779Z" fill="white"/>
<path d="M367.045 639.705C363.416 639.705 360.447 636.787 360.438 633.223C360.438 629.695 363.434 626.795 367.064 626.804C370.684 626.813 373.652 629.713 373.652 633.223C373.652 636.777 370.674 639.705 367.045 639.705Z" fill="white"/>
<path d="M356.129 656.779C355.393 656.779 354.649 656.779 353.914 656.779C353.095 656.779 352.276 656.788 351.466 656.779C349.447 656.76 348.041 655.388 348.041 653.415C348.032 651.551 348.041 651.233 348.041 649.369C348.041 646.233 350.312 643.932 353.523 643.823C354.481 643.787 355.449 643.814 356.445 643.814C356.417 643.951 356.38 644.032 356.371 644.123C356.25 644.942 356.026 645.769 356.017 646.587C355.98 650.06 355.998 651.987 356.008 655.451C355.998 655.888 356.073 656.315 356.129 656.779Z" fill="white"/>
<path d="M350.508 637.641C350.498 634.996 352.713 632.823 355.44 632.823C358.157 632.823 360.354 634.95 360.372 637.596C360.391 640.26 358.157 642.46 355.44 642.46C352.741 642.46 350.517 640.296 350.508 637.641Z" fill="white"/>
<path d="M383.582 637.668C383.527 640.35 381.293 642.505 378.613 642.46C375.868 642.414 373.671 640.214 373.718 637.559C373.764 634.886 375.998 632.768 378.725 632.814C381.433 632.868 383.638 635.059 383.582 637.668Z" fill="white"/>
</g>
<g clip-path="url(#clip2_144_302)">
<path d="M508.27 319.806C508.27 320.135 508.27 320.402 508.27 320.691C508.27 329.026 508.27 337.381 508.27 345.716C508.27 350.594 505.288 354.525 500.745 355.615C499.902 355.821 499.017 355.883 498.154 355.883C483.021 355.903 467.868 355.903 452.735 355.883C447.553 355.883 443.606 352.569 442.721 347.568C442.619 347.013 442.619 346.437 442.619 345.881C442.619 337.443 442.619 328.984 442.619 320.547C442.619 320.32 442.639 320.094 442.66 319.826C464.496 319.806 486.311 319.806 508.27 319.806Z" fill="white"/>
<path d="M495.131 300.028C496.242 300.028 497.249 300.028 498.236 300.028C503.993 300.069 508.208 304.288 508.249 310.071C508.249 311.059 508.249 312.067 508.249 313.117C486.352 313.117 464.516 313.117 442.66 313.117C442.29 309.042 442.66 305.235 446.052 302.374C447.718 300.975 449.609 300.151 451.789 300.069C453.064 300.007 454.338 300.069 455.716 300.069C455.716 298.917 455.716 297.846 455.716 296.776C455.716 295.727 455.716 294.677 455.716 293.627C455.737 291.631 457.094 290.211 458.924 290.17C460.836 290.129 462.254 291.528 462.296 293.525C462.337 295.377 462.296 297.229 462.296 299.061C462.296 299.349 462.296 299.616 462.296 299.966C471.055 299.966 479.752 299.966 488.552 299.966C488.552 299.349 488.552 298.773 488.552 298.196C488.552 296.653 488.531 295.109 488.552 293.566C488.593 291.569 489.971 290.17 491.862 290.17C493.733 290.191 495.111 291.631 495.111 293.627C495.152 295.727 495.131 297.826 495.131 300.028Z" fill="white"/>
</g>
<g clip-path="url(#clip3_144_302)">
<path d="M185.47 578.254C184.703 579.688 183.721 579.915 182.356 578.948C179.411 576.879 176.466 574.826 173.536 572.742C172.539 572.032 171.45 571.7 170.207 571.7C163.489 571.715 156.77 571.7 150.067 571.7C145.941 571.7 143.103 568.906 143.103 564.859C143.103 563.922 143.103 562.986 143.103 561.959C143.348 561.959 143.578 561.959 143.793 561.959C149.959 561.959 156.111 561.974 162.277 561.959C166.909 561.944 170.836 559.09 172.079 554.786C172.34 553.88 172.462 552.898 172.478 551.947C172.524 548.836 172.493 545.725 172.493 542.629C172.493 542.433 172.493 542.222 172.493 541.965C173.521 541.965 174.487 541.95 175.453 541.965C176.911 541.98 178.368 541.889 179.81 542.071C182.709 542.448 184.826 544.562 185.363 547.401C185.378 547.507 185.424 547.613 185.47 547.718C185.47 557.912 185.47 568.075 185.47 578.254Z" fill="white"/>
<path d="M150.021 528.811C155.62 528.811 161.234 528.811 166.833 528.811C168.459 528.811 169.042 529.385 169.042 530.971C169.042 537.963 169.042 544.94 169.042 551.932C169.042 555.088 166.955 557.67 163.842 558.38C163.259 558.516 162.63 558.561 162.016 558.561C155.298 558.576 148.579 558.576 141.876 558.561C140.664 558.561 139.59 558.893 138.608 559.588C135.602 561.732 132.58 563.847 129.558 565.961C128.392 566.776 126.981 566.308 126.72 565.025C126.674 564.813 126.69 564.571 126.69 564.345C126.674 554.786 126.674 545.211 126.674 535.652C126.674 531.635 129.497 528.826 133.592 528.826C139.069 528.796 144.545 528.811 150.021 528.811ZM149.008 541.436C150.481 541.436 151.954 541.436 153.426 541.436C155.267 541.436 157.092 541.451 158.933 541.436C160.022 541.421 160.774 540.575 160.651 539.548C160.544 538.627 159.792 538.053 158.688 538.053C153.411 538.053 148.134 538.053 142.857 538.053C141.63 538.053 140.403 538.053 139.191 538.053C138.47 538.053 137.887 538.325 137.535 538.975C136.906 540.137 137.749 541.421 139.145 541.436C142.443 541.436 145.726 541.421 149.008 541.436ZM149.008 549.334C150.358 549.334 151.723 549.334 153.073 549.334C155.006 549.334 156.939 549.349 158.872 549.334C160.007 549.319 160.774 548.504 160.666 547.446C160.574 546.525 159.807 545.936 158.703 545.936C153.687 545.936 148.686 545.936 143.67 545.936C142.198 545.936 140.725 545.936 139.253 545.936C138.501 545.936 137.903 546.193 137.535 546.858C136.906 548.02 137.734 549.319 139.13 549.319C142.428 549.349 145.726 549.334 149.008 549.334Z" fill="white"/>
</g>
<path d="M413.768 102V83.8H421.074C422.963 83.8 424.402 84.242 425.39 85.126C426.395 85.9927 426.898 87.1107 426.898 88.48C426.898 89.624 426.586 90.5427 425.962 91.236C425.355 91.912 424.61 92.3713 423.726 92.614C424.766 92.822 425.624 93.342 426.3 94.174C426.976 94.9887 427.314 95.942 427.314 97.034C427.314 98.4727 426.794 99.66 425.754 100.596C424.714 101.532 423.241 102 421.334 102H413.768ZM417.096 91.444H420.58C421.516 91.444 422.235 91.2273 422.738 90.794C423.241 90.3607 423.492 89.7453 423.492 88.948C423.492 88.1853 423.241 87.5873 422.738 87.154C422.253 86.7033 421.516 86.478 420.528 86.478H417.096V91.444ZM417.096 99.296H420.814C421.802 99.296 422.565 99.0707 423.102 98.62C423.657 98.152 423.934 97.502 423.934 96.67C423.934 95.8207 423.648 95.1533 423.076 94.668C422.504 94.1827 421.733 93.94 420.762 93.94H417.096V99.296ZM429.728 102V99.582C430.838 98.6633 431.912 97.7533 432.952 96.852C434.01 95.9507 434.946 95.058 435.76 94.174C436.592 93.29 437.251 92.432 437.736 91.6C438.239 90.7507 438.49 89.9273 438.49 89.13C438.49 88.3847 438.282 87.726 437.866 87.154C437.468 86.582 436.8 86.296 435.864 86.296C434.911 86.296 434.192 86.608 433.706 87.232C433.221 87.856 432.978 88.61 432.978 89.494H429.754C429.789 88.1593 430.084 87.05 430.638 86.166C431.193 85.2647 431.93 84.5973 432.848 84.164C433.767 83.7133 434.798 83.488 435.942 83.488C437.797 83.488 439.236 83.9993 440.258 85.022C441.298 86.0273 441.818 87.336 441.818 88.948C441.818 89.9533 441.584 90.9327 441.116 91.886C440.666 92.8393 440.068 93.758 439.322 94.642C438.577 95.526 437.771 96.358 436.904 97.138C436.038 97.9007 435.197 98.6113 434.382 99.27H442.26V102H429.728ZM445.024 102V83.8H452.33C454.219 83.8 455.658 84.242 456.646 85.126C457.651 85.9927 458.154 87.1107 458.154 88.48C458.154 89.624 457.842 90.5427 457.218 91.236C456.611 91.912 455.866 92.3713 454.982 92.614C456.022 92.822 456.88 93.342 457.556 94.174C458.232 94.9887 458.57 95.942 458.57 97.034C458.57 98.4727 458.05 99.66 457.01 100.596C455.97 101.532 454.497 102 452.59 102H445.024ZM448.352 91.444H451.836C452.772 91.444 453.491 91.2273 453.994 90.794C454.497 90.3607 454.748 89.7453 454.748 88.948C454.748 88.1853 454.497 87.5873 453.994 87.154C453.509 86.7033 452.772 86.478 451.784 86.478H448.352V91.444ZM448.352 99.296H452.07C453.058 99.296 453.821 99.0707 454.358 98.62C454.913 98.152 455.19 97.502 455.19 96.67C455.19 95.8207 454.904 95.1533 454.332 94.668C453.76 94.1827 452.989 93.94 452.018 93.94H448.352V99.296Z" fill="white"/>
<g clip-path="url(#clip4_144_302)">
<path d="M698.492 606.544C697.941 607.73 696.995 608.109 695.723 608.074C693.28 608.005 690.821 608.057 688.379 608.057C686.814 608.057 686.005 607.266 686.005 605.701C686.005 605.134 686.005 604.567 686.005 603.965C683.219 603.965 680.519 603.965 677.664 603.965C677.939 604.171 678.129 604.309 678.318 604.446C684.733 608.917 688.534 615.055 689.686 622.775C689.892 624.168 690.167 625.131 691.578 625.887C693.728 627.057 694.639 629.842 694.072 632.232C693.487 634.674 691.423 636.599 689.067 636.909C686.349 637.27 683.924 636.118 682.686 633.848C680.949 630.65 682.101 626.953 685.404 625.303C685.747 625.131 685.851 624.959 685.799 624.563C685.094 618.098 682.256 612.82 677.165 608.762C674.809 606.888 672.144 605.598 669.254 604.79C668.893 604.687 668.738 604.79 668.549 605.082C666.004 609.003 660.672 609.003 658.144 605.1C657.938 604.773 657.748 604.687 657.37 604.807C648.582 607.524 643.216 613.387 641.221 622.328C641.066 623.033 641.032 623.773 640.877 624.495C640.791 624.925 640.911 625.131 641.307 625.337C643.525 626.455 644.747 628.295 644.764 630.753C644.781 633.212 643.646 635.103 641.462 636.29C638.4 637.958 634.599 636.651 633 633.401C631.555 630.461 632.931 626.644 636.01 625.303C636.612 625.045 636.749 624.684 636.801 624.134C637.472 617.393 640.223 611.668 645.125 607.008C646.277 605.908 647.584 604.979 648.823 603.965C646.157 603.965 643.457 603.965 640.67 603.965C640.67 604.601 640.688 605.237 640.67 605.873C640.636 607.18 639.811 608.023 638.503 608.04C635.786 608.057 633.052 608.057 630.334 608.04C629.027 608.04 628.184 607.18 628.167 605.891C628.167 603.208 628.167 600.526 628.184 597.861C628.184 596.554 629.044 595.712 630.351 595.694C633.069 595.677 635.786 595.677 638.503 595.694C639.811 595.694 640.636 596.554 640.67 597.861C640.688 598.48 640.67 599.099 640.67 599.821C640.946 599.821 641.186 599.821 641.427 599.821C646.552 599.821 651.677 599.821 656.803 599.838C657.319 599.838 657.594 599.718 657.834 599.219C658.952 596.967 660.81 595.746 663.304 595.746C665.832 595.729 667.706 596.967 668.841 599.236C669.065 599.683 669.289 599.855 669.805 599.855C674.947 599.804 680.106 599.804 685.249 599.804C685.472 599.804 685.696 599.804 685.988 599.804C685.988 599.133 685.988 598.514 685.988 597.912C686.005 596.537 686.831 595.694 688.224 595.694C690.873 595.677 693.504 595.712 696.135 595.677C697.305 595.66 698.01 596.227 698.492 597.207C698.492 600.32 698.492 603.432 698.492 606.544Z" fill="white"/>
<path d="M650.835 666.001C650.68 665.915 650.508 665.83 650.353 665.761C649.39 665.245 649.029 664.282 649.39 663.268C650.611 659.898 653.604 657.697 657.147 657.645C661.257 657.593 665.385 657.593 669.495 657.645C673.038 657.697 676.03 659.898 677.251 663.268C677.681 664.437 677.251 665.262 675.807 666.019C667.5 666.001 659.159 666.001 650.835 666.001Z" fill="white"/>
<path d="M665.539 613.955C667.964 617.583 670.389 621.228 672.797 624.856C675.618 629.103 678.455 633.332 681.276 637.579C682.119 638.835 682.067 639.677 681.018 640.778C677.509 644.474 675.256 648.807 674.259 653.794C674.225 653.966 674.156 654.137 674.087 654.378C673.726 654.258 673.382 654.103 673.038 654.051C671.748 653.845 670.475 653.553 669.185 653.518C665.385 653.45 661.584 653.501 657.783 653.484C656.115 653.484 654.498 653.673 652.933 654.258C652.813 654.309 652.675 654.309 652.606 654.327C652.107 652.71 651.677 651.094 651.127 649.529C649.992 646.4 648.255 643.615 645.985 641.173C645.864 641.035 645.727 640.915 645.606 640.778C644.592 639.66 644.523 638.835 645.366 637.579C648.771 632.473 652.159 627.383 655.564 622.277C657.422 619.508 659.262 616.723 661.205 613.834C661.24 614.109 661.274 614.281 661.274 614.436C661.274 620.523 661.274 626.61 661.291 632.696C661.291 633.109 661.188 633.332 660.775 633.522C658.161 634.725 656.837 637.287 657.284 640.227C657.663 642.652 659.898 644.835 662.358 645.162C665.281 645.54 667.844 644.148 669.013 641.534C670.338 638.56 669.013 634.966 666.038 633.59C665.539 633.367 665.402 633.092 665.402 632.559C665.419 626.592 665.419 620.609 665.419 614.642C665.419 614.419 665.419 614.195 665.419 613.989C665.436 613.972 665.488 613.972 665.539 613.955Z" fill="white"/>
<path d="M665.385 639.093C665.385 640.21 664.439 641.139 663.321 641.139C662.203 641.139 661.274 640.193 661.274 639.075C661.274 637.958 662.22 637.029 663.338 637.029C664.456 637.029 665.385 637.975 665.385 639.093Z" fill="white"/>
</g>
<path d="M773.45 202.553V200.32C777.724 199.743 777.909 199.044 776.968 196.325C776.227 194.137 775.055 191.054 773.913 187.879H760.366C759.502 190.249 758.545 192.77 757.774 195.049C756.339 199.257 757.712 199.773 763.081 200.305V202.538H746.911V200.305C751.139 199.773 752.204 199.226 754.503 193.545L768.42 159.276L771.259 158.744C775.518 170.152 780.1 182.152 784.405 193.302C786.766 199.302 787.367 199.788 791.873 200.305V202.538H773.45V202.553ZM767.278 169.742C765.257 174.816 763.251 179.783 761.461 184.75H772.771L767.278 169.742Z" fill="white"/>
<circle cx="490.645" cy="91.9305" r="8.30888" fill="black"/>
<circle cx="490.645" cy="91.9305" r="5.19305" fill="#F8F8F2"/>
<circle cx="476.104" cy="411.822" r="8.30888" fill="black"/>
<circle cx="476.104" cy="411.822" r="5.19305" fill="#F8F8F2"/>
<circle cx="716.023" cy="180.212" r="8.30888" fill="black"/>
<circle cx="716.023" cy="180.212" r="5.19305" fill="#F8F8F2"/>
<circle cx="665.131" cy="554.112" r="8.30888" fill="black"/>
<circle cx="665.131" cy="554.112" r="5.19305" fill="#F8F8F2"/>
<circle cx="368.089" cy="609.158" r="8.30888" fill="black"/>
<circle cx="368.089" cy="609.158" r="5.19305" fill="#F8F8F2"/>
<circle cx="250.726" cy="729.637" r="8.30888" fill="black"/>
<circle cx="250.726" cy="729.637" r="5.19305" fill="#F8F8F2"/>
<circle cx="157.251" cy="609.158" r="8.30888" fill="black"/>
<circle cx="157.251" cy="609.158" r="5.19305" fill="#F8F8F2"/>
<path d="M472.863 218.095L474.079 209.071L466.911 214.703L463.839 209.263L472.223 205.935L463.903 202.735L466.783 197.551L474.143 203.119L472.863 193.967H478.815L477.535 203.119L484.831 197.551L487.647 202.671L479.327 205.999L487.711 209.327L484.703 214.639L477.535 209.071L478.751 218.095H472.863Z" fill="#ED4C24"/>
<path d="M290.193 207.495C290.43 207.814 290.639 208.153 290.895 208.444C294.329 212.241 297.782 216.029 301.216 219.825C301.596 220.239 302.013 220.436 302.582 220.436C304.84 220.427 307.098 220.436 309.365 220.427C310.133 220.427 310.607 220.107 310.759 219.487C310.873 219.008 310.674 218.622 310.361 218.275C308.483 216.217 306.604 214.149 304.735 212.081C303.369 210.578 301.994 209.064 300.628 207.561C300.533 207.457 300.438 207.354 300.324 207.222C300.419 207.11 300.505 207.006 300.599 206.903C303.844 203.322 307.098 199.741 310.351 196.151C310.939 195.503 310.949 194.732 310.323 194.29C310.076 194.121 309.735 194.018 309.441 194.018C307.107 193.99 304.773 193.999 302.44 193.999C301.984 193.999 301.624 194.168 301.32 194.507C297.754 198.435 294.177 202.363 290.62 206.301C290.449 206.489 290.335 206.724 290.203 206.94C290.193 207.119 290.193 207.307 290.193 207.495Z" fill="#ED4C24"/>
<path d="M316.071 207.213C316.878 206.32 317.675 205.446 318.462 204.581C321.014 201.762 323.575 198.952 326.127 196.132C326.791 195.399 326.63 194.431 325.776 194.112C325.577 194.037 325.34 194.008 325.121 194.008C322.835 193.999 320.558 194.008 318.272 193.999C317.76 193.999 317.371 194.178 317.03 194.553C313.491 198.463 309.943 202.363 306.395 206.264C305.798 206.922 305.798 207.514 306.386 208.162C309.943 212.072 313.491 215.982 317.039 219.901C317.362 220.258 317.741 220.436 318.225 220.436C320.53 220.436 322.835 220.436 325.15 220.436C325.89 220.436 326.345 220.117 326.506 219.496C326.63 219.027 326.44 218.651 326.136 218.312C324.448 216.461 322.769 214.6 321.08 212.749C319.496 211.01 317.912 209.262 316.328 207.523C316.252 207.42 316.176 207.335 316.071 207.213Z" fill="#ED4C24"/>
<path d="M155.934 682.639C156.827 683.445 157.701 684.242 158.566 685.029C161.385 687.581 164.195 690.143 167.015 692.694C167.748 693.358 168.716 693.197 169.035 692.343C169.11 692.144 169.139 691.907 169.139 691.689C169.148 689.403 169.139 687.126 169.148 684.84C169.148 684.327 168.969 683.938 168.593 683.597C164.684 680.059 160.783 676.511 156.883 672.963C156.225 672.365 155.633 672.365 154.985 672.953C151.075 676.511 147.165 680.059 143.246 683.606C142.889 683.929 142.711 684.308 142.711 684.792C142.711 687.097 142.711 689.403 142.711 691.717C142.711 692.457 143.03 692.912 143.65 693.074C144.12 693.197 144.496 693.007 144.835 692.704C146.686 691.015 148.547 689.336 150.398 687.648C152.137 686.063 153.885 684.479 155.624 682.895C155.727 682.819 155.812 682.743 155.934 682.639Z" fill="#ED4C24"/>
<rect x="476.104" y="460.637" width="29.3764" height="29.3764" transform="rotate(45 476.104 460.637)" fill="#ED4C24"/>
<circle cx="664.093" cy="481.409" r="12.4633" fill="#ED4C24"/>
<g filter="url(#filter7_d_144_302)">
<rect x="16" y="147" width="230.571" height="311.39" rx="10" fill="white"/>
</g>
<rect x="67" y="341.591" width="129" height="58" rx="5" fill="#FF6854"/>
<path d="M98.278 375.521V362.921H106.288V364.469H100.186V368.393H105.748V369.905H100.186V373.973H106.288V375.521H98.278ZM107.625 375.521L110.793 371.057L107.625 366.593H109.659L112.053 370.013L114.429 366.593H116.481L113.313 371.057L116.481 375.521H114.429L112.053 372.101L109.659 375.521H107.625ZM118.034 379.481V366.593H119.744L119.942 367.979C120.23 367.559 120.626 367.187 121.13 366.863C121.634 366.539 122.282 366.377 123.074 366.377C123.938 366.377 124.7 366.581 125.36 366.989C126.02 367.397 126.536 367.955 126.908 368.663C127.292 369.371 127.484 370.175 127.484 371.075C127.484 371.975 127.292 372.779 126.908 373.487C126.536 374.183 126.02 374.735 125.36 375.143C124.7 375.539 123.932 375.737 123.056 375.737C122.36 375.737 121.742 375.599 121.202 375.323C120.674 375.047 120.254 374.657 119.942 374.153V379.481H118.034ZM122.732 374.081C123.548 374.081 124.22 373.805 124.748 373.253C125.276 372.689 125.54 371.957 125.54 371.057C125.54 370.469 125.42 369.947 125.18 369.491C124.94 369.035 124.61 368.681 124.19 368.429C123.77 368.165 123.284 368.033 122.732 368.033C121.916 368.033 121.244 368.315 120.716 368.879C120.2 369.443 119.942 370.169 119.942 371.057C119.942 371.957 120.2 372.689 120.716 373.253C121.244 373.805 121.916 374.081 122.732 374.081ZM129.548 375.521V362.561H131.456V375.521H129.548ZM138.048 375.737C137.196 375.737 136.428 375.545 135.744 375.161C135.072 374.765 134.538 374.219 134.142 373.523C133.746 372.815 133.548 371.993 133.548 371.057C133.548 370.121 133.746 369.305 134.142 368.609C134.55 367.901 135.096 367.355 135.78 366.971C136.464 366.575 137.226 366.377 138.066 366.377C138.918 366.377 139.68 366.575 140.352 366.971C141.036 367.355 141.576 367.901 141.972 368.609C142.38 369.305 142.584 370.121 142.584 371.057C142.584 371.993 142.38 372.815 141.972 373.523C141.576 374.219 141.036 374.765 140.352 375.161C139.668 375.545 138.9 375.737 138.048 375.737ZM138.048 374.099C138.504 374.099 138.924 373.985 139.308 373.757C139.704 373.529 140.022 373.193 140.262 372.749C140.502 372.293 140.622 371.729 140.622 371.057C140.622 370.385 140.502 369.827 140.262 369.383C140.034 368.927 139.722 368.585 139.326 368.357C138.942 368.129 138.522 368.015 138.066 368.015C137.61 368.015 137.184 368.129 136.788 368.357C136.404 368.585 136.092 368.927 135.852 369.383C135.612 369.827 135.492 370.385 135.492 371.057C135.492 371.729 135.612 372.293 135.852 372.749C136.092 373.193 136.404 373.529 136.788 373.757C137.172 373.985 137.592 374.099 138.048 374.099ZM144.647 375.521V366.593H146.357L146.519 368.285C146.831 367.697 147.263 367.235 147.815 366.899C148.379 366.551 149.057 366.377 149.849 366.377V368.375H149.327C148.799 368.375 148.325 368.465 147.905 368.645C147.497 368.813 147.167 369.107 146.915 369.527C146.675 369.935 146.555 370.505 146.555 371.237V375.521H144.647ZM155.415 375.737C154.539 375.737 153.759 375.545 153.075 375.161C152.403 374.765 151.875 374.219 151.491 373.523C151.107 372.827 150.915 372.017 150.915 371.093C150.915 370.157 151.101 369.335 151.473 368.627C151.857 367.919 152.385 367.367 153.057 366.971C153.741 366.575 154.533 366.377 155.433 366.377C156.309 366.377 157.071 366.575 157.719 366.971C158.367 367.355 158.871 367.871 159.231 368.519C159.591 369.167 159.771 369.881 159.771 370.661C159.771 370.781 159.765 370.913 159.753 371.057C159.753 371.189 159.747 371.339 159.735 371.507H152.787C152.847 372.371 153.129 373.031 153.633 373.487C154.149 373.931 154.743 374.153 155.415 374.153C155.955 374.153 156.405 374.033 156.765 373.793C157.137 373.541 157.413 373.205 157.593 372.785H159.501C159.261 373.625 158.781 374.327 158.061 374.891C157.353 375.455 156.471 375.737 155.415 375.737ZM155.415 367.943C154.779 367.943 154.215 368.135 153.723 368.519C153.231 368.891 152.931 369.455 152.823 370.211H157.863C157.827 369.515 157.581 368.963 157.125 368.555C156.669 368.147 156.099 367.943 155.415 367.943Z" fill="white"/>
<path d="M68.704 281.93V265.13H71.248V279.914H78.88V281.93H68.704ZM86.5744 282.218C85.4384 282.218 84.4144 281.962 83.5024 281.45C82.6064 280.922 81.8944 280.194 81.3664 279.266C80.8384 278.322 80.5744 277.226 80.5744 275.978C80.5744 274.73 80.8384 273.642 81.3664 272.714C81.9104 271.77 82.6384 271.042 83.5504 270.53C84.4624 270.002 85.4784 269.738 86.5984 269.738C87.7344 269.738 88.7504 270.002 89.6464 270.53C90.5584 271.042 91.2784 271.77 91.8064 272.714C92.3504 273.642 92.6224 274.73 92.6224 275.978C92.6224 277.226 92.3504 278.322 91.8064 279.266C91.2784 280.194 90.5584 280.922 89.6464 281.45C88.7344 281.962 87.7104 282.218 86.5744 282.218ZM86.5744 280.034C87.1824 280.034 87.7424 279.882 88.2544 279.578C88.7824 279.274 89.2064 278.826 89.5264 278.234C89.8464 277.626 90.0064 276.874 90.0064 275.978C90.0064 275.082 89.8464 274.338 89.5264 273.746C89.2224 273.138 88.8064 272.682 88.2784 272.378C87.7664 272.074 87.2064 271.922 86.5984 271.922C85.9904 271.922 85.4224 272.074 84.8944 272.378C84.3824 272.682 83.9664 273.138 83.6464 273.746C83.3264 274.338 83.1664 275.082 83.1664 275.978C83.1664 276.874 83.3264 277.626 83.6464 278.234C83.9664 278.826 84.3824 279.274 84.8944 279.578C85.4064 279.882 85.9664 280.034 86.5744 280.034ZM95.3736 281.93V270.026H97.6536L97.8696 272.282C98.2856 271.498 98.8616 270.882 99.5976 270.434C100.35 269.97 101.254 269.738 102.31 269.738V272.402H101.614C100.91 272.402 100.278 272.522 99.7176 272.762C99.1736 272.986 98.7336 273.378 98.3976 273.938C98.0776 274.482 97.9176 275.242 97.9176 276.218V281.93H95.3736ZM109.731 282.218C108.563 282.218 107.523 281.962 106.611 281.45C105.715 280.922 105.011 280.194 104.499 279.266C103.987 278.338 103.731 277.258 103.731 276.026C103.731 274.778 103.979 273.682 104.475 272.738C104.987 271.794 105.691 271.058 106.587 270.53C107.499 270.002 108.555 269.738 109.755 269.738C110.923 269.738 111.939 270.002 112.803 270.53C113.667 271.042 114.339 271.73 114.819 272.594C115.299 273.458 115.539 274.41 115.539 275.45C115.539 275.61 115.531 275.786 115.515 275.978C115.515 276.154 115.507 276.354 115.491 276.578H106.227C106.307 277.73 106.683 278.61 107.355 279.218C108.043 279.81 108.835 280.106 109.731 280.106C110.451 280.106 111.051 279.946 111.531 279.626C112.027 279.29 112.395 278.842 112.635 278.282H115.179C114.859 279.402 114.219 280.338 113.259 281.09C112.315 281.842 111.139 282.218 109.731 282.218ZM109.731 271.826C108.883 271.826 108.131 272.082 107.475 272.594C106.819 273.09 106.419 273.842 106.275 274.85H112.995C112.947 273.922 112.619 273.186 112.011 272.642C111.403 272.098 110.643 271.826 109.731 271.826ZM118.178 281.93V270.026H120.434L120.65 271.706C121.034 271.098 121.538 270.618 122.162 270.266C122.802 269.914 123.538 269.738 124.37 269.738C126.258 269.738 127.57 270.482 128.306 271.97C128.738 271.282 129.314 270.738 130.034 270.338C130.77 269.938 131.562 269.738 132.41 269.738C133.898 269.738 135.066 270.186 135.914 271.082C136.762 271.978 137.186 273.314 137.186 275.09V281.93H134.642V275.354C134.642 273.05 133.762 271.898 132.002 271.898C131.106 271.898 130.37 272.234 129.794 272.906C129.234 273.578 128.954 274.538 128.954 275.786V281.93H126.41V275.354C126.41 273.05 125.522 271.898 123.746 271.898C122.866 271.898 122.138 272.234 121.562 272.906C121.002 273.578 120.722 274.538 120.722 275.786V281.93H118.178ZM68.704 312.93V296.13H71.248V312.93H68.704ZM74.5611 318.21V301.026H76.8411L77.1051 302.874C77.4891 302.314 78.0171 301.818 78.6891 301.386C79.3611 300.954 80.2251 300.738 81.2811 300.738C82.4331 300.738 83.4491 301.01 84.3291 301.554C85.2091 302.098 85.8971 302.842 86.3931 303.786C86.9051 304.73 87.1611 305.802 87.1611 307.002C87.1611 308.202 86.9051 309.274 86.3931 310.218C85.8971 311.146 85.2091 311.882 84.3291 312.426C83.4491 312.954 82.4251 313.218 81.2571 313.218C80.3291 313.218 79.5051 313.034 78.7851 312.666C78.0811 312.298 77.5211 311.778 77.1051 311.106V318.21H74.5611ZM80.8251 311.01C81.9131 311.01 82.8091 310.642 83.5131 309.906C84.2171 309.154 84.5691 308.178 84.5691 306.978C84.5691 306.194 84.4091 305.498 84.0891 304.89C83.7691 304.282 83.3291 303.81 82.7691 303.474C82.2091 303.122 81.5611 302.946 80.8251 302.946C79.7371 302.946 78.8411 303.322 78.1371 304.074C77.4491 304.826 77.1051 305.794 77.1051 306.978C77.1051 308.178 77.4491 309.154 78.1371 309.906C78.8411 310.642 79.7371 311.01 80.8251 311.01ZM94.6647 313.218C93.1607 313.218 91.9207 312.85 90.9447 312.114C89.9687 311.378 89.4087 310.402 89.2647 309.186H91.8327C91.9607 309.73 92.2647 310.202 92.7447 310.602C93.2247 310.986 93.8567 311.178 94.6407 311.178C95.4087 311.178 95.9687 311.018 96.3207 310.698C96.6727 310.378 96.8487 310.01 96.8487 309.594C96.8487 308.986 96.6007 308.578 96.1047 308.37C95.6247 308.146 94.9527 307.946 94.0887 307.77C93.4167 307.626 92.7447 307.434 92.0727 307.194C91.4167 306.954 90.8647 306.618 90.4167 306.186C89.9847 305.738 89.7687 305.138 89.7687 304.386C89.7687 303.346 90.1687 302.482 90.9687 301.794C91.7687 301.09 92.8887 300.738 94.3287 300.738C95.6567 300.738 96.7287 301.058 97.5447 301.698C98.3767 302.338 98.8647 303.242 99.0087 304.41H96.5607C96.4807 303.898 96.2407 303.498 95.8407 303.21C95.4567 302.922 94.9367 302.778 94.2807 302.778C93.6407 302.778 93.1447 302.914 92.7927 303.186C92.4407 303.442 92.2647 303.778 92.2647 304.194C92.2647 304.61 92.5047 304.938 92.9847 305.178C93.4807 305.418 94.1287 305.634 94.9287 305.826C95.7287 306.002 96.4647 306.21 97.1367 306.45C97.8247 306.674 98.3767 307.01 98.7927 307.458C99.2087 307.906 99.4167 308.562 99.4167 309.426C99.4327 310.514 99.0087 311.418 98.1447 312.138C97.2967 312.858 96.1367 313.218 94.6647 313.218ZM106.226 313.218C105.218 313.218 104.386 313.05 103.73 312.714C103.074 312.378 102.586 311.938 102.266 311.394C101.946 310.834 101.786 310.226 101.786 309.57C101.786 308.418 102.234 307.506 103.13 306.834C104.026 306.162 105.306 305.826 106.97 305.826H110.09V305.61C110.09 304.682 109.834 303.986 109.322 303.522C108.826 303.058 108.178 302.826 107.378 302.826C106.674 302.826 106.058 303.002 105.53 303.354C105.018 303.69 104.706 304.194 104.594 304.866H102.05C102.13 304.002 102.418 303.266 102.914 302.658C103.426 302.034 104.066 301.562 104.834 301.242C105.618 300.906 106.474 300.738 107.402 300.738C109.066 300.738 110.354 301.178 111.266 302.058C112.178 302.922 112.634 304.106 112.634 305.61V312.93H110.426L110.21 310.89C109.874 311.546 109.386 312.098 108.746 312.546C108.106 312.994 107.266 313.218 106.226 313.218ZM106.73 311.154C107.418 311.154 107.994 310.994 108.458 310.674C108.938 310.338 109.306 309.898 109.562 309.354C109.834 308.81 110.002 308.21 110.066 307.554H107.234C106.226 307.554 105.506 307.73 105.074 308.082C104.658 308.434 104.45 308.874 104.45 309.402C104.45 309.946 104.65 310.378 105.05 310.698C105.466 311.002 106.026 311.154 106.73 311.154ZM115.6 312.93V301.026H117.856L118.072 302.706C118.456 302.098 118.96 301.618 119.584 301.266C120.224 300.914 120.96 300.738 121.792 300.738C123.68 300.738 124.992 301.482 125.728 302.97C126.16 302.282 126.736 301.738 127.456 301.338C128.192 300.938 128.984 300.738 129.832 300.738C131.32 300.738 132.488 301.186 133.336 302.082C134.184 302.978 134.608 304.314 134.608 306.09V312.93H132.064V306.354C132.064 304.05 131.184 302.898 129.424 302.898C128.528 302.898 127.792 303.234 127.216 303.906C126.656 304.578 126.376 305.538 126.376 306.786V312.93H123.832V306.354C123.832 304.05 122.944 302.898 121.168 302.898C120.288 302.898 119.56 303.234 118.984 303.906C118.424 304.578 118.144 305.538 118.144 306.786V312.93H115.6Z" fill="black"/>
<g clip-path="url(#clip5_144_302)">
<path d="M109.583 222.998C109.583 227.688 109.583 232.377 109.583 237.077C109.561 237.143 109.528 237.199 109.516 237.265C109.017 239.753 107.128 241.313 104.584 241.313C93.7298 241.313 82.8868 241.313 72.0328 241.313C69.1109 241.313 67.0112 239.211 67.0112 236.292C67.0112 232.012 67.0112 227.743 67.0112 223.463C67.0112 223.319 67.0112 223.175 67.0112 222.998C67.1668 223.043 67.2779 223.065 67.3778 223.109C73.7992 225.232 80.2205 227.356 86.6307 229.501C87.775 229.888 88.8527 229.888 89.9969 229.501C96.5183 227.312 103.051 225.155 109.583 222.998Z" fill="black"/>
<path d="M109.583 220.179C107.039 221.03 104.495 221.882 101.951 222.733C97.6625 224.16 93.3631 225.576 89.0748 227.013C88.5304 227.19 88.0416 227.19 87.5084 227.002C80.8315 224.768 74.1547 222.556 67.4667 220.356C67.089 220.234 66.989 220.068 67.0001 219.692C67.0223 218.553 67.0112 217.403 67.0112 216.253C67.0223 213.421 69.122 211.309 71.9772 211.298C74.8768 211.287 77.7653 211.298 80.6649 211.298C80.8315 211.298 80.987 211.298 81.2203 211.298C81.2203 210.657 81.2092 210.048 81.2203 209.451C81.2648 207.77 82.398 206.421 84.0422 206.078C84.2977 206.023 84.5643 206.012 84.831 206.012C87.1417 206.012 89.4637 206.001 91.7744 206.012C93.5742 206.023 94.9629 207.14 95.3184 208.843C95.3851 209.141 95.3851 209.44 95.3851 209.75C95.3962 210.247 95.3851 210.745 95.3851 211.309C95.5739 211.309 95.7295 211.309 95.8961 211.309C98.7402 211.309 101.584 211.364 104.417 211.298C107.261 211.232 109.228 213.267 109.528 215.401C109.539 215.456 109.572 215.501 109.594 215.556C109.583 217.093 109.583 218.63 109.583 220.179ZM84.7643 211.276C87.1529 211.276 89.4748 211.276 91.83 211.276C91.83 210.69 91.83 210.126 91.83 209.562C89.4637 209.562 87.1195 209.562 84.7643 209.562C84.7643 210.148 84.7643 210.69 84.7643 211.276Z" fill="black"/>
</g>
<g filter="url(#filter8_d_144_302)">
<rect x="16" y="147" width="230.571" height="311.39" rx="10" fill="#FF6854"/>
</g>
<path d="M76.248 311.281C75.016 311.281 73.936 311.065 73.008 310.633C72.08 310.201 71.352 309.585 70.824 308.785C70.312 307.985 70.048 307.033 70.032 305.929H72.72C72.736 306.825 73.048 307.585 73.656 308.209C74.264 308.833 75.12 309.145 76.224 309.145C77.2 309.145 77.96 308.913 78.504 308.449C79.064 307.969 79.344 307.361 79.344 306.625C79.344 306.033 79.208 305.553 78.936 305.185C78.68 304.817 78.32 304.513 77.856 304.273C77.408 304.033 76.888 303.817 76.296 303.625C75.704 303.433 75.08 303.225 74.424 303.001C73.128 302.569 72.152 302.009 71.496 301.321C70.856 300.633 70.536 299.729 70.536 298.609C70.52 297.665 70.736 296.841 71.184 296.137C71.648 295.433 72.288 294.889 73.104 294.505C73.936 294.105 74.904 293.905 76.008 293.905C77.096 293.905 78.048 294.105 78.864 294.505C79.696 294.905 80.344 295.465 80.808 296.185C81.272 296.889 81.512 297.713 81.528 298.657H78.84C78.84 298.225 78.728 297.817 78.504 297.433C78.28 297.033 77.952 296.705 77.52 296.449C77.088 296.193 76.56 296.065 75.936 296.065C75.136 296.049 74.472 296.249 73.944 296.665C73.432 297.081 73.176 297.657 73.176 298.393C73.176 299.049 73.368 299.553 73.752 299.905C74.136 300.257 74.664 300.553 75.336 300.793C76.008 301.017 76.776 301.281 77.64 301.585C78.472 301.857 79.216 302.185 79.872 302.569C80.528 302.953 81.048 303.457 81.432 304.081C81.832 304.705 82.032 305.497 82.032 306.457C82.032 307.305 81.816 308.097 81.384 308.833C80.952 309.553 80.304 310.145 79.44 310.609C78.576 311.057 77.512 311.281 76.248 311.281ZM89.7094 310.993C88.5414 310.993 87.6134 310.713 86.9254 310.153C86.2374 309.577 85.8934 308.561 85.8934 307.105V301.225H83.8534V299.089H85.8934L86.2054 296.065H88.4374V299.089H91.7974V301.225H88.4374V307.105C88.4374 307.761 88.5734 308.217 88.8454 308.473C89.1334 308.713 89.6214 308.833 90.3094 308.833H91.6774V310.993H89.7094ZM94.4205 310.993V299.089H96.7005L96.9165 301.345C97.3325 300.561 97.9085 299.945 98.6445 299.497C99.3965 299.033 100.301 298.801 101.357 298.801V301.465H100.661C99.9565 301.465 99.3245 301.585 98.7645 301.825C98.2205 302.049 97.7805 302.441 97.4445 303.001C97.1245 303.545 96.9645 304.305 96.9645 305.281V310.993H94.4205ZM107.57 311.281C106.562 311.281 105.73 311.113 105.074 310.777C104.418 310.441 103.93 310.001 103.61 309.457C103.29 308.897 103.13 308.289 103.13 307.633C103.13 306.481 103.578 305.569 104.474 304.897C105.37 304.225 106.65 303.889 108.314 303.889H111.434V303.673C111.434 302.745 111.178 302.049 110.666 301.585C110.17 301.121 109.522 300.889 108.722 300.889C108.018 300.889 107.402 301.065 106.874 301.417C106.362 301.753 106.05 302.257 105.938 302.929H103.394C103.474 302.065 103.762 301.329 104.258 300.721C104.77 300.097 105.41 299.625 106.178 299.305C106.962 298.969 107.818 298.801 108.746 298.801C110.41 298.801 111.698 299.241 112.61 300.121C113.522 300.985 113.978 302.169 113.978 303.673V310.993H111.77L111.554 308.953C111.218 309.609 110.73 310.161 110.09 310.609C109.45 311.057 108.61 311.281 107.57 311.281ZM108.074 309.217C108.762 309.217 109.338 309.057 109.802 308.737C110.282 308.401 110.65 307.961 110.906 307.417C111.178 306.873 111.346 306.273 111.41 305.617H108.578C107.57 305.617 106.85 305.793 106.418 306.145C106.002 306.497 105.794 306.937 105.794 307.465C105.794 308.009 105.994 308.441 106.394 308.761C106.81 309.065 107.37 309.217 108.074 309.217ZM121.702 310.993C120.534 310.993 119.606 310.713 118.918 310.153C118.23 309.577 117.886 308.561 117.886 307.105V301.225H115.846V299.089H117.886L118.198 296.065H120.43V299.089H123.79V301.225H120.43V307.105C120.43 307.761 120.566 308.217 120.838 308.473C121.126 308.713 121.614 308.833 122.302 308.833H123.67V310.993H121.702ZM131.676 311.281C130.508 311.281 129.468 311.025 128.556 310.513C127.66 309.985 126.956 309.257 126.444 308.329C125.932 307.401 125.676 306.321 125.676 305.089C125.676 303.841 125.924 302.745 126.42 301.801C126.932 300.857 127.636 300.121 128.532 299.593C129.444 299.065 130.5 298.801 131.7 298.801C132.868 298.801 133.884 299.065 134.748 299.593C135.612 300.105 136.284 300.793 136.764 301.657C137.244 302.521 137.484 303.473 137.484 304.513C137.484 304.673 137.476 304.849 137.46 305.041C137.46 305.217 137.452 305.417 137.436 305.641H128.172C128.252 306.793 128.628 307.673 129.3 308.281C129.988 308.873 130.78 309.169 131.676 309.169C132.396 309.169 132.996 309.009 133.476 308.689C133.972 308.353 134.34 307.905 134.58 307.345H137.124C136.804 308.465 136.164 309.401 135.204 310.153C134.26 310.905 133.084 311.281 131.676 311.281ZM131.676 300.889C130.828 300.889 130.076 301.145 129.42 301.657C128.764 302.153 128.364 302.905 128.22 303.913H134.94C134.892 302.985 134.564 302.249 133.956 301.705C133.348 301.161 132.588 300.889 131.676 300.889ZM144.832 307.345C144.208 307.345 143.632 307.273 143.104 307.129L142.072 308.137C142.248 308.249 142.464 308.345 142.72 308.425C142.976 308.505 143.336 308.577 143.8 308.641C144.264 308.705 144.896 308.769 145.696 308.833C147.28 308.977 148.424 309.361 149.128 309.985C149.832 310.593 150.184 311.409 150.184 312.433C150.184 313.137 149.992 313.801 149.608 314.425C149.24 315.065 148.656 315.577 147.856 315.961C147.072 316.361 146.064 316.561 144.832 316.561C143.168 316.561 141.816 316.241 140.776 315.601C139.752 314.977 139.24 314.025 139.24 312.745C139.24 312.249 139.368 311.753 139.624 311.257C139.896 310.777 140.32 310.321 140.896 309.889C140.56 309.745 140.264 309.593 140.008 309.433C139.768 309.257 139.552 309.081 139.36 308.905V308.329L141.424 306.217C140.496 305.417 140.032 304.369 140.032 303.073C140.032 302.289 140.216 301.577 140.584 300.937C140.968 300.281 141.52 299.761 142.24 299.377C142.96 298.993 143.824 298.801 144.832 298.801C145.504 298.801 146.128 298.897 146.704 299.089H151.144V300.769L149.032 300.889C149.416 301.545 149.608 302.273 149.608 303.073C149.608 303.873 149.416 304.593 149.032 305.233C148.664 305.873 148.12 306.385 147.4 306.769C146.696 307.153 145.84 307.345 144.832 307.345ZM144.832 305.353C145.568 305.353 146.16 305.161 146.608 304.777C147.072 304.377 147.304 303.817 147.304 303.097C147.304 302.361 147.072 301.801 146.608 301.417C146.16 301.033 145.568 300.841 144.832 300.841C144.08 300.841 143.472 301.033 143.008 301.417C142.56 301.801 142.336 302.361 142.336 303.097C142.336 303.817 142.56 304.377 143.008 304.777C143.472 305.161 144.08 305.353 144.832 305.353ZM141.64 312.505C141.64 313.193 141.944 313.705 142.552 314.041C143.16 314.393 143.92 314.569 144.832 314.569C145.712 314.569 146.424 314.377 146.968 313.993C147.512 313.625 147.784 313.129 147.784 312.505C147.784 312.041 147.6 311.641 147.232 311.305C146.864 310.985 146.168 310.785 145.144 310.705C144.376 310.657 143.696 310.585 143.104 310.489C142.544 310.793 142.16 311.121 141.952 311.473C141.744 311.825 141.64 312.169 141.64 312.505ZM154.805 316.273L157.661 310.009H156.965L152.261 299.089H155.021L158.669 307.897L162.485 299.089H165.173L157.493 316.273H154.805ZM78.192 342.281C76.528 342.281 75.088 341.921 73.872 341.201C72.672 340.465 71.744 339.449 71.088 338.153C70.432 336.841 70.104 335.329 70.104 333.617C70.104 331.889 70.432 330.377 71.088 329.081C71.744 327.769 72.672 326.745 73.872 326.009C75.088 325.273 76.528 324.905 78.192 324.905C80.16 324.905 81.768 325.385 83.016 326.345C84.264 327.305 85.056 328.649 85.392 330.377H82.56C82.336 329.401 81.856 328.625 81.12 328.049C80.384 327.473 79.4 327.185 78.168 327.185C76.488 327.185 75.16 327.761 74.184 328.913C73.208 330.049 72.72 331.617 72.72 333.617C72.72 335.601 73.208 337.161 74.184 338.297C75.16 339.433 76.488 340.001 78.168 340.001C79.4 340.001 80.384 339.729 81.12 339.185C81.856 338.641 82.336 337.897 82.56 336.953H85.392C85.056 338.617 84.264 339.921 83.016 340.865C81.768 341.809 80.16 342.281 78.192 342.281ZM93.6604 342.281C92.5244 342.281 91.5004 342.025 90.5884 341.513C89.6924 340.985 88.9804 340.257 88.4524 339.329C87.9244 338.385 87.6604 337.289 87.6604 336.041C87.6604 334.793 87.9244 333.705 88.4524 332.777C88.9964 331.833 89.7244 331.105 90.6364 330.593C91.5484 330.065 92.5644 329.801 93.6844 329.801C94.8204 329.801 95.8364 330.065 96.7324 330.593C97.6444 331.105 98.3644 331.833 98.8924 332.777C99.4364 333.705 99.7084 334.793 99.7084 336.041C99.7084 337.289 99.4364 338.385 98.8924 339.329C98.3644 340.257 97.6444 340.985 96.7324 341.513C95.8204 342.025 94.7964 342.281 93.6604 342.281ZM93.6604 340.097C94.2684 340.097 94.8284 339.945 95.3404 339.641C95.8684 339.337 96.2924 338.889 96.6124 338.297C96.9324 337.689 97.0924 336.937 97.0924 336.041C97.0924 335.145 96.9324 334.401 96.6124 333.809C96.3084 333.201 95.8924 332.745 95.3644 332.441C94.8524 332.137 94.2924 331.985 93.6844 331.985C93.0764 331.985 92.5084 332.137 91.9804 332.441C91.4684 332.745 91.0524 333.201 90.7324 333.809C90.4124 334.401 90.2524 335.145 90.2524 336.041C90.2524 336.937 90.4124 337.689 90.7324 338.297C91.0524 338.889 91.4684 339.337 91.9804 339.641C92.4924 339.945 93.0524 340.097 93.6604 340.097ZM102.46 341.993V330.089H104.716L104.908 332.177C105.276 331.441 105.812 330.865 106.516 330.449C107.236 330.017 108.06 329.801 108.988 329.801C110.428 329.801 111.556 330.249 112.372 331.145C113.204 332.041 113.62 333.377 113.62 335.153V341.993H111.1V335.417C111.1 333.113 110.156 331.961 108.268 331.961C107.324 331.961 106.54 332.297 105.916 332.969C105.308 333.641 105.004 334.601 105.004 335.849V341.993H102.46ZM121.368 342.281C119.864 342.281 118.624 341.913 117.648 341.177C116.672 340.441 116.112 339.465 115.968 338.249H118.536C118.664 338.793 118.968 339.265 119.448 339.665C119.928 340.049 120.56 340.241 121.344 340.241C122.112 340.241 122.672 340.081 123.024 339.761C123.376 339.441 123.552 339.073 123.552 338.657C123.552 338.049 123.304 337.641 122.808 337.433C122.328 337.209 121.656 337.009 120.792 336.833C120.12 336.689 119.448 336.497 118.776 336.257C118.12 336.017 117.568 335.681 117.12 335.249C116.688 334.801 116.472 334.201 116.472 333.449C116.472 332.409 116.872 331.545 117.672 330.857C118.472 330.153 119.592 329.801 121.032 329.801C122.36 329.801 123.432 330.121 124.248 330.761C125.08 331.401 125.568 332.305 125.712 333.473H123.264C123.184 332.961 122.944 332.561 122.544 332.273C122.16 331.985 121.64 331.841 120.984 331.841C120.344 331.841 119.848 331.977 119.496 332.249C119.144 332.505 118.968 332.841 118.968 333.257C118.968 333.673 119.208 334.001 119.688 334.241C120.184 334.481 120.832 334.697 121.632 334.889C122.432 335.065 123.168 335.273 123.84 335.513C124.528 335.737 125.08 336.073 125.496 336.521C125.912 336.969 126.12 337.625 126.12 338.489C126.136 339.577 125.712 340.481 124.848 341.201C124 341.921 122.84 342.281 121.368 342.281ZM133.289 342.281C131.849 342.281 130.713 341.833 129.881 340.937C129.065 340.041 128.657 338.705 128.657 336.929V330.089H131.201V336.665C131.201 338.969 132.145 340.121 134.033 340.121C134.977 340.121 135.753 339.785 136.361 339.113C136.969 338.441 137.273 337.481 137.273 336.233V330.089H139.817V341.993H137.561L137.369 339.905C137.001 340.641 136.457 341.225 135.737 341.657C135.033 342.073 134.217 342.281 133.289 342.281ZM143.053 341.993V324.713H145.597V341.993H143.053ZM153.811 341.993C152.643 341.993 151.715 341.713 151.027 341.153C150.339 340.577 149.995 339.561 149.995 338.105V332.225H147.955V330.089H149.995L150.307 327.065H152.539V330.089H155.899V332.225H152.539V338.105C152.539 338.761 152.675 339.217 152.947 339.473C153.235 339.713 153.723 339.833 154.411 339.833H155.779V341.993H153.811ZM159.962 327.833C159.482 327.833 159.082 327.689 158.762 327.401C158.458 327.097 158.306 326.721 158.306 326.273C158.306 325.825 158.458 325.457 158.762 325.169C159.082 324.865 159.482 324.713 159.962 324.713C160.442 324.713 160.834 324.865 161.138 325.169C161.458 325.457 161.618 325.825 161.618 326.273C161.618 326.721 161.458 327.097 161.138 327.401C160.834 327.689 160.442 327.833 159.962 327.833ZM158.69 341.993V330.089H161.234V341.993H158.69ZM164.592 341.993V330.089H166.848L167.04 332.177C167.408 331.441 167.944 330.865 168.648 330.449C169.368 330.017 170.192 329.801 171.12 329.801C172.56 329.801 173.688 330.249 174.504 331.145C175.336 332.041 175.752 333.377 175.752 335.153V341.993H173.232V335.417C173.232 333.113 172.288 331.961 170.4 331.961C169.456 331.961 168.672 332.297 168.048 332.969C167.44 333.641 167.136 334.601 167.136 335.849V341.993H164.592ZM183.621 338.345C182.997 338.345 182.421 338.273 181.893 338.129L180.861 339.137C181.037 339.249 181.253 339.345 181.509 339.425C181.765 339.505 182.125 339.577 182.589 339.641C183.053 339.705 183.685 339.769 184.485 339.833C186.069 339.977 187.213 340.361 187.917 340.985C188.621 341.593 188.973 342.409 188.973 343.433C188.973 344.137 188.781 344.801 188.397 345.425C188.029 346.065 187.445 346.577 186.645 346.961C185.861 347.361 184.853 347.561 183.621 347.561C181.957 347.561 180.605 347.241 179.565 346.601C178.541 345.977 178.029 345.025 178.029 343.745C178.029 343.249 178.157 342.753 178.413 342.257C178.685 341.777 179.109 341.321 179.685 340.889C179.349 340.745 179.053 340.593 178.797 340.433C178.557 340.257 178.341 340.081 178.149 339.905V339.329L180.213 337.217C179.285 336.417 178.821 335.369 178.821 334.073C178.821 333.289 179.005 332.577 179.373 331.937C179.757 331.281 180.309 330.761 181.029 330.377C181.749 329.993 182.613 329.801 183.621 329.801C184.293 329.801 184.917 329.897 185.493 330.089H189.933V331.769L187.821 331.889C188.205 332.545 188.397 333.273 188.397 334.073C188.397 334.873 188.205 335.593 187.821 336.233C187.453 336.873 186.909 337.385 186.189 337.769C185.485 338.153 184.629 338.345 183.621 338.345ZM183.621 336.353C184.357 336.353 184.949 336.161 185.397 335.777C185.861 335.377 186.093 334.817 186.093 334.097C186.093 333.361 185.861 332.801 185.397 332.417C184.949 332.033 184.357 331.841 183.621 331.841C182.869 331.841 182.261 332.033 181.797 332.417C181.349 332.801 181.125 333.361 181.125 334.097C181.125 334.817 181.349 335.377 181.797 335.777C182.261 336.161 182.869 336.353 183.621 336.353ZM180.429 343.505C180.429 344.193 180.733 344.705 181.341 345.041C181.949 345.393 182.709 345.569 183.621 345.569C184.501 345.569 185.213 345.377 185.757 344.993C186.301 344.625 186.573 344.129 186.573 343.505C186.573 343.041 186.389 342.641 186.021 342.305C185.653 341.985 184.957 341.785 183.933 341.705C183.165 341.657 182.485 341.585 181.893 341.489C181.333 341.793 180.949 342.121 180.741 342.473C180.533 342.825 180.429 343.169 180.429 343.505ZM76.248 373.281C75.016 373.281 73.936 373.065 73.008 372.633C72.08 372.201 71.352 371.585 70.824 370.785C70.312 369.985 70.048 369.033 70.032 367.929H72.72C72.736 368.825 73.048 369.585 73.656 370.209C74.264 370.833 75.12 371.145 76.224 371.145C77.2 371.145 77.96 370.913 78.504 370.449C79.064 369.969 79.344 369.361 79.344 368.625C79.344 368.033 79.208 367.553 78.936 367.185C78.68 366.817 78.32 366.513 77.856 366.273C77.408 366.033 76.888 365.817 76.296 365.625C75.704 365.433 75.08 365.225 74.424 365.001C73.128 364.569 72.152 364.009 71.496 363.321C70.856 362.633 70.536 361.729 70.536 360.609C70.52 359.665 70.736 358.841 71.184 358.137C71.648 357.433 72.288 356.889 73.104 356.505C73.936 356.105 74.904 355.905 76.008 355.905C77.096 355.905 78.048 356.105 78.864 356.505C79.696 356.905 80.344 357.465 80.808 358.185C81.272 358.889 81.512 359.713 81.528 360.657H78.84C78.84 360.225 78.728 359.817 78.504 359.433C78.28 359.033 77.952 358.705 77.52 358.449C77.088 358.193 76.56 358.065 75.936 358.065C75.136 358.049 74.472 358.249 73.944 358.665C73.432 359.081 73.176 359.657 73.176 360.393C73.176 361.049 73.368 361.553 73.752 361.905C74.136 362.257 74.664 362.553 75.336 362.793C76.008 363.017 76.776 363.281 77.64 363.585C78.472 363.857 79.216 364.185 79.872 364.569C80.528 364.953 81.048 365.457 81.432 366.081C81.832 366.705 82.032 367.497 82.032 368.457C82.032 369.305 81.816 370.097 81.384 370.833C80.952 371.553 80.304 372.145 79.44 372.609C78.576 373.057 77.512 373.281 76.248 373.281ZM90.2854 373.281C89.1174 373.281 88.0774 373.025 87.1654 372.513C86.2694 371.985 85.5654 371.257 85.0534 370.329C84.5414 369.401 84.2854 368.321 84.2854 367.089C84.2854 365.841 84.5334 364.745 85.0294 363.801C85.5414 362.857 86.2454 362.121 87.1414 361.593C88.0534 361.065 89.1094 360.801 90.3094 360.801C91.4774 360.801 92.4934 361.065 93.3574 361.593C94.2214 362.105 94.8934 362.793 95.3734 363.657C95.8534 364.521 96.0934 365.473 96.0934 366.513C96.0934 366.673 96.0854 366.849 96.0694 367.041C96.0694 367.217 96.0614 367.417 96.0454 367.641H86.7814C86.8614 368.793 87.2374 369.673 87.9094 370.281C88.5974 370.873 89.3894 371.169 90.2854 371.169C91.0054 371.169 91.6054 371.009 92.0854 370.689C92.5814 370.353 92.9494 369.905 93.1894 369.345H95.7334C95.4134 370.465 94.7734 371.401 93.8134 372.153C92.8694 372.905 91.6934 373.281 90.2854 373.281ZM90.2854 362.889C89.4374 362.889 88.6854 363.145 88.0294 363.657C87.3734 364.153 86.9734 364.905 86.8294 365.913H93.5494C93.5014 364.985 93.1734 364.249 92.5654 363.705C91.9574 363.161 91.1974 362.889 90.2854 362.889ZM98.733 372.993V361.089H101.013L101.229 363.345C101.645 362.561 102.221 361.945 102.957 361.497C103.709 361.033 104.613 360.801 105.669 360.801V363.465H104.973C104.269 363.465 103.637 363.585 103.077 363.825C102.533 364.049 102.093 364.441 101.757 365.001C101.437 365.545 101.277 366.305 101.277 367.281V372.993H98.733ZM111.186 372.993L106.722 361.089H109.386L112.698 370.569L116.01 361.089H118.65L114.21 372.993H111.186ZM122.181 358.833C121.701 358.833 121.301 358.689 120.981 358.401C120.677 358.097 120.525 357.721 120.525 357.273C120.525 356.825 120.677 356.457 120.981 356.169C121.301 355.865 121.701 355.713 122.181 355.713C122.661 355.713 123.053 355.865 123.357 356.169C123.677 356.457 123.837 356.825 123.837 357.273C123.837 357.721 123.677 358.097 123.357 358.401C123.053 358.689 122.661 358.833 122.181 358.833ZM120.909 372.993V361.089H123.453V372.993H120.909ZM132.451 373.281C131.283 373.281 130.235 373.017 129.307 372.489C128.395 371.961 127.675 371.233 127.147 370.305C126.635 369.361 126.379 368.273 126.379 367.041C126.379 365.809 126.635 364.729 127.147 363.801C127.675 362.857 128.395 362.121 129.307 361.593C130.235 361.065 131.283 360.801 132.451 360.801C133.923 360.801 135.155 361.185 136.147 361.953C137.155 362.721 137.803 363.761 138.091 365.073H135.427C135.267 364.417 134.915 363.905 134.371 363.537C133.827 363.169 133.187 362.985 132.451 362.985C131.827 362.985 131.251 363.145 130.723 363.465C130.195 363.769 129.771 364.225 129.451 364.833C129.131 365.425 128.971 366.161 128.971 367.041C128.971 367.921 129.131 368.665 129.451 369.273C129.771 369.865 130.195 370.321 130.723 370.641C131.251 370.961 131.827 371.121 132.451 371.121C133.187 371.121 133.827 370.937 134.371 370.569C134.915 370.201 135.267 369.681 135.427 369.009H138.091C137.819 370.289 137.179 371.321 136.171 372.105C135.163 372.889 133.923 373.281 132.451 373.281ZM146.418 373.281C145.25 373.281 144.21 373.025 143.298 372.513C142.402 371.985 141.698 371.257 141.186 370.329C140.674 369.401 140.418 368.321 140.418 367.089C140.418 365.841 140.666 364.745 141.162 363.801C141.674 362.857 142.378 362.121 143.274 361.593C144.186 361.065 145.242 360.801 146.442 360.801C147.61 360.801 148.626 361.065 149.49 361.593C150.354 362.105 151.026 362.793 151.506 363.657C151.986 364.521 152.226 365.473 152.226 366.513C152.226 366.673 152.218 366.849 152.202 367.041C152.202 367.217 152.194 367.417 152.178 367.641H142.914C142.994 368.793 143.37 369.673 144.042 370.281C144.73 370.873 145.522 371.169 146.418 371.169C147.138 371.169 147.738 371.009 148.218 370.689C148.714 370.353 149.082 369.905 149.322 369.345H151.866C151.546 370.465 150.906 371.401 149.946 372.153C149.002 372.905 147.826 373.281 146.418 373.281ZM146.418 362.889C145.57 362.889 144.818 363.145 144.162 363.657C143.506 364.153 143.106 364.905 142.962 365.913H149.682C149.634 364.985 149.306 364.249 148.698 363.705C148.09 363.161 147.33 362.889 146.418 362.889ZM159.618 373.281C158.114 373.281 156.874 372.913 155.898 372.177C154.922 371.441 154.362 370.465 154.218 369.249H156.786C156.914 369.793 157.218 370.265 157.698 370.665C158.178 371.049 158.81 371.241 159.594 371.241C160.362 371.241 160.922 371.081 161.274 370.761C161.626 370.441 161.802 370.073 161.802 369.657C161.802 369.049 161.554 368.641 161.058 368.433C160.578 368.209 159.906 368.009 159.042 367.833C158.37 367.689 157.698 367.497 157.026 367.257C156.37 367.017 155.818 366.681 155.37 366.249C154.938 365.801 154.722 365.201 154.722 364.449C154.722 363.409 155.122 362.545 155.922 361.857C156.722 361.153 157.842 360.801 159.282 360.801C160.61 360.801 161.682 361.121 162.498 361.761C163.33 362.401 163.818 363.305 163.962 364.473H161.514C161.434 363.961 161.194 363.561 160.794 363.273C160.41 362.985 159.89 362.841 159.234 362.841C158.594 362.841 158.098 362.977 157.746 363.249C157.394 363.505 157.218 363.841 157.218 364.257C157.218 364.673 157.458 365.001 157.938 365.241C158.434 365.481 159.082 365.697 159.882 365.889C160.682 366.065 161.418 366.273 162.09 366.513C162.778 366.737 163.33 367.073 163.746 367.521C164.162 367.969 164.37 368.625 164.37 369.489C164.386 370.577 163.962 371.481 163.098 372.201C162.25 372.921 161.09 373.281 159.618 373.281Z" fill="white"/>
<path d="M111.584 249.992C111.584 254.681 111.584 259.37 111.584 264.07C111.562 264.137 111.528 264.192 111.517 264.258C111.017 266.747 109.129 268.306 106.585 268.306C95.7305 268.306 84.8876 268.306 74.0335 268.306C71.1117 268.306 69.012 266.205 69.012 263.285C69.012 259.005 69.012 254.736 69.012 250.456C69.012 250.312 69.012 250.169 69.012 249.992C69.1675 250.036 69.2786 250.058 69.3786 250.102C75.7999 252.226 82.2213 254.349 88.6315 256.495C89.7758 256.882 90.8534 256.882 91.9977 256.495C98.519 254.305 105.051 252.148 111.584 249.992Z" fill="white"/>
<path d="M111.584 247.172C109.04 248.024 106.496 248.875 103.952 249.727C99.6633 251.153 95.3638 252.569 91.0755 254.007C90.5312 254.184 90.0424 254.184 89.5091 253.996C82.8322 251.762 76.1554 249.55 69.4674 247.349C69.0897 247.227 68.9897 247.061 69.0008 246.685C69.023 245.546 69.0119 244.396 69.0119 243.246C69.023 240.415 71.1227 238.302 73.9779 238.291C76.8775 238.28 79.766 238.291 82.6656 238.291C82.8322 238.291 82.9878 238.291 83.2211 238.291C83.2211 237.65 83.21 237.042 83.2211 236.444C83.2655 234.763 84.3987 233.414 86.0429 233.071C86.2984 233.016 86.5651 233.005 86.8317 233.005C89.1425 233.005 91.4644 232.994 93.7752 233.005C95.5749 233.016 96.9636 234.133 97.3191 235.836C97.3858 236.135 97.3858 236.433 97.3858 236.743C97.3969 237.241 97.3858 237.738 97.3858 238.302C97.5747 238.302 97.7302 238.302 97.8968 238.302C100.741 238.302 103.585 238.358 106.418 238.291C109.262 238.225 111.228 240.26 111.528 242.394C111.539 242.45 111.573 242.494 111.595 242.549C111.584 244.086 111.584 245.624 111.584 247.172ZM86.765 238.269C89.1536 238.269 91.4755 238.269 93.8307 238.269C93.8307 237.683 93.8307 237.119 93.8307 236.555C91.4644 236.555 89.1203 236.555 86.765 236.555C86.765 237.141 86.765 237.683 86.765 238.269Z" fill="white"/>
<circle cx="245.533" cy="207.216" r="8.30888" fill="black"/>
<circle cx="245.533" cy="207.216" r="5.19305" fill="#F8F8F2"/>
<defs>
<filter id="filter0_d_144_302" x="368" y="24" width="146.966" height="146.966" filterUnits="userSpaceOnUse" color-interpolation-filters="sRGB">
<feFlood flood-opacity="0" result="BackgroundImageFix"/>
<feColorMatrix in="SourceAlpha" type="matrix" values="0 0 0 0 0 0 0 0 0 0 0 0 0 0 0 0 0 0 127 0" result="hardAlpha"/>
<feOffset dx="4" dy="4"/>
<feGaussianBlur stdDeviation="10"/>
<feComposite in2="hardAlpha" operator="out"/>
<feColorMatrix type="matrix" values="0 0 0 0 0 0 0 0 0 0 0 0 0 0 0 0 0 0 0.07 0"/>
<feBlend mode="normal" in2="BackgroundImageFix" result="effect1_dropShadow_144_302"/>
<feBlend mode="normal" in="SourceGraphic" in2="effect1_dropShadow_144_302" result="shape"/>
</filter>
<filter id="filter1_d_144_302" x="87.95" y="485.143" width="146.966" height="146.966" filterUnits="userSpaceOnUse" color-interpolation-filters="sRGB">
<feFlood flood-opacity="0" result="BackgroundImageFix"/>
<feColorMatrix in="SourceAlpha" type="matrix" values="0 0 0 0 0 0 0 0 0 0 0 0 0 0 0 0 0 0 127 0" result="hardAlpha"/>
<feOffset dx="4" dy="4"/>
<feGaussianBlur stdDeviation="10"/>
<feComposite in2="hardAlpha" operator="out"/>
<feColorMatrix type="matrix" values="0 0 0 0 0 0 0 0 0 0 0 0 0 0 0 0 0 0 0.07 0"/>
<feBlend mode="normal" in2="BackgroundImageFix" result="effect1_dropShadow_144_302"/>
<feBlend mode="normal" in="SourceGraphic" in2="effect1_dropShadow_144_302" result="shape"/>
</filter>
<filter id="filter2_d_144_302" x="234.03" y="682.281" width="100.614" height="100.614" filterUnits="userSpaceOnUse" color-interpolation-filters="sRGB">
<feFlood flood-opacity="0" result="BackgroundImageFix"/>
<feColorMatrix in="SourceAlpha" type="matrix" values="0 0 0 0 0 0 0 0 0 0 0 0 0 0 0 0 0 0 127 0" result="hardAlpha"/>
<feOffset dx="4" dy="4"/>
<feGaussianBlur stdDeviation="10"/>
<feComposite in2="hardAlpha" operator="out"/>
<feColorMatrix type="matrix" values="0 0 0 0 0 0 0 0 0 0 0 0 0 0 0 0 0 0 0.07 0"/>
<feBlend mode="normal" in2="BackgroundImageFix" result="effect1_dropShadow_144_302"/>
<feBlend mode="normal" in="SourceGraphic" in2="effect1_dropShadow_144_302" result="shape"/>
</filter>
<filter id="filter3_d_144_302" x="700.034" y="110.761" width="146.966" height="146.966" filterUnits="userSpaceOnUse" color-interpolation-filters="sRGB">
<feFlood flood-opacity="0" result="BackgroundImageFix"/>
<feColorMatrix in="SourceAlpha" type="matrix" values="0 0 0 0 0 0 0 0 0 0 0 0 0 0 0 0 0 0 127 0" result="hardAlpha"/>
<feOffset dx="4" dy="4"/>
<feGaussianBlur stdDeviation="10"/>
<feComposite in2="hardAlpha" operator="out"/>
<feColorMatrix type="matrix" values="0 0 0 0 0 0 0 0 0 0 0 0 0 0 0 0 0 0 0.07 0"/>
<feBlend mode="normal" in2="BackgroundImageFix" result="effect1_dropShadow_144_302"/>
<feBlend mode="normal" in="SourceGraphic" in2="effect1_dropShadow_144_302" result="shape"/>
</filter>
<filter id="filter4_d_144_302" x="572.97" y="539.327" width="189.753" height="189.753" filterUnits="userSpaceOnUse" color-interpolation-filters="sRGB">
<feFlood flood-opacity="0" result="BackgroundImageFix"/>
<feColorMatrix in="SourceAlpha" type="matrix" values="0 0 0 0 0 0 0 0 0 0 0 0 0 0 0 0 0 0 127 0" result="hardAlpha"/>
<feOffset dx="4" dy="4"/>
<feGaussianBlur stdDeviation="10"/>
<feComposite in2="hardAlpha" operator="out"/>
<feColorMatrix type="matrix" values="0 0 0 0 0 0 0 0 0 0 0 0 0 0 0 0 0 0 0.07 0"/>
<feBlend mode="normal" in2="BackgroundImageFix" result="effect1_dropShadow_144_302"/>
<feBlend mode="normal" in="SourceGraphic" in2="effect1_dropShadow_144_302" result="shape"/>
</filter>
<filter id="filter5_d_144_302" x="318.521" y="593.298" width="105.368" height="105.368" filterUnits="userSpaceOnUse" color-interpolation-filters="sRGB">
<feFlood flood-opacity="0" result="BackgroundImageFix"/>
<feColorMatrix in="SourceAlpha" type="matrix" values="0 0 0 0 0 0 0 0 0 0 0 0 0 0 0 0 0 0 127 0" result="hardAlpha"/>
<feOffset dx="4" dy="4"/>
<feGaussianBlur stdDeviation="10"/>
<feComposite in2="hardAlpha" operator="out"/>
<feColorMatrix type="matrix" values="0 0 0 0 0 0 0 0 0 0 0 0 0 0 0 0 0 0 0.07 0"/>
<feBlend mode="normal" in2="BackgroundImageFix" result="effect1_dropShadow_144_302"/>
<feBlend mode="normal" in="SourceGraphic" in2="effect1_dropShadow_144_302" result="shape"/>
</filter>
<filter id="filter6_d_144_302" x="372.004" y="218.916" width="217.088" height="217.088" filterUnits="userSpaceOnUse" color-interpolation-filters="sRGB">
<feFlood flood-opacity="0" result="BackgroundImageFix"/>
<feColorMatrix in="SourceAlpha" type="matrix" values="0 0 0 0 0 0 0 0 0 0 0 0 0 0 0 0 0 0 127 0" result="hardAlpha"/>
<feOffset dx="4" dy="4"/>
<feGaussianBlur stdDeviation="10"/>
<feComposite in2="hardAlpha" operator="out"/>
<feColorMatrix type="matrix" values="0 0 0 0 0 0 0 0 0 0 0 0 0 0 0 0 0 0 0.07 0"/>
<feBlend mode="normal" in2="BackgroundImageFix" result="effect1_dropShadow_144_302"/>
<feBlend mode="normal" in="SourceGraphic" in2="effect1_dropShadow_144_302" result="shape"/>
</filter>
<filter id="filter7_d_144_302" x="0" y="131" width="270.572" height="351.39" filterUnits="userSpaceOnUse" color-interpolation-filters="sRGB">
<feFlood flood-opacity="0" result="BackgroundImageFix"/>
<feColorMatrix in="SourceAlpha" type="matrix" values="0 0 0 0 0 0 0 0 0 0 0 0 0 0 0 0 0 0 127 0" result="hardAlpha"/>
<feOffset dx="4" dy="4"/>
<feGaussianBlur stdDeviation="10"/>
<feComposite in2="hardAlpha" operator="out"/>
<feColorMatrix type="matrix" values="0 0 0 0 0 0 0 0 0 0 0 0 0 0 0 0 0 0 0.07 0"/>
<feBlend mode="normal" in2="BackgroundImageFix" result="effect1_dropShadow_144_302"/>
<feBlend mode="normal" in="SourceGraphic" in2="effect1_dropShadow_144_302" result="shape"/>
</filter>
<filter id="filter8_d_144_302" x="0" y="131" width="270.572" height="351.39" filterUnits="userSpaceOnUse" color-interpolation-filters="sRGB">
<feFlood flood-opacity="0" result="BackgroundImageFix"/>
<feColorMatrix in="SourceAlpha" type="matrix" values="0 0 0 0 0 0 0 0 0 0 0 0 0 0 0 0 0 0 127 0" result="hardAlpha"/>
<feOffset dx="4" dy="4"/>
<feGaussianBlur stdDeviation="10"/>
<feComposite in2="hardAlpha" operator="out"/>
<feColorMatrix type="matrix" values="0 0 0 0 0 0 0 0 0 0 0 0 0 0 0 0 0 0 0.07 0"/>
<feBlend mode="normal" in2="BackgroundImageFix" result="effect1_dropShadow_144_302"/>
<feBlend mode="normal" in="SourceGraphic" in2="effect1_dropShadow_144_302" result="shape"/>
</filter>
<clipPath id="clip0_144_302">
<rect width="24.21" height="28.8214" fill="white" transform="translate(268.476 714.421)"/>
</clipPath>
<clipPath id="clip1_144_302">
<rect width="38.0443" height="29.9743" fill="white" transform="translate(348.023 626.804)"/>
</clipPath>
<clipPath id="clip2_144_302">
<rect width="65.7129" height="65.7129" fill="white" transform="translate(442.557 290.17)"/>
</clipPath>
<clipPath id="clip3_144_302">
<rect width="58.7957" height="50.7257" fill="white" transform="translate(126.674 528.811)"/>
</clipPath>
<clipPath id="clip4_144_302">
<rect width="70.3243" height="70.3243" fill="white" transform="translate(628.167 595.677)"/>
</clipPath>
<clipPath id="clip5_144_302">
<rect width="42.583" height="35.3127" fill="white" transform="translate(67.0002 206)"/>
</clipPath>
</defs>
</svg>
