<svg width="238" height="238" viewBox="0 0 238 238" fill="none" xmlns="http://www.w3.org/2000/svg">
<rect width="237.058" height="237.058" rx="10" fill="#FFEED2" fill-opacity="0.5"/>
<g clip-path="url(#clip0_96_917)">
<path d="M169.8 74.1121C169.838 74.2517 169.857 74.3956 169.857 74.5402V97.0142C169.857 97.6014 169.543 98.1436 169.034 98.4357L150.171 109.296V130.822C150.171 131.407 149.86 131.948 149.352 132.243L109.977 154.91C109.887 154.961 109.789 154.994 109.69 155.028C109.653 155.041 109.619 155.063 109.58 155.073C109.304 155.146 109.015 155.146 108.74 155.073C108.695 155.061 108.654 155.037 108.611 155.02C108.521 154.987 108.426 154.959 108.34 154.91L68.9741 132.243C68.465 131.951 68.1506 131.409 68.1506 130.822V63.3995C68.1506 63.252 68.1711 63.1086 68.208 62.9693C68.2203 62.9222 68.249 62.8792 68.2653 62.8321C68.2961 62.7461 68.3247 62.658 68.3698 62.5781C68.4005 62.5249 68.4456 62.4818 68.4825 62.4327C68.5296 62.3671 68.5726 62.2995 68.6279 62.2422C68.675 62.1951 68.7365 62.1603 68.7897 62.1193C68.8491 62.0701 68.9024 62.0169 68.97 61.978H68.972L88.6562 50.6447C89.1634 50.3528 89.7876 50.3528 90.2949 50.6447L109.979 61.978H109.983C110.049 62.0189 110.104 62.0701 110.163 62.1172C110.217 62.1582 110.276 62.1951 110.323 62.2401C110.381 62.2995 110.422 62.3671 110.471 62.4327C110.505 62.4818 110.553 62.5249 110.581 62.5781C110.628 62.66 110.655 62.7461 110.688 62.8321C110.704 62.8792 110.733 62.9222 110.745 62.9714C110.783 63.111 110.802 63.2549 110.802 63.3995V105.511L127.205 96.0659V74.5382C127.205 74.3948 127.226 74.2494 127.263 74.1121C127.277 74.063 127.304 74.0199 127.32 73.9728C127.353 73.8868 127.381 73.7987 127.427 73.7188C127.457 73.6656 127.502 73.6226 127.537 73.5734C127.586 73.5079 127.627 73.4403 127.685 73.3829C127.732 73.3358 127.791 73.301 127.844 73.26C127.906 73.2109 127.959 73.1576 128.025 73.1187H128.027L147.713 61.7854C148.22 61.4931 148.844 61.4931 149.352 61.7854L169.036 73.1187C169.105 73.1597 169.159 73.2109 169.22 73.258C169.271 73.2989 169.331 73.3358 169.378 73.3809C169.435 73.4403 169.476 73.5079 169.525 73.5734C169.562 73.6226 169.607 73.6656 169.636 73.7188C169.683 73.7987 169.71 73.8868 169.742 73.9728C169.761 74.0199 169.788 74.063 169.8 74.1121ZM166.576 96.0659V77.3771L159.687 81.3426L150.171 86.8219V105.511L166.578 96.0659H166.576ZM146.892 129.873V111.172L137.531 116.518L110.8 131.774V150.651L146.892 129.873ZM71.432 66.2364V129.873L107.519 150.649V131.776L88.6665 121.106L88.6603 121.102L88.6521 121.098C88.5886 121.061 88.5354 121.008 88.476 120.963C88.4248 120.922 88.3654 120.889 88.3203 120.844L88.3162 120.838C88.2629 120.787 88.2261 120.723 88.181 120.666C88.14 120.611 88.0909 120.564 88.0581 120.506L88.0561 120.5C88.0192 120.439 87.9967 120.365 87.97 120.295C87.9434 120.234 87.9086 120.176 87.8922 120.111V120.109C87.8717 120.031 87.8676 119.949 87.8594 119.869C87.8512 119.808 87.8349 119.746 87.8349 119.685V119.681V75.6811L78.3205 70.1999L71.432 66.2384V66.2364ZM89.4776 53.9588L73.0768 63.3995L89.4735 72.8401L105.872 63.3974L89.4735 53.9588H89.4776ZM98.0067 112.876L107.521 107.399V66.2364L100.633 70.2019L91.1162 75.6811V116.844L98.0067 112.876ZM148.532 65.0996L132.134 74.5402L148.532 83.9809L164.929 74.5382L148.532 65.0996ZM146.892 86.8219L137.375 81.3426L130.487 77.3771V96.0659L140.001 101.543L146.892 105.511V86.8219ZM109.158 128.937L133.211 115.205L145.235 108.343L128.848 98.9089L109.981 109.771L92.7856 119.671L109.158 128.937Z" fill="#FF2D20"/>
</g>
<path d="M85.0663 202.531V188.531H87.6263V200.531H93.8263V202.531H85.0663ZM99.4419 202.771C98.5886 202.771 97.8886 202.638 97.3419 202.371C96.7953 202.091 96.3886 201.725 96.1219 201.271C95.8553 200.818 95.7219 200.318 95.7219 199.771C95.7219 198.851 96.0819 198.105 96.8019 197.531C97.5219 196.958 98.6019 196.671 100.042 196.671H102.562V196.431C102.562 195.751 102.369 195.251 101.982 194.931C101.595 194.611 101.115 194.451 100.542 194.451C100.022 194.451 99.5686 194.578 99.1819 194.831C98.7953 195.071 98.5553 195.431 98.4619 195.911H95.9619C96.0286 195.191 96.2686 194.565 96.6819 194.031C97.1086 193.498 97.6553 193.091 98.3219 192.811C98.9886 192.518 99.7353 192.371 100.562 192.371C101.975 192.371 103.089 192.725 103.902 193.431C104.715 194.138 105.122 195.138 105.122 196.431V202.531H102.942L102.702 200.931C102.409 201.465 101.995 201.905 101.462 202.251C100.942 202.598 100.269 202.771 99.4419 202.771ZM100.022 200.771C100.755 200.771 101.322 200.531 101.722 200.051C102.135 199.571 102.395 198.978 102.502 198.271H100.322C99.6419 198.271 99.1553 198.398 98.8619 198.651C98.5686 198.891 98.4219 199.191 98.4219 199.551C98.4219 199.938 98.5686 200.238 98.8619 200.451C99.1553 200.665 99.5419 200.771 100.022 200.771ZM107.565 202.531V192.611H109.845L110.085 194.471C110.445 193.831 110.932 193.325 111.545 192.951C112.172 192.565 112.905 192.371 113.745 192.371V195.071H113.025C112.465 195.071 111.965 195.158 111.525 195.331C111.085 195.505 110.738 195.805 110.485 196.231C110.245 196.658 110.125 197.251 110.125 198.011V202.531H107.565ZM118.915 202.771C118.061 202.771 117.361 202.638 116.815 202.371C116.268 202.091 115.861 201.725 115.595 201.271C115.328 200.818 115.195 200.318 115.195 199.771C115.195 198.851 115.555 198.105 116.275 197.531C116.995 196.958 118.075 196.671 119.515 196.671H122.035V196.431C122.035 195.751 121.841 195.251 121.455 194.931C121.068 194.611 120.588 194.451 120.015 194.451C119.495 194.451 119.041 194.578 118.655 194.831C118.268 195.071 118.028 195.431 117.935 195.911H115.435C115.501 195.191 115.741 194.565 116.155 194.031C116.581 193.498 117.128 193.091 117.795 192.811C118.461 192.518 119.208 192.371 120.035 192.371C121.448 192.371 122.561 192.725 123.375 193.431C124.188 194.138 124.595 195.138 124.595 196.431V202.531H122.415L122.175 200.931C121.881 201.465 121.468 201.905 120.935 202.251C120.415 202.598 119.741 202.771 118.915 202.771ZM119.495 200.771C120.228 200.771 120.795 200.531 121.195 200.051C121.608 199.571 121.868 198.978 121.975 198.271H119.795C119.115 198.271 118.628 198.398 118.335 198.651C118.041 198.891 117.895 199.191 117.895 199.551C117.895 199.938 118.041 200.238 118.335 200.451C118.628 200.665 119.015 200.771 119.495 200.771ZM129.425 202.531L125.785 192.611H128.465L130.985 200.111L133.505 192.611H136.185L132.525 202.531H129.425ZM142.131 202.771C141.131 202.771 140.244 202.558 139.471 202.131C138.698 201.705 138.091 201.105 137.651 200.331C137.211 199.558 136.991 198.665 136.991 197.651C136.991 196.625 137.204 195.711 137.631 194.911C138.071 194.111 138.671 193.491 139.431 193.051C140.204 192.598 141.111 192.371 142.151 192.371C143.124 192.371 143.984 192.585 144.731 193.011C145.478 193.438 146.058 194.025 146.471 194.771C146.898 195.505 147.111 196.325 147.111 197.231C147.111 197.378 147.104 197.531 147.091 197.691C147.091 197.851 147.084 198.018 147.071 198.191H139.531C139.584 198.965 139.851 199.571 140.331 200.011C140.824 200.451 141.418 200.671 142.111 200.671C142.631 200.671 143.064 200.558 143.411 200.331C143.771 200.091 144.038 199.785 144.211 199.411H146.811C146.624 200.038 146.311 200.611 145.871 201.131C145.444 201.638 144.911 202.038 144.271 202.331C143.644 202.625 142.931 202.771 142.131 202.771ZM142.151 194.451C141.524 194.451 140.971 194.631 140.491 194.991C140.011 195.338 139.704 195.871 139.571 196.591H144.511C144.471 195.938 144.231 195.418 143.791 195.031C143.351 194.645 142.804 194.451 142.151 194.451ZM149.264 202.531V188.131H151.824V202.531H149.264Z" fill="black"/>
<defs>
<clipPath id="clip0_96_917">
<rect width="104.885" height="104.885" fill="white" transform="translate(66.5615 50.4255)"/>
</clipPath>
</defs>
</svg>
