<?xml version="1.0" encoding="UTF-8"?> <svg xmlns="http://www.w3.org/2000/svg" xmlns:xlink="http://www.w3.org/1999/xlink" width="100px" height="101px" viewBox="0 0 100 101" version="1.1"><!-- Generator: Sketch 63.1 (92452) - https://sketch.com --><title>Group 50</title><desc>Created with Sketch.</desc><defs><polygon id="path-1" points="0 100.312947 99.8173729 100.312947 99.8173729 0 0 0"></polygon></defs><g id="Selected-pages" stroke="none" stroke-width="1" fill="none" fill-rule="evenodd"><g id="Work" transform="translate(-30.000000, -30.000000)"><g id="Group-50" transform="translate(30.000000, 30.000000)"><path d="M46.4653395,37.5225812 C45.5092437,41.1053791 42.2375949,43.7525727 38.3576686,43.7525727 C33.731416,43.7525727 29.9663506,39.9880466 29.9663506,35.3607154 C29.9663506,30.7339235 33.731416,26.9693974 38.3576686,26.9693974 C42.2375949,26.9693974 45.509783,29.616591 46.4653395,33.1988496 L50.3242349,33.1988496 C49.3007325,27.5210533 44.3261223,23.1984002 38.3576686,23.1984002 C31.6515166,23.1984002 26.1953534,28.6545634 26.1953534,35.3607154 C26.1953534,42.0674066 31.6515166,47.5235699 38.3576686,47.5235699 C44.3261223,47.5235699 49.3007325,43.2009167 50.3242349,37.5225812 L46.4653395,37.5225812 Z" id="Fill-1" fill="#11070F"></path><mask id="mask-2" fill="white"><use xlink:href="#path-1"></use></mask><g id="Clip-4"></g><polygon id="Fill-3" fill="#11070F" mask="url(#mask-2)" points="52.8176875 47.6138948 56.5892239 47.6138948 56.5892239 23.0018424 52.8176875 23.0018424"></polygon><polygon id="Fill-5" fill="#11070F" mask="url(#mask-2)" points="69.2255426 47.6138948 72.9965398 47.6138948 72.9965398 23.0018424 69.2255426 23.0018424"></polygon><path d="M38.1269222,55.6386285 C41.3910214,55.6386285 44.2237182,57.5136116 45.6106772,60.2416933 L30.6431672,60.2416933 C32.0301263,57.5136116 34.862823,55.6386285 38.1269222,55.6386285 M29.7361434,64.0126904 L46.517701,64.0126904 C46.517701,64.0186222 46.5182402,64.024554 46.5182402,64.0304858 L50.2897767,64.0304858 C50.2897767,57.3237945 44.8336134,51.8670921 38.1269222,51.8670921 C31.4207702,51.8670921 25.9640678,57.3237945 25.9640678,64.0304858 L29.7356042,64.0304858 C29.7356042,64.024554 29.7361434,64.0186222 29.7361434,64.0126904" id="Fill-6" fill="#11070F" mask="url(#mask-2)"></path><path d="M31.3448973,70.502548 L28.6901541,73.1810183 C34.2805914,78.7229228 43.337887,78.683018 48.8803307,73.0925808 L46.2018604,70.4367591 C42.123489,74.5507213 35.4588595,74.5803802 31.3448973,70.502548" id="Fill-7" fill="#11070F" mask="url(#mask-2)"></path><path d="M68.3880286,35.2799892 C64.9589179,33.9685256 61.0299196,33.9669078 57.4266301,35.5895205 L58.9748259,39.0283378 C61.6177055,37.8382061 64.4973172,37.8344313 67.0145508,38.7899879 L68.3880286,35.2799892 Z" id="Fill-8" fill="#11070F" mask="url(#mask-2)"></path><polygon id="Fill-9" fill="#11070F" mask="url(#mask-2)" points="52.865681 77.0932459 56.6372175 77.0932459 56.6372175 52.4811935 52.865681 52.4811935"></polygon><polygon id="Fill-10" fill="#11070F" mask="url(#mask-2)" points="69.0513639 77.0932459 72.8229003 77.0932459 72.8229003 52.4811935 69.0513639 52.4811935"></polygon><path d="M67.1681301,61.1019638 C66.1597268,57.5720128 63.8031906,54.428167 60.3428032,52.5192109 L58.5212061,55.8215971 C61.0589314,57.220959 62.7899339,59.5230306 63.5362603,62.1092886 L67.1681301,61.1019638 Z" id="Fill-11" fill="#11070F" mask="url(#mask-2)"></path><path d="M1.78023637,60.4521638 C1.71175122,60.0914034 1.68317081,59.7586842 1.69449512,59.4523884 C1.70581944,59.1460927 1.7500382,58.8624455 1.8271514,58.6009077 C1.90372534,58.33937 2.00834045,58.0967061 2.13937896,57.8718375 C2.27095672,57.6475082 2.4219476,57.4366602 2.59396935,57.2398328 L3.70644857,58.1959286 C3.39961354,58.4828113 3.18606929,58.7923426 3.0663551,59.1250618 C2.94610165,59.4583202 2.92453152,59.8266301 3.00110547,60.2299915 C3.07066912,60.5966836 3.20116838,60.8566036 3.39152474,61.0102907 C3.58242035,61.1634386 3.79973936,61.217364 4.04402103,61.1709882 C4.19662967,61.1413293 4.31634386,61.0793151 4.40262437,60.9838673 C4.48890487,60.8884195 4.5541545,60.7649306 4.59837325,60.6144789 C4.64259201,60.4634881 4.66901541,60.2871523 4.67818272,60.0860109 C4.68735002,59.8848695 4.69759583,59.6632364 4.70838089,59.4205725 C4.71539118,59.159574 4.73372579,58.8964185 4.76230621,58.6316452 C4.79088662,58.3663326 4.85505775,58.1198939 4.95428032,57.8923291 C5.05296365,57.664225 5.19910124,57.4657799 5.39161461,57.2959152 C5.58412798,57.1271289 5.85159754,57.0095717 6.19348402,56.9443221 C6.46850312,56.8920146 6.73759044,56.9011819 7.00128522,56.9712848 C7.26444075,57.0413877 7.50440839,57.1648766 7.72226666,57.3417517 C7.93958567,57.519166 8.12778502,57.742956 8.28632544,58.0136611 C8.44540511,58.2838269 8.55810902,58.5933582 8.62443715,58.9417157 C8.68051948,59.2350694 8.70586438,59.50901 8.70047185,59.7635375 C8.69454006,60.0169865 8.66326338,60.2596504 8.60556329,60.4882937 C8.54786321,60.7174763 8.46481823,60.9358738 8.35481059,61.1434863 C8.2453422,61.3510987 8.11214668,61.5587112 7.95576327,61.7657844 L6.93064306,60.8684672 C7.1533546,60.6430594 7.3167483,60.3950029 7.42028491,60.1253764 C7.52382151,59.8552105 7.5399991,59.5278839 7.46666067,59.1428571 C7.39655777,58.7767043 7.26875477,58.5270301 7.08163394,58.394913 C6.89505235,58.2622568 6.69175392,58.2169595 6.4722779,58.2590213 C6.33746461,58.2843662 6.23500652,58.3453018 6.16490361,58.4412888 C6.09426145,58.5361974 6.04249315,58.6575293 6.01067721,58.8025884 C5.97778277,58.9481868 5.9578304,59.1164337 5.94974161,59.3078686 C5.94219206,59.4993035 5.93356401,59.7036804 5.92385746,59.9209994 C5.91792567,60.1879297 5.90013032,60.4602526 5.8704714,60.7379679 C5.84081247,61.0156833 5.77286658,61.2739855 5.66663371,61.5128747 C5.55986159,61.7512246 5.40347818,61.9599155 5.19694423,62.1384083 C4.98987103,62.3169011 4.70676313,62.4409293 4.34654204,62.5088752 C4.05912012,62.563879 3.77762998,62.5568687 3.50207163,62.4894621 C3.22651328,62.4215162 2.9719858,62.2991057 2.73848919,62.1222307 C2.50553184,61.9442772 2.30546893,61.7150946 2.1377612,61.4330652 C1.97059273,61.1521143 1.85141779,60.8247877 1.78023637,60.4521638" id="Fill-12" fill="#11070F" mask="url(#mask-2)"></path><polygon id="Fill-13" fill="#11070F" mask="url(#mask-2)" points="8.82320586 64.9372938 8.19497596 63.1507482 9.33927111 62.7479261 11.0190446 67.5273267 9.87528873 67.9296095 9.25352986 66.1608592 3.97262392 68.0169685 3.54283917 66.7934031"></polygon><path d="M6.87261942,74.6301532 C6.67902755,74.2758639 6.55769559,73.9231924 6.50916281,73.5748349 C6.46063003,73.2259381 6.48220015,72.8916011 6.57333393,72.5729025 C6.66500697,72.2536647 6.82786141,71.9576147 7.06189727,71.6847526 C7.29539388,71.4118905 7.59791489,71.1740799 7.9694603,70.97186 L11.6466274,68.9663776 L12.2899564,70.1457242 L8.58798364,72.1646879 C8.21643823,72.3669078 7.97539208,72.6386914 7.86376668,72.9789601 C7.75214128,73.3197681 7.79258527,73.6675864 7.98617714,74.022415 C8.18030827,74.3772435 8.4515526,74.6010336 8.79937087,74.6948636 C9.14826765,74.7881544 9.50794949,74.7331506 9.87895565,74.5309307 L13.5809284,72.5119669 L14.2242574,73.6913135 L10.546551,75.6967959 C10.1755449,75.8995551 9.811549,76.0235833 9.45402418,76.0699591 C9.09649935,76.1163349 8.75892689,76.0915292 8.44076754,75.9950029 C8.12314744,75.8995551 7.83033299,75.7367007 7.56340269,75.5069788 C7.29647239,75.2767177 7.06567204,74.9844425 6.87261942,74.6301532" id="Fill-14" fill="#11070F" mask="url(#mask-2)"></path><path d="M15.0499079,76.9546578 L11.6342785,79.6595515 L12.1438727,80.3028805 C12.3568777,80.5708893 12.5941491,80.781198 12.8583831,80.9338067 C13.1215387,81.0858761 13.390626,81.1780883 13.6661843,81.2099043 C13.9406642,81.2417202 14.2156833,81.2185323 14.4907024,81.1398014 C14.7657215,81.0610704 15.022406,80.9273356 15.2618344,80.7380578 C15.5055768,80.5450052 15.7002472,80.3249899 15.8463848,80.0785512 C15.9919831,79.8321125 16.0809599,79.5716533 16.1133151,79.2960949 C16.1445917,79.0205366 16.1149328,78.7374287 16.0227205,78.4456927 C15.929969,78.1539568 15.7681931,77.8616816 15.5363142,77.5688671 L15.0499079,76.9546578 Z M15.1852604,75.1573271 L16.5522671,76.8829371 C16.8882218,77.3073293 17.1244147,77.7452029 17.2597672,78.197097 C17.395659,78.6489911 17.4398778,79.0901002 17.3918842,79.5209635 C17.3438907,79.9512875 17.2101559,80.3605806 16.9901407,80.7488429 C16.7695861,81.1376444 16.4703006,81.4822271 16.0901272,81.7836696 C15.7094145,82.0851121 15.3011998,82.2954208 14.8644048,82.415135 C14.4276098,82.5348492 13.9929717,82.5650474 13.5615692,82.5062688 C13.1301667,82.4474902 12.713324,82.3040489 12.310502,82.0754056 C11.9076799,81.8473015 11.5474588,81.5323777 11.2309172,81.1327911 L9.84719364,79.3856109 L15.1852604,75.1573271 Z" id="Fill-15" fill="#11070F" mask="url(#mask-2)"></path><polygon id="Fill-16" fill="#11070F" mask="url(#mask-2)" points="20.0401025 80.8768615 20.993502 81.8103087 16.2292006 86.6770683 15.275801 85.7436211"></polygon><path d="M21.6373163,89.6497551 C21.8875298,89.8347189 22.1528423,89.9592864 22.4337932,90.0239968 C22.7142048,90.0887071 22.9940772,90.0984137 23.2712533,90.0520379 C23.5495079,90.0062014 23.811585,89.9085966 24.0580236,89.758145 C24.3044623,89.6082326 24.5169281,89.413023 24.6943423,89.1725161 C24.8755314,88.9276951 25.0006381,88.6645396 25.0696625,88.3830495 C25.1386869,88.1015593 25.1548645,87.8233047 25.1187346,87.5488249 C25.0820653,87.274345 24.9914708,87.0095717 24.8464117,86.7555835 C24.7018919,86.5015953 24.5066822,86.283737 24.2618613,86.102548 C24.0170404,85.9213589 23.7533456,85.7994877 23.4702377,85.7369343 C23.1876691,85.6749202 22.9094145,85.6662922 22.6365524,85.7115894 C22.363151,85.7568867 22.1026918,85.8550308 21.8562531,86.0049432 C21.6098144,86.155934 21.3962702,86.3533007 21.2150811,86.5981216 C21.0371276,86.8380892 20.9120209,87.0985485 20.8408394,87.3778816 C20.769658,87.657754 20.7507842,87.9360086 20.7858356,88.2131847 C20.8203478,88.4903609 20.9093246,88.7535164 21.0538444,89.0037298 C21.197825,89.253404 21.3924954,89.468566 21.6373163,89.6497551 M20.8656451,90.6926707 C20.4763043,90.4030917 20.1656945,90.0595875 19.9348942,89.6605402 C19.7040938,89.2614928 19.5568777,88.8408754 19.4927066,88.3992271 C19.4290747,87.9570395 19.4501056,87.5132342 19.557417,87.0656541 C19.6636498,86.6186132 19.8610165,86.2001528 20.1495169,85.8097335 C20.4385566,85.4198535 20.7809823,85.1087044 21.1773334,84.8757471 C21.5742237,84.643329 21.9926841,84.4928774 22.4343324,84.4249315 C22.8749023,84.3564463 23.3203253,84.3742417 23.7695232,84.4788568 C24.2181818,84.5829326 24.6377208,84.7792208 25.02814,85.0677212 C25.41802,85.3562216 25.7297084,85.7008044 25.9626657,86.1020087 C26.1961623,86.5026738 26.3444569,86.9238305 26.4086281,87.3660181 C26.4722599,87.8071271 26.4523076,88.2525502 26.3476924,88.7017481 C26.2441558,89.1509459 26.0478677,89.5710241 25.7593673,89.9603649 C25.4703276,90.3507842 25.1284411,90.6619332 24.7315508,90.8948906 C24.3351997,91.1273087 23.9151216,91.277221 23.4713162,91.3430099 C23.0275109,91.4093381 22.5799308,91.389925 22.1285759,91.2836921 C21.6766818,91.1779985 21.2560644,90.9806318 20.8656451,90.6926707" id="Fill-17" fill="#11070F" mask="url(#mask-2)"></path><path d="M29.1868602,95.6647463 C28.7209455,95.442574 28.3353795,95.1567699 28.029623,94.8078731 C27.7244057,94.4589763 27.5011549,94.0750281 27.3593313,93.6560284 C27.2185863,93.2370287 27.1614254,92.8002337 27.1894666,92.345104 C27.2169685,91.8894351 27.3356042,91.4429335 27.5442952,91.00506 C27.7589179,90.5558621 28.0371725,90.1773064 28.381216,89.8688536 C28.7247203,89.5609401 29.105433,89.332836 29.5244327,89.1840022 C29.9423538,89.0367861 30.3813059,88.9736934 30.8391318,88.9958028 C31.297497,89.0173729 31.7510089,89.1360086 32.2002067,89.3495529 C32.4919427,89.4892194 32.7561767,89.6607019 32.9939873,89.8634611 C33.2307195,90.0662203 33.4340179,90.2905496 33.6022649,90.536449 C33.7715903,90.7818092 33.9064036,91.0449647 34.007244,91.3237586 C34.1086236,91.6030917 34.1711769,91.8894351 34.1965218,92.1838673 L32.8392217,92.342947 C32.8289759,91.9455175 32.7254393,91.5874534 32.5296904,91.2698333 C32.332863,90.9522132 32.041127,90.700382 31.6539433,90.5159574 C31.3735317,90.3816834 31.088806,90.3099627 30.8008448,90.3002561 C30.5123444,90.2900103 30.2384038,90.3336898 29.9790231,90.4302162 C29.719103,90.5272817 29.4823709,90.6734193 29.2672089,90.8702467 C29.0525862,91.0681526 28.8800252,91.3043455 28.7484474,91.5793646 C28.6195659,91.8489911 28.5456882,92.1267065 28.5257359,92.4141284 C28.5063227,92.7010111 28.5408349,92.9754909 28.6287332,93.2381072 C28.7171707,93.5007235 28.8546803,93.7406911 29.0407226,93.9563924 C29.2267649,94.1726329 29.4602615,94.3478902 29.7406732,94.4827035 C30.1618299,94.6833056 30.5695052,94.7485553 30.965317,94.6784523 C31.3600503,94.6083494 31.7143396,94.441181 32.0265672,94.1769469 L32.8354469,95.2764841 C32.5825372,95.4727722 32.3102144,95.6318519 32.0179392,95.7542623 C31.7251247,95.8766728 31.4231429,95.9564823 31.1125331,95.99423 C30.8013841,96.032517 30.4826855,96.0249674 30.1564373,95.9726599 C29.8301892,95.9203523 29.5071766,95.817355 29.1868602,95.6647463" id="Fill-18" fill="#11070F" mask="url(#mask-2)"></path><polygon id="Fill-19" fill="#11070F" mask="url(#mask-2)" points="39.1877949 96.1776839 36.533591 95.4507707 35.7996675 98.1324765 34.5216375 97.7825012 36.3200467 91.2138588 37.5975374 91.5632948 36.8733205 94.20941 39.5275244 94.9357839 40.2522806 92.2902081 41.520604 92.6374871 39.7221948 99.2061295 38.4544106 98.8588505"></polygon><polygon id="Fill-20" fill="#11070F" mask="url(#mask-2)" points="43.3101155 92.9384443 47.8641082 93.4275468 47.7319912 94.6602795 44.4856873 94.3124612 44.3222936 95.8336943 47.5685975 96.1820519 47.4364805 97.415863 44.1901766 97.0669663 44.0246259 98.6070732 47.271469 98.9554307 47.1382735 100.198409 42.5832023 99.7103851"></polygon><polygon id="Fill-21" fill="#11070F" mask="url(#mask-2)" points="49.5783939 93.5124792 50.9847661 93.4380623 54.2111176 97.9106278 53.9662967 93.2806004 55.2330023 93.2131937 55.5926841 100.014254 54.2887701 100.083818 50.9615782 95.4667326 51.2144879 100.245594 49.9380758 100.313"></polygon><path d="M61.7716622,98.9423808 C61.2690783,99.0615557 60.789143,99.0804296 60.3329349,99.0000809 C59.8756482,98.9202714 59.4609626,98.7606525 59.0877994,98.5228419 C58.7151755,98.2850312 58.3970161,97.9803532 58.1338606,97.6082685 C57.8701658,97.2361839 57.6819665,96.8144879 57.5703411,96.3421022 C57.4554802,95.8578529 57.4355278,95.3881634 57.5099447,94.9324945 C57.5838224,94.4773648 57.7380488,94.0605222 57.9710062,93.6825057 C58.2039635,93.3044893 58.505406,92.9803981 58.8764122,92.7102323 C59.2468791,92.4400665 59.6750461,92.2480924 60.1598346,92.1337707 C60.47368,92.0593538 60.7875253,92.0269986 61.0992136,92.0356267 C61.4119804,92.044794 61.7101874,92.0922482 61.9965308,92.1779895 C62.2817957,92.2637307 62.550883,92.3834449 62.8048713,92.5376713 C63.0588595,92.6918977 63.2875028,92.875783 63.4913405,93.0893273 L62.5330877,94.0637577 C62.2764032,93.7606974 61.9717252,93.5466139 61.6190536,93.4225857 C61.2669213,93.2980182 60.8829731,93.2856154 60.4645126,93.3842987 C60.1625309,93.4560194 59.8956006,93.5789691 59.6653395,93.7509909 C59.4345392,93.9235519 59.2479576,94.1295466 59.106134,94.3678965 C58.9643104,94.6057071 58.8715589,94.8688626 58.8284186,95.1568238 C58.7841999,95.4458635 58.7976812,95.7381387 58.8683234,96.0341886 C58.9368085,96.3248461 59.0538265,96.5885409 59.2182987,96.8236552 C59.3822316,97.0598481 59.581216,97.2523615 59.8152519,97.4017346 C60.0492877,97.551647 60.3059722,97.6514088 60.5863839,97.7031771 C60.8673347,97.7554847 61.1590707,97.7452388 61.4615917,97.6729789 C61.9156428,97.5656676 62.2747854,97.3607514 62.537941,97.0587696 C62.802175,96.7562486 62.9731182,96.4051948 63.0496922,96.0034512 L64.3692446,96.3518087 C64.2969847,96.6629578 64.1842808,96.9584685 64.0322114,97.2372624 C63.8817598,97.515517 63.6962567,97.7673482 63.4783984,97.9916775 C63.2594616,98.2160068 63.0060127,98.4106772 62.7196693,98.5735317 C62.4322473,98.7374646 62.116245,98.8604143 61.7716622,98.9423808" id="Fill-22" fill="#11070F" mask="url(#mask-2)"></path><polygon id="Fill-23" fill="#11070F" mask="url(#mask-2)" points="69.8846717 93.0674875 67.3615063 94.1664854 68.4718285 96.7149957 67.2568912 97.2440031 64.5379769 90.999991 65.752375 90.4715229 66.8475981 92.9860603 69.3713027 91.8876017 68.2760796 89.3719858 69.4823889 88.8478318 72.2013032 95.0918438 70.9949939 95.6165371"></polygon><polygon id="Fill-24" fill="#11070F" mask="url(#mask-2)" points="71.0637487 87.9614075 74.9183301 85.4867748 75.5886218 86.5313081 72.841127 88.2952051 73.6672628 89.5824024 76.4152968 87.8185054 77.0855885 88.8624994 74.3375545 90.6263964 75.1744754 91.9297713 77.9219701 90.1658743 78.5976542 91.2179571 74.7425336 93.6920505"></polygon><polygon id="Fill-25" fill="#11070F" mask="url(#mask-2)" points="76.3135937 84.4741653 77.3608233 83.5320901 82.6816339 84.9837595 79.5814677 81.5363142 80.5246214 80.688069 85.0780749 85.7521952 84.1063407 86.6257853 78.6172831 85.1250438 81.8172112 88.6841145 80.8665079 89.5382915"></polygon><path d="M86.2307824,83.41518 C86.0522896,83.2604143 85.9541455,83.074372 85.9363502,82.8575922 C85.9190941,82.6402732 85.9870399,82.4423673 86.1418056,82.2638745 C86.2965712,82.0853817 86.4831528,81.9893947 86.6999326,81.9759134 C86.9172516,81.9629713 87.1156968,82.0336134 87.2941895,82.1889183 C87.4726823,82.343684 87.5708264,82.5291871 87.5886218,82.7465061 C87.6064171,82.9632858 87.537932,83.1606525 87.3826271,83.3391453 C87.2240866,83.5230306 87.0364265,83.6200962 86.8218038,83.630342 C86.6061025,83.6416663 86.4092752,83.5699456 86.2307824,83.41518" id="Fill-26" fill="#11070F" mask="url(#mask-2)"></path><path d="M91.3710511,77.9926122 C91.0868647,78.4234755 90.7503707,78.7664405 90.3621085,79.0198895 C89.9743855,79.2738777 89.5629353,79.4421247 89.1288366,79.5240911 C88.6941985,79.6060576 88.2536287,79.6017436 87.8065879,79.5111491 C87.359547,79.4205545 86.9335371,79.2409832 86.5290972,78.9735137 C86.1138723,78.6995731 85.7773783,78.3706287 85.5196153,77.987759 C85.2618523,77.6048892 85.0892913,77.1961354 85.0008538,76.7609581 C84.9113378,76.3257808 84.90972,75.883054 84.9954613,75.4322383 C85.080124,74.981962 85.2602346,74.549481 85.5352537,74.1347953 C85.7132072,73.8651687 85.9197412,73.6262796 86.1532378,73.4192064 C86.3872736,73.2121332 86.6374871,73.0417292 86.9044174,72.9090729 C87.1708084,72.7764167 87.4496023,72.6788118 87.7402597,72.617337 C88.0303779,72.5564014 88.3231924,72.5337528 88.6181638,72.5493911 L88.5874264,73.9153193 C88.1916146,73.8705613 87.823844,73.9234081 87.4819575,74.0738597 C87.1395317,74.2248506 86.8504921,74.4782996 86.6137599,74.8358244 C86.4422774,75.0957444 86.3317306,75.367528 86.28158,75.6511751 C86.232508,75.9353615 86.236822,76.2125376 86.2972184,76.4827035 C86.3565362,76.7534085 86.4692401,77.0090145 86.6347908,77.2484429 C86.7998023,77.4884106 87.010111,77.6927875 87.2646385,77.8615737 C87.5137734,78.0260459 87.7785467,78.1382106 88.0600368,78.1969892 C88.341527,78.256307 88.6187031,78.260621 88.8904867,78.2088527 C89.1628095,78.1587022 89.419494,78.0551656 89.6589224,77.9009392 C89.8994293,77.7467128 90.1048847,77.5401789 90.2763672,77.2807981 C90.5341302,76.8914573 90.6554622,76.496724 90.6409024,76.0949805 C90.6263425,75.6943154 90.5093246,75.3211522 90.2909271,74.9749517 L91.4918438,74.3262302 C91.6514627,74.6034063 91.7717162,74.8951422 91.8526041,75.201438 C91.9329529,75.5088123 91.9701613,75.8183436 91.9647688,76.1316497 C91.958837,76.4444165 91.907608,76.7593403 91.8100031,77.0753427 C91.7129376,77.391345 91.5662607,77.6971015 91.3710511,77.9926122" id="Fill-27" fill="#11070F" mask="url(#mask-2)"></path><path d="M94.3369433,69.662122 C94.457736,69.3752393 94.5159754,69.0883566 94.5122006,68.7993169 C94.5084258,68.5113558 94.451265,68.2374152 94.3417966,67.9785737 C94.2312497,67.7197322 94.0737878,67.4883926 93.8694109,67.2845549 C93.6650339,67.0807172 93.4250663,66.920559 93.1500472,66.8051589 C92.868557,66.6865232 92.5832921,66.6272053 92.2937132,66.6266661 C92.003595,66.6266661 91.7296544,66.6768166 91.4718914,66.7771177 C91.2130499,66.877958 90.9779356,67.0284097 90.7654698,67.2290118 C90.5524648,67.4301532 90.3874534,67.6711994 90.2693569,67.951611 C90.1507213,68.2331012 90.0951782,68.5183661 90.1016492,68.8074057 C90.1081203,69.0969847 90.1658203,69.3693075 90.2747495,69.6243742 C90.3836786,69.8789017 90.540062,70.1080843 90.744439,70.311922 C90.9488159,70.5162989 91.1914798,70.6769964 91.4724307,70.795632 C91.7474498,70.910493 92.0294792,70.9703501 92.3185189,70.9735856 C92.6070193,70.9768211 92.8820384,70.9288276 93.1424976,70.829605 C93.4040354,70.7303824 93.6386105,70.5810093 93.8473015,70.3820249 C94.0559925,70.1830405 94.2188469,69.9430728 94.3369433,69.662122 M95.5324675,70.1647059 C95.3442682,70.6117467 95.0838089,70.9946165 94.7505505,71.3138543 C94.4172921,71.6320137 94.0435896,71.8752168 93.6294432,72.0413068 C93.2158361,72.2084753 92.7785018,72.2925988 92.3190581,72.2948129 C91.8590752,72.297452 91.4055633,72.2047005 90.9585224,72.0165011 C90.5109423,71.8288411 90.1275334,71.5694603 89.8077562,71.2388981 C89.4885184,70.9088752 89.2431582,70.5373298 89.0716757,70.1248012 C88.9012717,69.7128118 88.8133735,69.2760167 88.8079809,68.8149553 C88.8025884,68.3538939 88.8942614,67.8993035 89.0824608,67.4522626 C89.2701209,67.0052218 89.5316587,66.6207343 89.8659956,66.2993394 C90.1997933,65.9779445 90.574035,65.7342021 90.9881814,65.5670337 C91.4023278,65.4009437 91.8396621,65.3141239 92.3007235,65.3092707 C92.7617849,65.3038781 93.2158361,65.3960904 93.6628769,65.5842898 C94.110457,65.7714106 94.493866,66.0307914 94.8141824,66.3608143 C95.1344987,66.6908372 95.3787804,67.0640004 95.5481059,67.478686 C95.7179706,67.8944502 95.8042511,68.3339415 95.8085651,68.7976992 C95.8118007,69.2614569 95.7201276,69.7171258 95.5324675,70.1647059" id="Fill-28" fill="#11070F" mask="url(#mask-2)"></path><polygon id="Fill-29" fill="#11070F" mask="url(#mask-2)" points="90.9560958 62.8023907 91.2106233 61.5497057 94.3641756 60.1233811 92.0292095 57.5085427 92.2718735 56.3108615 98.9467488 57.6638476 98.6911428 58.9262392 94.0098863 57.9766144 96.2920056 60.5240462 93.2549319 61.9363502 97.8898126 62.8757291 97.6304319 64.1559161"></polygon><path d="M6.97583247,42.0556509 C6.90519031,42.415872 6.80758549,42.7356491 6.68301802,43.0155215 C6.5589898,43.2953939 6.41177369,43.5423718 6.24352672,43.7564553 C6.07474048,43.9705388 5.88761965,44.1576596 5.6821642,44.3167393 C5.47724801,44.4763582 5.25723273,44.6160248 5.02535388,44.7351997 L4.3485912,43.4334427 C4.73954972,43.2813733 5.05285579,43.0737608 5.28797016,42.8089876 C5.52362378,42.5447535 5.6810857,42.2109558 5.7592774,41.8081337 C5.83099807,41.4419809 5.80673168,41.1524019 5.68701748,40.9388577 C5.56730328,40.7247742 5.38557498,40.5942749 5.14129331,40.5468207 C4.98868467,40.5166225 4.85441064,40.5301038 4.73954972,40.5867254 C4.6236103,40.643347 4.51683818,40.7334022 4.41977261,40.8568912 C4.3232463,40.9803802 4.23265178,41.1340673 4.14960679,41.3174134 C4.06602256,41.5007594 3.97434953,41.7029794 3.87350919,41.9240732 C3.76997259,42.1640408 3.65565092,42.4013122 3.53000494,42.6364265 C3.40489822,42.8720802 3.25390734,43.0769964 3.07703231,43.2511751 C2.90015728,43.4258931 2.69092707,43.5558531 2.44880241,43.6415944 C2.20775626,43.7278749 1.91602031,43.7370422 1.57359457,43.6701748 C1.29911473,43.6167887 1.05267604,43.5078596 0.834278524,43.3450052 C0.615881005,43.1816115 0.439005977,42.9772345 0.303114187,42.7324136 C0.167222397,42.4870534 0.0755493641,42.2093381 0.0286343414,41.8987283 C-0.0182806813,41.589197 -0.00749561857,41.2597133 0.0604502764,40.911895 C0.117611109,40.6190806 0.195802813,40.3553858 0.295564643,40.1213499 C0.395326473,39.8873141 0.514501416,39.6748483 0.653089471,39.4828742 C0.791677527,39.2919786 0.950757201,39.1204961 1.12924999,38.9678875 C1.30828203,38.8163573 1.5088842,38.6734553 1.73159574,38.5391812 L2.34957983,39.75304 C2.05892239,39.8803038 1.81464072,40.0496293 1.61781333,40.2615557 C1.42152519,40.472943 1.28509414,40.7716892 1.21013796,41.1561767 C1.13841729,41.5223296 1.1648407,41.8016627 1.28886892,41.9936368 C1.41289714,42.1856109 1.58491889,42.3031681 1.80439491,42.3463084 C1.93866894,42.3721925 2.05622613,42.3543972 2.15706646,42.2918438 C2.25844605,42.2292904 2.35065834,42.1365389 2.43532108,42.0130499 C2.51944457,41.8906395 2.60087179,41.7412663 2.6790635,41.5670876 C2.75779445,41.3923696 2.84191794,41.205788 2.93143396,41.0078821 C3.03604907,40.7625219 3.15414551,40.5160832 3.28518402,40.2691053 C3.41514403,40.0221274 3.57476295,39.8080439 3.7629623,39.6257763 C3.95008313,39.444048 4.17279468,39.3081562 4.43109693,39.2197187 C4.68993844,39.1307419 4.99893048,39.1215746 5.35915158,39.1916775 C5.64603424,39.2477599 5.90433649,39.358846 6.13513684,39.5243967 C6.36539792,39.6899474 6.55629353,39.8980991 6.70674516,40.1493911 C6.85665753,40.4006831 6.95803712,40.688105 7.00926617,41.0116569 C7.05941671,41.335748 7.04863165,41.6835663 6.97583247,42.0556509" id="Fill-30" fill="#11070F" mask="url(#mask-2)"></path><polygon id="Fill-31" fill="#11070F" mask="url(#mask-2)" points="3.08889588 34.6253898 2.45257718 36.4092392 1.31043904 36.0021031 3.01178268 31.2302521 4.15392082 31.6373882 3.52407316 33.4039815 8.79689031 35.2838179 8.36063452 36.5052263"></polygon><path d="M11.5136476,29.5996585 C11.3189772,29.9539478 11.0870984,30.2456837 10.8196288,30.4743271 C10.55162,30.7035096 10.2588056,30.8652856 9.94010695,30.9596549 C9.6219476,31.0540242 9.28491439,31.0766728 8.92954658,31.0265223 C8.57363951,30.9763717 8.21072215,30.849108 7.84025525,30.6452703 L4.17009841,28.6263066 L4.81720217,27.449117 L8.51270391,29.481562 C8.88263156,29.685939 9.24123489,29.7430998 9.58905316,29.6535838 C9.93579293,29.5640678 10.2070373,29.3424347 10.4017076,28.9881454 C10.5969173,28.6338561 10.6400575,28.2849593 10.5311284,27.9414551 C10.4221993,27.5974116 10.1822316,27.323471 9.81176471,27.1190941 L6.11680223,25.0871882 L6.76444524,23.9099987 L10.4346021,25.9289624 C10.805069,26.1328001 11.1059722,26.373307 11.3373118,26.6494046 C11.5691907,26.9260414 11.7293489,27.2231699 11.8194041,27.542947 C11.9099987,27.8621849 11.9304903,28.1965218 11.880879,28.5448793 C11.8307284,28.8943154 11.708318,29.2453692 11.5136476,29.5996585" id="Fill-32" fill="#11070F" mask="url(#mask-2)"></path><path d="M10.2434908,21.0687278 L13.6526491,23.7811711 L14.1638611,23.1389206 C14.376866,22.871451 14.5267784,22.5915787 14.6157552,22.3009212 C14.7041927,22.0091853 14.7333124,21.7266166 14.7025749,21.450519 C14.6702197,21.1754999 14.585557,20.9134229 14.4464297,20.6637487 C14.3073024,20.4140745 14.1185638,20.1940592 13.8802139,20.0042421 C13.6364715,19.8106502 13.3781692,19.6709837 13.1053071,19.5847032 C12.8319058,19.4984227 12.557426,19.4709208 12.2824069,19.5021975 C12.0073878,19.5334741 11.7377612,19.6273042 11.4740664,19.7831483 C11.2114501,19.9395317 10.9633937,20.1633218 10.7315149,20.455597 L10.2434908,21.0687278 Z M8.46233766,21.3448254 L9.83311913,19.6213724 C10.1696131,19.1980587 10.5433155,18.8691143 10.9520694,18.6345392 C11.3613625,18.399964 11.7814407,18.257062 12.2112255,18.2052937 C12.6415495,18.1546039 13.0707949,18.1923516 13.4989619,18.3179976 C13.9271289,18.4441828 14.3310295,18.6582663 14.7106637,18.9602481 C15.0902979,19.2622298 15.3879657,19.6122051 15.6036669,20.0107132 C15.8193682,20.408682 15.9471712,20.8244461 15.9876152,21.2580057 C16.0285984,21.6915652 15.9838404,22.1305172 15.8517234,22.5748618 C15.7212241,23.0192064 15.4968948,23.4409024 15.179814,23.8399497 L13.7917764,25.5844336 L8.46233766,21.3448254 Z" id="Fill-33" fill="#11070F" mask="url(#mask-2)"></path><polygon id="Fill-34" fill="#11070F" mask="url(#mask-2)" points="13.9982564 14.8952501 14.9532737 13.9634207 19.7089471 18.838269 18.7544691 19.7700984"></polygon><path d="M23.0928684,14.445513 C23.3425426,14.2610884 23.5399092,14.0437694 23.6844291,13.7940952 C23.8278704,13.5449602 23.9190042,13.2801869 23.9572912,13.0013931 C23.9944996,12.7225992 23.9777828,12.4432661 23.9060621,12.1633937 C23.8348807,11.8835213 23.7108525,11.6236013 23.5328989,11.3830944 C23.3517099,11.1382735 23.1370871,10.9414461 22.8879522,10.7926122 C22.6393565,10.6443176 22.378358,10.5472521 22.1044174,10.5014155 C21.831016,10.4561183 21.5522222,10.4652856 21.266418,10.5289174 C20.9816924,10.5925493 20.7158406,10.715499 20.4710196,10.8961488 C20.2256595,11.0773379 20.0320676,11.2941176 19.8897048,11.5459489 C19.7473419,11.7977801 19.6578259,12.0614749 19.6211567,12.3359547 C19.5839482,12.6104345 19.6006651,12.8876107 19.6723857,13.167483 C19.7441064,13.4473554 19.8697524,13.7099717 20.0509414,13.9547926 C20.2283557,14.1952995 20.4402822,14.3905091 20.6872601,14.5409608 C20.9331596,14.6914124 21.1941581,14.790635 21.4691772,14.8386285 C21.7447355,14.886622 22.0229902,14.8785332 22.3034018,14.8138229 C22.5848919,14.7496517 22.8475082,14.626702 23.0928684,14.445513 M23.8634611,15.4889678 C23.4725026,15.776929 23.0529636,15.9726778 22.6037658,16.0767537 C22.1551072,16.1802903 21.7096841,16.1980857 21.268575,16.1290613 C20.827466,16.0605761 20.4084663,15.9101245 20.0121152,15.6771671 C19.6163034,15.4442098 19.2738777,15.1319822 18.9853773,14.7421022 C18.6974161,14.3516829 18.4995102,13.9332225 18.3943558,13.4856424 C18.2881229,13.0386015 18.2665528,12.5937177 18.3307239,12.1520694 C18.3954343,11.7104211 18.5426504,11.2898036 18.77399,10.8912956 C19.0053296,10.4922482 19.3159394,10.148744 19.7063587,9.86078282 C20.0962387,9.57228239 20.5173954,9.37599425 20.9692895,9.26976138 C21.4206444,9.16460702 21.867146,9.14573316 22.3082551,9.21475756 C22.7493641,9.28324271 23.1694423,9.43315508 23.5684896,9.66395542 C23.9669977,9.89529502 24.310502,10.2059048 24.5990024,10.5963241 C24.8869636,10.9862041 25.0843302,11.4052038 25.1905631,11.8522446 C25.2962567,12.2998247 25.3162091,12.7452478 25.2493417,13.1890532 C25.1824743,13.6323192 25.0325619,14.0550937 24.7990653,14.4552195 C24.5650294,14.8558846 24.2533411,15.2004674 23.8634611,15.4889678" id="Fill-35" fill="#11070F" mask="url(#mask-2)"></path><path d="M31.2095448,11.1033838 C30.7441693,11.3255561 30.2782546,11.4458096 29.8155754,11.4641442 C29.3518177,11.4824788 28.9134049,11.4145329 28.4987193,11.2608457 C28.0840336,11.1071586 27.7087134,10.8768975 27.3722195,10.568984 C27.0351863,10.2610704 26.7623242,9.88790725 26.553094,9.4500337 C26.3390105,9.0013751 26.2198355,8.54624545 26.1961084,8.08572327 C26.1723813,7.62466184 26.2343954,7.18463129 26.38269,6.76617085 C26.5304453,6.34771042 26.7569316,5.96699771 27.0626882,5.62457197 C27.3679055,5.28268548 27.7448434,5.00389161 28.1940413,4.78980812 C28.4857772,4.65014155 28.7850627,4.55253674 29.0918977,4.4953759 C29.3998113,4.43821507 29.7012538,4.42095897 29.9983822,4.44468611 C30.2955107,4.46841325 30.5845504,4.52827035 30.864962,4.62479666 C31.1459129,4.72240147 31.4085292,4.85343999 31.6533501,5.0189907 L30.9232014,6.17407091 C30.607199,5.93194625 30.264234,5.78796567 29.8943064,5.74051139 C29.5233002,5.69359637 29.1447445,5.76262077 28.7570215,5.94704534 C28.4766099,6.08131937 28.2414955,6.25765515 28.0527569,6.47497416 C27.8640183,6.69283243 27.724891,6.93333933 27.637532,7.19541635 C27.5490945,7.45857188 27.5135038,7.73520874 27.5323777,8.02640543 C27.5507123,8.31706287 27.6256684,8.60017076 27.7572462,8.87518986 C27.8855885,9.14481643 28.0549139,9.37723453 28.2663012,9.57298342 C28.4766099,9.76873231 28.7122635,9.91486991 28.9721835,10.0113962 C29.2315643,10.1079225 29.5038871,10.151602 29.789152,10.142974 C30.0749562,10.1343459 30.3575248,10.0626253 30.6379365,9.92889049 C31.0590932,9.72774907 31.3664674,9.45165146 31.5605986,9.10059767 C31.7547297,8.74900463 31.8474812,8.36937042 31.8377747,7.96007729 L33.2010066,8.0220914 C33.1956141,8.34186851 33.1481598,8.65409608 33.0597223,8.95823484 C32.9707455,9.26291287 32.8424033,9.54763852 32.6768526,9.81295106 C32.5102233,10.0788029 32.3042286,10.322006 32.0583292,10.5425606 C31.8118905,10.7636543 31.5298611,10.9502359 31.2095448,11.1033838" id="Fill-36" fill="#11070F" mask="url(#mask-2)"></path><polygon id="Fill-37" fill="#11070F" mask="url(#mask-2)" points="38.7133061 5.40331641 36.0596414 6.13346515 36.7973397 8.81409248 35.5203883 9.16568553 33.713351 2.59973936 34.9903024 2.24814632 35.7177549 4.89264369 38.3708803 4.16195569 37.6439671 1.51745832 38.9117512 1.16856154 40.7193277 7.73450771 39.4504651 8.08340448"></polygon><polygon id="Fill-38" fill="#11070F" mask="url(#mask-2)" points="41.9250977 0.628769155 46.4785512 0.127802993 46.6139037 1.36107491 43.3686784 1.71859974 43.5358469 3.23929358 46.7816115 2.882308 46.9175033 4.11557992 43.6711994 4.47202624 43.8410641 6.01159394 47.0862895 5.65460837 47.2232598 6.89758684 42.6703456 7.398553"></polygon><polygon id="Fill-39" fill="#11070F" mask="url(#mask-2)" points="49.4825686 -5.39253135e-05 50.8889408 0.0705882353 53.6380533 4.85106727 53.8715499 0.220500607 55.1382555 0.283593223 54.796369 7.08573226 53.4924549 7.01994338 50.6576012 2.0857772 50.4176336 6.86571698 49.1406822 6.80154586"></polygon><path d="M59.9226711,8.17540107 C59.4195479,8.05838314 58.9822136,7.86155575 58.6085112,7.58653665 C58.2348088,7.31151755 57.9344448,6.98473015 57.70688,6.6056352 C57.4793151,6.22707949 57.3294028,5.81239383 57.2592999,5.36157821 C57.1881185,4.91076259 57.2080708,4.44916191 57.3180785,3.97677617 C57.4307824,3.4919876 57.621678,3.0627421 57.8907653,2.68796117 C58.1603919,2.31318025 58.4834045,2.00796297 58.8603424,1.77338786 C59.2372804,1.539352 59.651966,1.38350784 60.1049387,1.3069339 C60.5568328,1.2298207 61.0249045,1.2481553 61.5091538,1.36085921 C61.8240777,1.43419764 62.1195884,1.54420528 62.3951467,1.69142138 C62.6707051,1.83863749 62.9171438,2.01443401 63.1344628,2.21827169 C63.3517818,2.42210938 63.5405204,2.64913495 63.6990608,2.90042691 C63.8576012,3.15117962 63.9805509,3.41757066 64.0679099,3.69960005 L62.7763987,4.14610165 C62.6814901,3.7599964 62.5035366,3.43320901 62.2436166,3.16466094 C61.9831573,2.89665214 61.6445064,2.71384532 61.2265852,2.61677976 C60.9235249,2.5461376 60.6301712,2.5369703 60.3470633,2.58927785 C60.0634162,2.64104615 59.8051139,2.74242574 59.5726958,2.89287736 C59.3397385,3.04278974 59.1391363,3.23692086 58.9714286,3.47581 C58.8047994,3.71469914 58.6861637,3.98270795 58.6171393,4.27929717 C58.5491934,4.56995461 58.5367905,4.85791579 58.5793915,5.14210219 C58.6214533,5.42628859 58.7142048,5.68782636 58.8560284,5.92509774 C58.9994697,6.16290837 59.1849728,6.36674606 59.4136161,6.53822855 C59.6417202,6.70971105 59.9070328,6.83050375 60.210093,6.90114591 C60.6641442,7.00683953 61.0766728,6.98311239 61.447679,6.8299645 C61.8186851,6.67681661 62.1282164,6.43792747 62.3762729,6.11275783 L63.4019323,7.01223206 C63.1980946,7.25813149 62.9662158,7.47275424 62.7062958,7.65502179 C62.4474543,7.83728935 62.1697389,7.98019143 61.8736889,8.08372804 C61.5781782,8.18726464 61.2659507,8.2487395 60.9359277,8.2670741 C60.6059048,8.28648722 60.2683324,8.25574979 59.9226711,8.17540107" id="Fill-40" fill="#11070F" mask="url(#mask-2)"></path><polygon id="Fill-41" fill="#11070F" mask="url(#mask-2)" points="69.3264369 8.40210309 66.7978789 7.31658653 65.7010381 9.87156788 64.484483 9.34849234 67.1705029 3.09045971 68.3875972 3.61353525 67.3058554 6.13346515 69.8344133 7.21898171 70.9161551 4.69905181 72.1246214 5.21781333 69.4391408 11.475846 68.2301353 10.9565452"></polygon><polygon id="Fill-42" fill="#11070F" mask="url(#mask-2)" points="74.8385206 6.6887341 78.7082011 9.14071811 78.043302 10.1884869 75.2855615 8.44130679 74.4675145 9.7333573 77.225255 11.4810767 76.5608952 12.5293848 73.8026154 10.7811261 72.9737833 12.0893542 75.7315238 13.8370737 75.06285 14.8929313 71.1937087 12.4409473"></polygon><polygon id="Fill-43" fill="#11070F" mask="url(#mask-2)" points="81.1162899 10.9029973 82.1705298 11.837523 81.3282164 17.2872152 84.4041163 13.8181998 85.3526626 14.6599739 80.8353391 19.7559161 79.8576731 18.8893363 80.7291062 13.2654653 77.554523 16.8466454 76.5978879 15.9984002"></polygon><path d="M82.5375994,20.6656361 C82.715553,20.5092527 82.9123804,20.4369928 83.1302386,20.4493956 C83.3475576,20.4607199 83.5346785,20.5550892 83.6905226,20.7330427 C83.846906,20.9099178 83.9164697,21.1072844 83.9002921,21.3246034 C83.8846538,21.5419224 83.7875882,21.728504 83.6101739,21.8843482 C83.4327596,22.0401923 83.235393,22.1124523 83.018074,22.1011279 C82.800755,22.0892644 82.6141734,21.9948951 82.4583292,21.8174808 C82.2976318,21.6352132 82.2264504,21.4367681 82.244785,21.2221453 C82.2625803,21.0075226 82.3607244,20.8220195 82.5375994,20.6656361" id="Fill-44" fill="#11070F" mask="url(#mask-2)"></path><path d="M86.0759628,26.4744709 C85.7880016,26.0463039 85.6003415,25.6041163 85.5146003,25.1484474 C85.4293983,24.6922392 85.4320945,24.2484339 85.5226891,23.8154137 C85.6138229,23.3834719 85.7874624,22.9779535 86.0425291,22.5993978 C86.2975958,22.2213814 86.6265402,21.8972903 87.0288231,21.6260459 C87.4413517,21.3483306 87.874372,21.163906 88.3268054,21.0727722 C88.7786995,20.9816384 89.2230441,20.9789422 89.6592999,21.0641442 C90.0950164,21.1493462 90.5043095,21.3175931 90.8882578,21.5694243 C91.2711275,21.8212556 91.6016897,22.1534355 91.8799443,22.5659641 C92.0600548,22.8345122 92.2007999,23.1160023 92.3027187,23.4115131 C92.4040983,23.7070238 92.4655732,24.0030737 92.4855255,24.3007415 C92.5054779,24.5984092 92.4887611,24.8928414 92.4337572,25.1845774 C92.3787534,25.4763133 92.2881589,25.7556464 92.1592774,26.0220375 L90.9098279,25.4682245 C91.1028805,25.1209455 91.1961713,24.7601851 91.1880825,24.387022 C91.180533,24.0138588 91.0565047,23.6487844 90.8170763,23.2928774 C90.6428976,23.0351144 90.4347459,22.8285804 90.192082,22.6738148 C89.9488788,22.5185099 89.6905766,22.416591 89.4177145,22.3680582 C89.1453916,22.3189862 88.8660585,22.3254572 88.5813329,22.3858536 C88.2955287,22.4467892 88.0269806,22.5627286 87.7735317,22.7325934 C87.5265537,22.8997618 87.3210983,23.1014425 87.1587831,23.3387139 C86.9953894,23.575446 86.8853817,23.8294342 86.8282209,24.1006786 C86.7710601,24.3719229 86.7672853,24.6480205 86.8179751,24.9289714 C86.8681256,25.2099223 86.9802903,25.4790096 87.1544691,25.7373118 C87.4143891,26.1239563 87.7325484,26.3876511 88.1089471,26.5283962 C88.4848065,26.668602 88.8741473,26.7047319 89.2775087,26.6351683 L89.4155575,27.9930077 C89.0979374,28.0345302 88.7830135,28.0329124 88.4686289,27.9897722 C88.1542444,27.9466319 87.8544196,27.8619692 87.567537,27.7363232 C87.2795758,27.6112165 87.00941,27.4429695 86.7548825,27.2321215 C86.500355,27.0207343 86.2738687,26.7683638 86.0759628,26.4744709" id="Fill-45" fill="#11070F" mask="url(#mask-2)"></path><path d="M90.9776659,32.8006651 C91.1011549,33.08593 91.2677841,33.3275154 91.4786321,33.5243428 C91.6889408,33.7217094 91.9256729,33.870004 92.1888285,33.9697659 C92.451984,34.0695277 92.7280816,34.1164427 93.016582,34.1105109 C93.3050825,34.1040399 93.5871119,34.0420258 93.8610524,33.9239294 C94.1409248,33.8031367 94.3814317,33.6381252 94.5825731,33.4299735 C94.7837146,33.2207433 94.9374017,32.9888644 95.0436346,32.7327192 C95.1493282,32.4765739 95.204332,32.2026334 95.2070283,31.9103582 C95.2097245,31.618083 95.1504067,31.3317395 95.0301532,31.0518672 C94.9088213,30.7719948 94.7416528,30.5341842 94.5286478,30.3384353 C94.3151036,30.1426864 94.07945,29.9954703 93.8200692,29.8973262 C93.5606884,29.7997214 93.2867479,29.7533456 92.9982474,29.7592774 C92.709747,29.7652092 92.4255606,29.8288411 92.1456882,29.9496338 C91.8712084,30.0677302 91.6333977,30.2300454 91.4306386,30.4355008 C91.2284186,30.6414955 91.0725745,30.8728351 90.9636454,31.1305981 C90.854177,31.3872826 90.7991731,31.6601447 90.798602,31.9486451 C90.7970161,32.2366063 90.8568732,32.5207927 90.9776659,32.8006651 M89.7875343,33.3145733 C89.5955601,32.8691502 89.5001123,32.4156383 89.5006493,31.9545769 C89.5011909,31.4935155 89.5847751,31.0561812 89.7524828,30.642574 C89.9185728,30.2278884 90.1601582,29.8547252 90.477239,29.5214668 C90.7943199,29.1882083 91.1755718,28.9255921 91.6204557,28.7330787 C92.066418,28.5411046 92.5183121,28.444039 92.9782951,28.4418397 C93.4377387,28.439725 93.8761515,28.5200737 94.2919157,28.6829281 C94.7071406,28.8457826 95.083,29.0846717 95.4189547,29.4001348 C95.7549095,29.7155979 96.0196827,30.0963106 96.2116569,30.5417337 C96.4041702,30.9871568 96.499618,31.4417472 96.5001599,31.9055049 C96.5006965,32.3692626 96.4176516,32.8087539 96.2504831,33.222361 C96.0843931,33.6365074 95.8428077,34.0118276 95.5273446,34.3477823 C95.2118815,34.683737 94.8311688,34.9479711 94.3857457,35.1399452 C93.9403227,35.3324585 93.4878893,35.4295241 93.0284456,35.4317046 C92.5679234,35.4332989 92.1300499,35.3513324 91.7132072,35.1863209 C91.2963645,35.0207702 90.9194266,34.7786456 90.5823934,34.4604862 C90.2448209,34.1417876 89.9795084,33.7599964 89.7875343,33.3145733" id="Fill-46" fill="#11070F" mask="url(#mask-2)"></path><polygon id="Fill-47" fill="#11070F" mask="url(#mask-2)" points="98.430306 36.7252415 98.6983148 37.9746911 96.3757516 40.5426145 99.5616591 42.0066867 99.8172651 43.2022109 93.1585674 44.627457 92.8884016 43.3688402 97.5594122 42.3690648 94.4490001 40.9454366 96.6696445 38.4379095 92.0444704 39.4279783 91.7710691 38.1510268"></polygon><path d="M4.53916326,50.5720757 C4.53916326,51.394976 3.87210713,52.0620321 3.0497461,52.0620321 C2.22684582,52.0620321 1.55978969,51.394976 1.55978969,50.5720757 C1.55978969,49.7497146 2.22684582,49.0826585 3.0497461,49.0826585 C3.87210713,49.0826585 4.53916326,49.7497146 4.53916326,50.5720757" id="Fill-48" fill="#11070F" mask="url(#mask-2)"></path><path d="M97.7912911,50.5720757 C97.7912911,51.394976 97.1242349,52.0620321 96.3018739,52.0620321 C95.4789736,52.0620321 94.8119175,51.394976 94.8119175,50.5720757 C94.8119175,49.7497146 95.4789736,49.0826585 96.3018739,49.0826585 C97.1242349,49.0826585 97.7912911,49.7497146 97.7912911,50.5720757" id="Fill-49" fill="#11070F" mask="url(#mask-2)"></path></g></g></g></svg> 