<svg id="Layer_1" data-name="Layer 1" xmlns="http://www.w3.org/2000/svg" viewBox="0 0 500 500"><defs><style>.cls-1{fill:#06253e;}.cls-2{fill:#fdc93a;}</style></defs><path class="cls-1" d="M190.55,299.77l-117.14,92A42.39,42.39,0,0,1,69,380.43V223.58a10,10,0,0,1,1.57.66Z"/><path class="cls-1" d="M297.57,307.28l119.91,94.2a38.15,38.15,0,0,1-21.62,6.19q-72.3,0-144.6,0-73.53,0-147.08,0c-7.65,0-14.55-1.69-20.61-5.56l119.94-94.2,14,8.81c21.35,13.44,43.48,13.54,64.74.18Z"/><path class="cls-1" d="M431,223.41v2.72q0,74.75-.05,149.49a32.25,32.25,0,0,1-1.05,8.23,31.59,31.59,0,0,1-2.74,6.92L310.53,299.13Q369,262.37,427.45,225.57C428.48,224.92,429.55,224.31,431,223.41Z"/><path class="cls-2" d="M374.41,225q0,30.95,0,61.87a2.86,2.86,0,0,0,1.9,3.09c7.19,3.47,11.27,9.32,11.79,17.28s-2.93,14.28-9.65,18.58c-1.64,1.06-1.89,1.84-1.29,3.6,3.6,10.54,7.07,21.14,10.7,32l-13,4.32c-2.39-7.09-4.71-14-7-20.88h-.5c-2.32,6.88-4.63,13.77-7,20.88l-13-4.3c.56-1.76,1.09-3.41,1.62-5.05,3-9.06,6-18.13,9.1-27.17.54-1.58.34-2.33-1.15-3.27-6.77-4.24-10.27-10.45-9.86-18.46.43-8.17,4.6-14.09,12-17.65a2.4,2.4,0,0,0,1.72-2.49q-.09-28-.05-55.91Z"/><path class="cls-2" d="M449.05,201.79,255.94,302.93a12.3,12.3,0,0,1-11.88,0L51,201.79a12.3,12.3,0,0,1,.33-21.72l197.91-86.4a12.29,12.29,0,0,1,11.23,0l188.3,86.4A12.3,12.3,0,0,1,449.05,201.79Z"/></svg>