<svg width="237" height="237" viewBox="0 0 237 237" fill="none" xmlns="http://www.w3.org/2000/svg">
<rect width="236.482" height="236.482" rx="10" fill="#DFF0D8" fill-opacity="0.5"/>
<path d="M151.109 58.2425C151.029 57.7596 150.626 57.4376 150.224 57.4376C149.821 57.4376 142.738 57.2766 142.738 57.2766C142.738 57.2766 136.782 51.4814 136.219 50.918C135.655 50.3545 134.448 50.5155 134.045 50.6765C134.045 50.6765 132.918 50.9984 131.067 51.5619C130.745 50.5155 130.262 49.3082 129.618 48.0203C127.526 43.9958 124.387 41.8226 120.684 41.8226C120.443 41.8226 120.201 41.8226 119.879 41.9031C119.799 41.7421 119.638 41.6616 119.557 41.5007C117.947 39.7299 115.855 38.925 113.359 39.0055C108.53 39.1665 103.701 42.6275 99.8372 48.8252C97.1005 53.1717 95.0078 58.645 94.3639 62.9109C88.8101 64.6012 84.9466 65.8086 84.8661 65.889C82.049 66.7744 81.9685 66.8549 81.6465 69.5111C81.4051 71.5233 74 128.269 74 128.269L135.494 138.893L162.136 132.293C162.056 132.213 151.19 58.7255 151.109 58.2425ZM128.009 52.5278C126.56 52.9302 124.95 53.4936 123.26 53.9766C123.26 51.5619 122.938 48.1008 121.811 45.2032C125.433 45.9276 127.204 50.0326 128.009 52.5278ZM119.96 55.0229C116.74 55.9888 113.198 57.1157 109.657 58.162C110.623 54.379 112.555 50.596 114.808 48.1008C115.694 47.2154 116.901 46.1691 118.269 45.5251C119.718 48.3423 120.04 52.2863 119.96 55.0229ZM113.44 42.2251C114.567 42.2251 115.533 42.4665 116.338 42.9495C115.05 43.6739 113.762 44.6398 112.555 45.9276C109.496 49.2277 107.162 54.379 106.196 59.2889C103.298 60.1743 100.401 61.0597 97.7445 61.8646C99.4347 54.1375 105.954 42.4665 113.44 42.2251Z" fill="#95BF47"/>
<path d="M150.224 57.4375C149.821 57.4375 142.738 57.2765 142.738 57.2765C142.738 57.2765 136.782 51.4813 136.218 50.9178C135.977 50.6764 135.736 50.5959 135.414 50.5154V138.813L162.056 132.212C162.056 132.212 151.19 58.7253 151.109 58.1619C151.029 57.7595 150.626 57.4375 150.224 57.4375Z" fill="#5E8E3E"/>
<path d="M120.603 71.1205L117.545 82.711C117.545 82.711 114.084 81.1013 109.979 81.4232C103.942 81.8257 103.942 85.6087 103.942 86.5746C104.264 91.7259 117.867 92.8527 118.672 105.007C119.235 114.585 113.601 121.105 105.471 121.588C95.6516 122.231 90.2588 116.436 90.2588 116.436L92.3515 107.582C92.3515 107.582 97.7443 111.687 102.091 111.365C104.908 111.204 105.954 108.87 105.874 107.26C105.471 100.499 94.3638 100.902 93.6394 89.7941C93.0759 80.4573 99.1931 70.9595 112.715 70.1547C117.947 69.7522 120.603 71.1205 120.603 71.1205Z" fill="white"/>
<path d="M87.14 190.24C86.1133 190.24 85.2067 190.067 84.42 189.72C83.6333 189.36 83.0133 188.853 82.56 188.2C82.1067 187.533 81.8733 186.727 81.86 185.78H84.56C84.5867 186.433 84.82 186.987 85.26 187.44C85.7133 187.88 86.3333 188.1 87.12 188.1C87.8 188.1 88.34 187.94 88.74 187.62C89.14 187.287 89.34 186.847 89.34 186.3C89.34 185.727 89.16 185.28 88.8 184.96C88.4533 184.64 87.9867 184.38 87.4 184.18C86.8133 183.98 86.1867 183.767 85.52 183.54C84.44 183.167 83.6133 182.687 83.04 182.1C82.48 181.513 82.2 180.733 82.2 179.76C82.1867 178.933 82.38 178.227 82.78 177.64C83.1933 177.04 83.7533 176.58 84.46 176.26C85.1667 175.927 85.98 175.76 86.9 175.76C87.8333 175.76 88.6533 175.927 89.36 176.26C90.08 176.593 90.64 177.06 91.04 177.66C91.4533 178.26 91.6733 178.973 91.7 179.8H88.96C88.9467 179.307 88.7533 178.873 88.38 178.5C88.02 178.113 87.5133 177.92 86.86 177.92C86.3 177.907 85.8267 178.047 85.44 178.34C85.0667 178.62 84.88 179.033 84.88 179.58C84.88 180.047 85.0267 180.42 85.32 180.7C85.6133 180.967 86.0133 181.193 86.52 181.38C87.0267 181.567 87.6067 181.767 88.26 181.98C88.9533 182.22 89.5867 182.5 90.16 182.82C90.7333 183.14 91.1933 183.567 91.54 184.1C91.8867 184.62 92.06 185.293 92.06 186.12C92.06 186.853 91.8733 187.533 91.5 188.16C91.1267 188.787 90.5733 189.293 89.84 189.68C89.1067 190.053 88.2067 190.24 87.14 190.24ZM94.2336 190V175.6H96.7936V181.6C97.1269 181.053 97.5736 180.627 98.1336 180.32C98.7069 180 99.3603 179.84 100.094 179.84C101.32 179.84 102.267 180.227 102.934 181C103.614 181.773 103.954 182.907 103.954 184.4V190H101.414V184.64C101.414 183.787 101.24 183.133 100.894 182.68C100.56 182.227 100.027 182 99.2936 182C98.5736 182 97.9736 182.253 97.4936 182.76C97.0269 183.267 96.7936 183.973 96.7936 184.88V190H94.2336ZM111.162 190.24C110.202 190.24 109.335 190.02 108.562 189.58C107.802 189.14 107.195 188.533 106.742 187.76C106.302 186.973 106.082 186.067 106.082 185.04C106.082 184.013 106.308 183.113 106.762 182.34C107.215 181.553 107.822 180.94 108.582 180.5C109.355 180.06 110.222 179.84 111.182 179.84C112.128 179.84 112.982 180.06 113.742 180.5C114.515 180.94 115.122 181.553 115.562 182.34C116.015 183.113 116.242 184.013 116.242 185.04C116.242 186.067 116.015 186.973 115.562 187.76C115.122 188.533 114.515 189.14 113.742 189.58C112.968 190.02 112.108 190.24 111.162 190.24ZM111.162 188.02C111.828 188.02 112.408 187.773 112.902 187.28C113.395 186.773 113.642 186.027 113.642 185.04C113.642 184.053 113.395 183.313 112.902 182.82C112.408 182.313 111.835 182.06 111.182 182.06C110.502 182.06 109.915 182.313 109.422 182.82C108.942 183.313 108.702 184.053 108.702 185.04C108.702 186.027 108.942 186.773 109.422 187.28C109.915 187.773 110.495 188.02 111.162 188.02ZM118.53 194.4V180.08H120.81L121.09 181.5C121.41 181.06 121.83 180.673 122.35 180.34C122.884 180.007 123.57 179.84 124.41 179.84C125.344 179.84 126.177 180.067 126.91 180.52C127.644 180.973 128.224 181.593 128.65 182.38C129.077 183.167 129.29 184.06 129.29 185.06C129.29 186.06 129.077 186.953 128.65 187.74C128.224 188.513 127.644 189.127 126.91 189.58C126.177 190.02 125.344 190.24 124.41 190.24C123.664 190.24 123.01 190.1 122.45 189.82C121.89 189.54 121.437 189.147 121.09 188.64V194.4H118.53ZM123.87 188C124.684 188 125.357 187.727 125.89 187.18C126.424 186.633 126.69 185.927 126.69 185.06C126.69 184.193 126.424 183.48 125.89 182.92C125.357 182.36 124.684 182.08 123.87 182.08C123.044 182.08 122.364 182.36 121.83 182.92C121.31 183.467 121.05 184.173 121.05 185.04C121.05 185.907 121.31 186.62 121.83 187.18C122.364 187.727 123.044 188 123.87 188ZM132.957 178.54C132.491 178.54 132.104 178.4 131.797 178.12C131.504 177.84 131.357 177.487 131.357 177.06C131.357 176.633 131.504 176.287 131.797 176.02C132.104 175.74 132.491 175.6 132.957 175.6C133.424 175.6 133.804 175.74 134.097 176.02C134.404 176.287 134.557 176.633 134.557 177.06C134.557 177.487 134.404 177.84 134.097 178.12C133.804 178.4 133.424 178.54 132.957 178.54ZM131.677 190V180.08H134.237V190H131.677ZM137.369 190V182.22H136.009V180.08H137.369V178.92C137.369 177.72 137.669 176.867 138.269 176.36C138.883 175.853 139.709 175.6 140.749 175.6H141.849V177.78H141.149C140.709 177.78 140.396 177.867 140.209 178.04C140.023 178.213 139.929 178.507 139.929 178.92V180.08H142.069V182.22H139.929V190H137.369ZM145.337 194.4L147.637 189.34H147.037L143.177 180.08H145.957L148.737 187.06L151.637 180.08H154.357L148.057 194.4H145.337Z" fill="black"/>
</svg>
