<svg width="237" height="239" viewBox="0 0 237 239" fill="none" xmlns="http://www.w3.org/2000/svg">
<rect width="236.482" height="238.575" rx="10" fill="#E5E5E5" fill-opacity="0.5"/>
<path d="M75.5769 101.5C75.5796 109.561 77.8511 117.459 82.1316 124.29C86.4121 131.12 92.5288 136.608 99.7819 140.125L79.3008 84.03C76.8475 89.5277 75.5787 95.4802 75.5769 101.5ZM119.253 105.244L106.378 142.661C110.311 143.835 114.395 144.429 118.5 144.424C123.357 144.421 128.179 143.597 132.762 141.987C132.633 141.803 132.526 141.603 132.445 141.393L119.253 105.244Z" fill="black"/>
<path d="M118.5 50C104.841 50 91.7421 55.4259 82.084 65.084C72.4259 74.7421 67 87.8414 67 101.5C67 115.159 72.4259 128.258 82.084 137.916C91.7421 147.574 104.841 153 118.5 153C132.159 153 145.258 147.574 154.916 137.916C164.574 128.258 170 115.159 170 101.5C170 87.8414 164.574 74.7421 154.916 65.084C145.258 55.4259 132.159 50 118.5 50ZM158.65 128.557C152.37 137.86 143.057 144.695 132.299 147.895C121.542 151.096 110.006 150.464 99.6629 146.107C88.0612 141.193 78.8265 131.959 73.9129 120.357C70.15 111.484 69.1258 101.689 70.9717 92.2298C72.8177 82.7706 77.4495 74.0793 84.2723 67.2723C91.0841 60.4641 99.7704 55.8404 109.222 53.9917C118.674 52.143 128.462 53.1531 137.337 56.8931C148.939 61.8067 158.174 71.0414 163.087 82.6431C166.223 90.0594 167.458 98.1412 166.679 106.156C165.901 114.17 163.134 121.863 158.63 128.538L158.65 128.557Z" fill="black"/>
<path d="M156.135 80.9197C156.339 82.3776 156.438 83.8453 156.432 85.317C156.36 90.6052 155.249 95.8278 153.164 100.688L140.071 138.6C149.742 132.98 156.835 123.803 159.836 113.027C162.837 102.252 161.509 90.73 156.135 80.9197ZM147.479 99.3409C147.424 95.1269 146.196 91.0114 143.933 87.4563C141.754 83.9305 139.714 80.9395 139.714 77.3939C139.677 75.4353 140.412 73.5408 141.762 72.1208C143.112 70.7009 144.966 69.8698 146.924 69.8076H147.479C142.896 65.6106 137.455 62.4598 131.534 60.5733C125.613 58.6869 119.352 58.1099 113.186 58.8824C107.02 59.6548 101.095 61.7582 95.8224 65.0468C90.5495 68.3355 86.0543 72.7309 82.6482 77.9288H85.4015C89.8978 77.9288 96.8503 77.3939 96.8503 77.3939C97.2995 77.3958 97.7314 77.5672 98.0597 77.8737C98.3879 78.1803 98.5884 78.5995 98.6209 79.0475C98.6534 79.4955 98.5157 79.9392 98.2351 80.29C97.9546 80.6408 97.552 80.8728 97.1078 80.9395C97.1078 80.9395 94.7903 81.197 92.2153 81.3357L107.824 127.824L117.232 99.6578L110.577 81.3753C108.26 81.2366 106.081 80.9791 106.081 80.9791C105.635 80.9122 105.231 80.6787 104.95 80.3258C104.669 79.9729 104.533 79.5267 104.568 79.0772C104.603 78.6277 104.808 78.2082 105.14 77.9032C105.472 77.5982 105.907 77.4304 106.358 77.4336C106.358 77.4336 113.429 77.9684 117.648 77.9684C121.867 77.9684 129.097 77.4336 129.097 77.4336C129.548 77.4304 129.983 77.5982 130.316 77.9032C130.648 78.2082 130.852 78.6277 130.887 79.0772C130.922 79.5267 130.786 79.9729 130.505 80.3258C130.224 80.6787 129.82 80.9122 129.375 80.9791C129.375 80.9791 127.037 81.2366 124.462 81.3753L139.972 127.507L144.389 113.484C146.101 108.945 147.142 104.18 147.479 99.3409Z" fill="black"/>
<path d="M73.2 201L69.5 187H72.24L74.76 198.14L77.72 187H80.54L83.42 198.14L85.94 187H88.7L84.9 201H81.86L79.08 190.62L76.22 201H73.2ZM94.2006 201.24C93.2406 201.24 92.374 201.02 91.6006 200.58C90.8406 200.14 90.234 199.533 89.7806 198.76C89.3406 197.973 89.1206 197.067 89.1206 196.04C89.1206 195.013 89.3473 194.113 89.8006 193.34C90.254 192.553 90.8606 191.94 91.6206 191.5C92.394 191.06 93.2606 190.84 94.2206 190.84C95.1673 190.84 96.0206 191.06 96.7806 191.5C97.554 191.94 98.1606 192.553 98.6006 193.34C99.054 194.113 99.2806 195.013 99.2806 196.04C99.2806 197.067 99.054 197.973 98.6006 198.76C98.1606 199.533 97.554 200.14 96.7806 200.58C96.0073 201.02 95.1473 201.24 94.2006 201.24ZM94.2006 199.02C94.8673 199.02 95.4473 198.773 95.9406 198.28C96.434 197.773 96.6806 197.027 96.6806 196.04C96.6806 195.053 96.434 194.313 95.9406 193.82C95.4473 193.313 94.874 193.06 94.2206 193.06C93.5406 193.06 92.954 193.313 92.4606 193.82C91.9806 194.313 91.7406 195.053 91.7406 196.04C91.7406 197.027 91.9806 197.773 92.4606 198.28C92.954 198.773 93.534 199.02 94.2006 199.02ZM101.57 201V191.08H103.85L104.09 192.94C104.45 192.3 104.936 191.793 105.55 191.42C106.176 191.033 106.91 190.84 107.75 190.84V193.54H107.03C106.47 193.54 105.97 193.627 105.53 193.8C105.09 193.973 104.743 194.273 104.49 194.7C104.25 195.127 104.13 195.72 104.13 196.48V201H101.57ZM113.883 201.24C112.95 201.24 112.117 201.013 111.383 200.56C110.65 200.107 110.07 199.487 109.643 198.7C109.217 197.913 109.003 197.02 109.003 196.02C109.003 195.02 109.217 194.133 109.643 193.36C110.07 192.573 110.65 191.96 111.383 191.52C112.117 191.067 112.95 190.84 113.883 190.84C114.63 190.84 115.283 190.98 115.843 191.26C116.403 191.54 116.857 191.933 117.203 192.44V186.6H119.763V201H117.483L117.203 199.58C116.883 200.02 116.457 200.407 115.923 200.74C115.403 201.073 114.723 201.24 113.883 201.24ZM114.423 199C115.25 199 115.923 198.727 116.443 198.18C116.977 197.62 117.243 196.907 117.243 196.04C117.243 195.173 116.977 194.467 116.443 193.92C115.923 193.36 115.25 193.08 114.423 193.08C113.61 193.08 112.937 193.353 112.403 193.9C111.87 194.447 111.603 195.153 111.603 196.02C111.603 196.887 111.87 197.6 112.403 198.16C112.937 198.72 113.61 199 114.423 199ZM122.43 201V187H127.61C128.73 187 129.657 187.187 130.39 187.56C131.124 187.933 131.67 188.447 132.03 189.1C132.39 189.753 132.57 190.487 132.57 191.3C132.57 192.073 132.397 192.787 132.05 193.44C131.704 194.08 131.164 194.6 130.43 195C129.697 195.387 128.757 195.58 127.61 195.58H124.99V201H122.43ZM124.99 193.5H127.45C128.344 193.5 128.984 193.307 129.37 192.92C129.77 192.52 129.97 191.98 129.97 191.3C129.97 190.607 129.77 190.067 129.37 189.68C128.984 189.28 128.344 189.08 127.45 189.08H124.99V193.5ZM134.519 201V191.08H136.799L137.039 192.94C137.399 192.3 137.885 191.793 138.499 191.42C139.125 191.033 139.859 190.84 140.699 190.84V193.54H139.979C139.419 193.54 138.919 193.627 138.479 193.8C138.039 193.973 137.692 194.273 137.439 194.7C137.199 195.127 137.079 195.72 137.079 196.48V201H134.519ZM147.093 201.24C146.093 201.24 145.206 201.027 144.433 200.6C143.659 200.173 143.053 199.573 142.613 198.8C142.173 198.027 141.953 197.133 141.953 196.12C141.953 195.093 142.166 194.18 142.593 193.38C143.033 192.58 143.633 191.96 144.393 191.52C145.166 191.067 146.073 190.84 147.113 190.84C148.086 190.84 148.946 191.053 149.693 191.48C150.439 191.907 151.019 192.493 151.433 193.24C151.859 193.973 152.073 194.793 152.073 195.7C152.073 195.847 152.066 196 152.053 196.16C152.053 196.32 152.046 196.487 152.033 196.66H144.493C144.546 197.433 144.813 198.04 145.293 198.48C145.786 198.92 146.379 199.14 147.073 199.14C147.593 199.14 148.026 199.027 148.373 198.8C148.733 198.56 148.999 198.253 149.173 197.88H151.773C151.586 198.507 151.273 199.08 150.833 199.6C150.406 200.107 149.873 200.507 149.233 200.8C148.606 201.093 147.893 201.24 147.093 201.24ZM147.113 192.92C146.486 192.92 145.933 193.1 145.453 193.46C144.973 193.807 144.666 194.34 144.533 195.06H149.473C149.433 194.407 149.193 193.887 148.753 193.5C148.313 193.113 147.766 192.92 147.113 192.92ZM158.326 201.24C157.446 201.24 156.672 201.1 156.006 200.82C155.339 200.527 154.806 200.127 154.406 199.62C154.006 199.113 153.766 198.527 153.686 197.86H156.266C156.346 198.247 156.559 198.58 156.906 198.86C157.266 199.127 157.726 199.26 158.286 199.26C158.846 199.26 159.252 199.147 159.506 198.92C159.772 198.693 159.906 198.433 159.906 198.14C159.906 197.713 159.719 197.427 159.346 197.28C158.972 197.12 158.452 196.967 157.786 196.82C157.359 196.727 156.926 196.613 156.486 196.48C156.046 196.347 155.639 196.18 155.266 195.98C154.906 195.767 154.612 195.5 154.386 195.18C154.159 194.847 154.046 194.44 154.046 193.96C154.046 193.08 154.392 192.34 155.086 191.74C155.792 191.14 156.779 190.84 158.046 190.84C159.219 190.84 160.152 191.113 160.846 191.66C161.552 192.207 161.972 192.96 162.106 193.92H159.686C159.539 193.187 158.986 192.82 158.026 192.82C157.546 192.82 157.172 192.913 156.906 193.1C156.652 193.287 156.526 193.52 156.526 193.8C156.526 194.093 156.719 194.327 157.106 194.5C157.492 194.673 158.006 194.833 158.646 194.98C159.339 195.14 159.972 195.32 160.546 195.52C161.132 195.707 161.599 195.993 161.946 196.38C162.292 196.753 162.466 197.293 162.466 198C162.479 198.613 162.319 199.167 161.986 199.66C161.652 200.153 161.172 200.54 160.546 200.82C159.919 201.1 159.179 201.24 158.326 201.24ZM168.834 201.24C167.954 201.24 167.18 201.1 166.514 200.82C165.847 200.527 165.314 200.127 164.914 199.62C164.514 199.113 164.274 198.527 164.194 197.86H166.774C166.854 198.247 167.067 198.58 167.414 198.86C167.774 199.127 168.234 199.26 168.794 199.26C169.354 199.26 169.76 199.147 170.014 198.92C170.28 198.693 170.414 198.433 170.414 198.14C170.414 197.713 170.227 197.427 169.854 197.28C169.48 197.12 168.96 196.967 168.294 196.82C167.867 196.727 167.434 196.613 166.994 196.48C166.554 196.347 166.147 196.18 165.774 195.98C165.414 195.767 165.12 195.5 164.894 195.18C164.667 194.847 164.554 194.44 164.554 193.96C164.554 193.08 164.9 192.34 165.594 191.74C166.3 191.14 167.287 190.84 168.554 190.84C169.727 190.84 170.66 191.113 171.354 191.66C172.06 192.207 172.48 192.96 172.614 193.92H170.194C170.047 193.187 169.494 192.82 168.534 192.82C168.054 192.82 167.68 192.913 167.414 193.1C167.16 193.287 167.034 193.52 167.034 193.8C167.034 194.093 167.227 194.327 167.614 194.5C168 194.673 168.514 194.833 169.154 194.98C169.847 195.14 170.48 195.32 171.054 195.52C171.64 195.707 172.107 195.993 172.454 196.38C172.8 196.753 172.974 197.293 172.974 198C172.987 198.613 172.827 199.167 172.494 199.66C172.16 200.153 171.68 200.54 171.054 200.82C170.427 201.1 169.687 201.24 168.834 201.24Z" fill="black"/>
</svg>
